<svg width="24px" height="24px" viewBox="0 0 24 24" version="1.1" xmlns="http://www.w3.org/2000/svg" xmlns:xlink="http://www.w3.org/1999/xlink">
    <g id="Solid/Interface/pixfort-icon-cross-square-1" stroke="none" stroke-width="1" fill="none" fill-rule="evenodd">
        <path d="M5,2 L19,2 C20.6568542,2 22,3.34314575 22,5 L22,19 C22,20.6568542 20.6568542,22 19,22 L5,22 C3.34314575,22 2,20.6568542 2,19 L2,5 C2,3.34314575 3.34314575,2 5,2 Z M9.20710678,7.79289322 L12,10.585 L14.7928932,7.79289322 C15.1834175,7.40236893 15.8165825,7.40236893 16.2071068,7.79289322 C16.5976311,8.18341751 16.5976311,8.81658249 16.2071068,9.20710678 L13.415,12 L16.2071068,14.7928932 C16.5976311,15.1834175 16.5976311,15.8165825 16.2071068,16.2071068 C15.8165825,16.5976311 15.1834175,16.5976311 14.7928932,16.2071068 L12,13.415 L9.20710678,16.2071068 C8.81658249,16.5976311 8.18341751,16.5976311 7.79289322,16.2071068 C7.40236893,15.8165825 7.40236893,15.1834175 7.79289322,14.7928932 L10.585,12 L7.79289322,9.20710678 C7.40236893,8.81658249 7.40236893,8.18341751 7.79289322,7.79289322 C8.18341751,7.40236893 8.81658249,7.40236893 9.20710678,7.79289322 Z" fill="currentcolor"></path>
    </g>
</svg>