<svg width="24px" height="24px" viewBox="0 0 24 24" version="1.1" xmlns="http://www.w3.org/2000/svg" xmlns:xlink="http://www.w3.org/1999/xlink">
    <g id="Solid/Interface/pixfort-icon-cross-circle-1" stroke="none" stroke-width="1" fill="none" fill-rule="evenodd">
        <path d="M12,2 C17.5228475,2 22,6.4771525 22,12 C22,17.5228475 17.5228475,22 12,22 C6.4771525,22 2,17.5228475 2,12 C2,6.4771525 6.4771525,2 12,2 Z M9.20710678,7.79289322 C8.81658249,7.40236893 8.18341751,7.40236893 7.79289322,7.79289322 C7.40236893,8.18341751 7.40236893,8.81658249 7.79289322,9.20710678 L10.585,12 L7.79289322,14.7928932 C7.40236893,15.1834175 7.40236893,15.8165825 7.79289322,16.2071068 C8.18341751,16.5976311 8.81658249,16.5976311 9.20710678,16.2071068 L12,13.415 L14.7928932,16.2071068 C15.1834175,16.5976311 15.8165825,16.5976311 16.2071068,16.2071068 C16.5976311,15.8165825 16.5976311,15.1834175 16.2071068,14.7928932 L13.415,12 L16.2071068,9.20710678 C16.5976311,8.81658249 16.5976311,8.18341751 16.2071068,7.79289322 C15.8165825,7.40236893 15.1834175,7.40236893 14.7928932,7.79289322 L12,10.585 Z" id="icon" fill="currentcolor"></path>
    </g>
</svg>