<svg xmlns="http://www.w3.org/2000/svg" xmlns:xlink="http://www.w3.org/1999/xlink" width="200" height="200" viewBox="0 0 200 200"><defs><radialGradient id="a" cx="50%" cy="50%" r="67.061%" fx="50%" fy="50%"><stop offset="0%" stop-color="#C1C6CC"/><stop offset="100%" stop-color="#F1F3F4" stop-opacity="0"/></radialGradient><filter id="c" width="118.3%" height="118.3%" x="-9.2%" y="-5.8%" filterUnits="objectBoundingBox"><feOffset dy="4" in="SourceAlpha" result="shadowOffsetOuter1"/><feGaussianBlur in="shadowOffsetOuter1" result="shadowBlurOuter1" stdDeviation="3"/><feColorMatrix in="shadowBlurOuter1" values="0 0 0 0 0 0 0 0 0 0 0 0 0 0 0 0 0 0 0.1 0"/></filter><rect id="b" width="120" height="120" x="40" y="40" rx="60"/></defs><g fill="none" fill-rule="evenodd"><rect width="200" height="200" fill="#6C757D" fill-opacity=".05"/><path stroke="url(#a)" stroke-dasharray="2 3" stroke-linecap="round" stroke-linejoin="round" stroke-width="2" d="M160.62,1 L160.62,199 M39.38,1 L39.38,199 M199,160.72 L1,160.72 M199,39.28 L1,39.28"/><mask id="d" fill="#fff"><use xlink:href="#b"/></mask><use xlink:href="#b" fill="#000" filter="url(#c)"/><use xlink:href="#b" fill="#FFF"/><g mask="url(#d)"><g transform="translate(81.863 81.863)"><path fill="#ADB5BD" fill-opacity=".25" d="M1.17157288,1.17157288 C2.73367004,-0.390524292 5.26632996,-0.390524292 6.82842712,1.17157288 L10.2157864,4.55893219 L10.2157864,4.55893219 L4.30893219,9.96578644 L1.17157288,6.82842712 C-0.390524292,5.26632996 -0.390524292,2.73367004 1.17157288,1.17157288 Z M17.5245064,11.7710275 L28.5530013,0.742532563 C29.4902597,-0.194725774 31.0098557,-0.194725774 31.947114,0.742532563 L35.6240692,4.41948769 C36.5613275,5.35674603 36.5613275,6.87634204 35.6240692,7.81360037 L24.5883519,18.8493177 L24.5883519,18.8493177 M18.8396755,24.597994 L7.90548347,35.5321861 C6.96822513,36.4694444 5.44862912,36.4694444 4.51137078,35.5321861 L0.834415655,31.8552309 C-0.102842682,30.9179726 -0.102842682,29.3983766 0.834415655,28.4611183 L11.7779761,17.5175578 L11.7779761,17.5175578"/><path stroke="#ADB5BD" stroke-linecap="round" stroke-linejoin="round" stroke-width="4" d="M1.17157288,1.17157288 C2.73367004,-0.390524292 5.26632996,-0.390524292 6.82842712,1.17157288 L33.4964716,27.8396174 C34.0118622,28.355008 34.376634,29.0014256 34.551382,29.70904 L36.153333,36.1958885 L36.153333,36.1958885 L29.6933982,34.5550354 C28.9956908,34.3778145 28.3587388,34.0155931 27.8497188,33.506573 L1.17157288,6.82842712 C-0.390524292,5.26632996 -0.390524292,2.73367004 1.17157288,1.17157288 Z M4.67129228,10.3281465 L10.3281465,4.67129228 M17.5245064,11.7710275 L28.5530013,0.742532563 C29.4902597,-0.194725774 31.0098557,-0.194725774 31.947114,0.742532563 L35.6240692,4.41948769 C36.5613275,5.35674603 36.5613275,6.87634204 35.6240692,7.81360037 L24.5883519,18.8493177 L24.5883519,18.8493177 M18.8396755,24.597994 L7.90548347,35.5321861 C6.96822513,36.4694444 5.44862912,36.4694444 4.51137078,35.5321861 L0.834415655,31.8552309 C-0.102842682,30.9179726 -0.102842682,29.3983766 0.834415655,28.4611183 L11.7779761,17.5175578 L11.7779761,17.5175578 M25.064608,4.23092595 L27.1859283,6.35224629 M18.150675,11.1448589 L20.9791021,13.973286 M11.236742,18.0587919 L13.3580624,20.1801122 M4.32280904,24.9727249 L7.15123617,27.801152"/></g></g></g></svg>