<svg xmlns="http://www.w3.org/2000/svg" xmlns:xlink="http://www.w3.org/1999/xlink" width="200" height="200" viewBox="0 0 200 200"><defs><radialGradient id="a" cx="50%" cy="50%" r="67.061%" fx="50%" fy="50%"><stop offset="0%" stop-color="#C1C6CC"/><stop offset="100%" stop-color="#F1F3F4" stop-opacity="0"/></radialGradient><filter id="c" width="118.3%" height="118.3%" x="-9.2%" y="-5.8%" filterUnits="objectBoundingBox"><feOffset dy="4" in="SourceAlpha" result="shadowOffsetOuter1"/><feGaussianBlur in="shadowOffsetOuter1" result="shadowBlurOuter1" stdDeviation="3"/><feColorMatrix in="shadowBlurOuter1" values="0 0 0 0 0 0 0 0 0 0 0 0 0 0 0 0 0 0 0.1 0"/></filter><rect id="b" width="120" height="120" x="40" y="40" rx="60"/></defs><g fill="none" fill-rule="evenodd"><rect width="200" height="200" fill="#6C757D" fill-opacity=".05"/><path stroke="url(#a)" stroke-dasharray="2 3" stroke-linecap="round" stroke-linejoin="round" stroke-width="2" d="M160.62,1 L160.62,199 M39.38,1 L39.38,199 M199,160.72 L1,160.72 M199,39.28 L1,39.28"/><use xlink:href="#b" fill="#000" filter="url(#c)"/><use xlink:href="#b" fill="#FFF"/><path stroke="#ADB5BD" stroke-linecap="round" stroke-linejoin="round" stroke-width="4.981" d="M27.5,27.5 L45,27.5 L45,45 L27.5,45 L27.5,27.5 Z M8.75,27.5 L17.5,45 L0,45 L8.75,27.5 Z M8.75,17.5 C13.5824916,17.5 17.5,13.5824916 17.5,8.75 C17.5,3.91750844 13.5824916,0 8.75,0 C3.91750844,0 0,3.91750844 0,8.75 C0,13.5824916 3.91750844,17.5 8.75,17.5 Z M36.0416667,15.5471176 L29.8613268,18.75 L31.0416667,11.9661863 L26.0416667,7.16186271 L32.9514967,6.17211763 L36.0416667,0 L39.1318366,6.17211763 L46.0416667,7.16186271 L41.0416667,11.9661863 L42.2220066,18.75 L36.0416667,15.5471176 Z" transform="translate(77.5 77.5)"/></g></svg>