<svg xmlns="http://www.w3.org/2000/svg" xmlns:xlink="http://www.w3.org/1999/xlink" width="200" height="150" viewBox="0 0 200 150"><defs><rect id="a" width="200" height="150" x="0" y="0"/><rect id="d" width="60" height="60" x="70" y="45" rx="4"/><radialGradient id="b" cx="50%" cy="50%" r="50%" fx="50%" fy="50%"><stop offset="0%" stop-color="#BBBFC4"/><stop offset="100%" stop-color="#F1F3F4" stop-opacity="0"/></radialGradient><filter id="e" width="106.7%" height="106.7%" x="-3.3%" y="-1.7%" filterUnits="objectBoundingBox"><feOffset dy="1" in="SourceAlpha" result="shadowOffsetOuter1"/><feGaussianBlur in="shadowOffsetOuter1" result="shadowBlurOuter1" stdDeviation=".5"/><feComposite in="shadowBlurOuter1" in2="SourceAlpha" operator="out" result="shadowBlurOuter1"/><feColorMatrix in="shadowBlurOuter1" values="0 0 0 0 0 0 0 0 0 0 0 0 0 0 0 0 0 0 0.1 0"/></filter></defs><g fill="none" fill-rule="evenodd"><mask id="c" fill="#fff"><use xlink:href="#a"/></mask><use xlink:href="#a" fill="#6C757D" fill-opacity=".05"/><path stroke="url(#b)" stroke-dasharray="2 3" stroke-linecap="round" stroke-linejoin="round" stroke-width="2" d="M127.82,-24 L127.82,174 M72.18,-24 L72.18,174 M199,102.72 L1,102.72 M199,47.28 L1,47.28" mask="url(#c)"/><g mask="url(#c)"><use xlink:href="#d" fill="#000" filter="url(#e)"/><rect width="59" height="59" x="70.5" y="45.5" fill="#FFF" stroke="#ADB5BD" stroke-linejoin="square" rx="4"/></g><g stroke="#ADB5BD" stroke-linecap="round" stroke-linejoin="round" stroke-width="3.5" mask="url(#c)"><path d="M18,0 L18,36 M36,18 L26,18 M30,12 L24,18 L30,24 M0,18 L10,18 M6,12 L12,18 L6,24" transform="translate(82 57)"/></g></g></svg>