<svg xmlns="http://www.w3.org/2000/svg" xmlns:xlink="http://www.w3.org/1999/xlink" width="200" height="150" viewBox="0 0 200 150"><defs><rect id="a" width="200" height="150" x="0" y="0"/><rect id="d" width="60" height="60" x="70" y="5" rx="4"/><radialGradient id="b" cx="50%" cy="50%" r="50%" fx="50%" fy="50%"><stop offset="0%" stop-color="#BBBFC4"/><stop offset="100%" stop-color="#F1F3F4" stop-opacity="0"/></radialGradient><filter id="e" width="106.7%" height="106.7%" x="-3.3%" y="-1.7%" filterUnits="objectBoundingBox"><feOffset dy="1" in="SourceAlpha" result="shadowOffsetOuter1"/><feGaussianBlur in="shadowOffsetOuter1" result="shadowBlurOuter1" stdDeviation=".5"/><feComposite in="shadowBlurOuter1" in2="SourceAlpha" operator="out" result="shadowBlurOuter1"/><feColorMatrix in="shadowBlurOuter1" values="0 0 0 0 0 0 0 0 0 0 0 0 0 0 0 0 0 0 0.1 0"/></filter></defs><g fill="none" fill-rule="evenodd"><mask id="c" fill="#fff"><use xlink:href="#a"/></mask><use xlink:href="#a" fill="#6C757D" fill-opacity=".05"/><path stroke="url(#b)" stroke-dasharray="2 3" stroke-linecap="round" stroke-linejoin="round" stroke-width="2" d="M127.82,-63 L127.82,135 M72.18,-63 L72.18,135 M199,63.72 L1,63.72 M199,8.28 L1,8.28" mask="url(#c)"/><g mask="url(#c)"><use xlink:href="#d" fill="#000" filter="url(#e)"/><rect width="59" height="59" x="70.5" y="5.5" fill="#FFF" stroke="#ADB5BD" stroke-linejoin="square" rx="4"/></g><g stroke="#ADB5BD" stroke-linecap="round" stroke-linejoin="round" stroke-width="3.5" mask="url(#c)"><path d="M18,-3.55271368e-15 L18,28 M6,18 L18,30 L30,18 M0,36 L36,36" transform="matrix(1 0 0 -1 82 53)"/></g></g></svg>