<svg xmlns="http://www.w3.org/2000/svg" width="24" height="24" viewBox="0 0 24 24"><path fill="none" stroke="#adb5bd" stroke-linecap="round" stroke-linejoin="round" stroke-width="2" d="M12,21 C16.9705627,21 21,16.9705627 21,12 C21,7.02943725 16.9705627,3 12,3 C7.02943725,3 3,7.02943725 3,12 C3,16.9705627 7.02943725,21 12,21 Z M12,16 C14.209139,16 16,14.209139 16,12 C16,9.790861 14.209139,8 12,8 C9.790861,8 8,9.790861 8,12 C8,14.209139 9.790861,16 12,16 Z M14.8312171,14.8312171 L18.3553585,18.3553585 M14.8312171,9.16869578 L18.3553585,5.64455439 M9.17139123,14.8312171 L5.64724984,18.3553585 M9.17139123,9.16869578 L5.64724984,5.64455439"/></svg>