<svg xmlns="http://www.w3.org/2000/svg" width="24" height="24" viewBox="0 0 24 24"><path fill="none" stroke="currentcolor" stroke-linecap="round" stroke-linejoin="round" stroke-width="2" d="M7.13278222,7 L18.4384472,7 C19.5430167,7 20.4384472,7.8954305 20.4384472,9 C20.4384472,9.16352361 20.4183925,9.32643004 20.3787322,9.48507125 L19.3787322,13.4850713 C19.1561487,14.3754053 18.3561825,15 17.4384472,15 L8.76556444,15 C7.7569179,15 6.90611589,14.2489271 6.78100868,13.2480695 L6.14050434,8.12403473 C6.07200185,7.5760148 6.46072755,7.07622462 7.00874748,7.00772212 C7.04989231,7.00257902 7.09131719,7 7.13278222,7 Z M6.1309595,7.99167118 L5.80461604,5.01080519 L3,4 M9,20 C9.55228475,20 10,19.5522847 10,19 C10,18.4477153 9.55228475,18 9,18 C8.44771525,18 8,18.4477153 8,19 C8,19.5522847 8.44771525,20 9,20 Z M17,20 C17.5522847,20 18,19.5522847 18,19 C18,18.4477153 17.5522847,18 17,18 C16.4477153,18 16,18.4477153 16,19 C16,19.5522847 16.4477153,20 17,20 Z"/></svg>