<svg xmlns="http://www.w3.org/2000/svg" width="24" height="24" viewBox="0 0 24 24"><path fill="none" stroke="currentcolor" stroke-linecap="round" stroke-linejoin="round" stroke-width="2" d="M18,21 C19.6568542,21 21,19.6568542 21,18 C21,16.3431458 19.6568542,15 18,15 C16.3431458,15 15,16.3431458 15,18 C15,19.6568542 16.3431458,21 18,21 Z M18,9 C19.6568542,9 21,7.65685425 21,6 C21,4.34314575 19.6568542,3 18,3 C16.3431458,3 15,4.34314575 15,6 C15,7.65685425 16.3431458,9 18,9 Z M6,15 C7.65685425,15 9,13.6568542 9,12 C9,10.3431458 7.65685425,9 6,9 C4.34314575,9 3,10.3431458 3,12 C3,13.6568542 4.34314575,15 6,15 Z M15.1380663,16.963069 L8.65262644,13.549719 M8.65262644,10.4356355 L15.1380663,7.02874323"/></svg>