<svg xmlns="http://www.w3.org/2000/svg" xmlns:xlink="http://www.w3.org/1999/xlink" width="200" height="200" viewBox="0 0 200 200"><defs><rect id="a" width="200" height="200" x="0" y="0"/><rect id="d" width="100" height="112" x="50" y="44" rx="4"/><radialGradient id="b" cx="50%" cy="50%" r="66.119%" fx="50%" fy="50%"><stop offset="0%" stop-color="#77838F"/><stop offset="100%" stop-color="#F1F3F4" stop-opacity="0"/></radialGradient><filter id="e" width="104%" height="103.6%" x="-2%" y="-.9%" filterUnits="objectBoundingBox"><feOffset dy="1" in="SourceAlpha" result="shadowOffsetOuter1"/><feGaussianBlur in="shadowOffsetOuter1" result="shadowBlurOuter1" stdDeviation=".5"/><feComposite in="shadowBlurOuter1" in2="SourceAlpha" operator="out" result="shadowBlurOuter1"/><feColorMatrix in="shadowBlurOuter1" values="0 0 0 0 0 0 0 0 0 0 0 0 0 0 0 0 0 0 0.1 0"/></filter></defs><g fill="none" fill-rule="evenodd"><mask id="c" fill="#fff"><use xlink:href="#a"/></mask><use xlink:href="#a" fill="#6C757D" fill-opacity=".05"/><path stroke="url(#b)" stroke-dasharray="2 3" stroke-linecap="round" stroke-linejoin="round" stroke-width="2" d="M147.52,1 L147.52,199 M52.48,1 L52.48,199 M199,154.72 L1,154.72 M199,46.28 L1,46.28" mask="url(#c)"/><g mask="url(#c)"><use xlink:href="#d" fill="#000" filter="url(#e)"/><rect width="99" height="111" x="50.5" y="44.5" fill="#FFF" stroke="#ADB5BD" stroke-linejoin="square" rx="4"/></g><g fill="#ADB5BD" mask="url(#c)"><path d="M83.5606602,0.439339828 L89.5606602,6.43933983 C90.1464466,7.02512627 90.1464466,7.97487373 89.5606602,8.56066017 L83.5606602,14.5606602 C82.9748737,15.1464466 82.0251263,15.1464466 81.4393398,14.5606602 C80.8535534,13.9748737 80.8535534,13.0251263 81.4393398,12.4393398 L84.878,8.999 L5.122,9 L8.56066017,12.4393398 C9.10983496,12.9885146 9.14415838,13.857577 8.66363044,14.4467378 L8.56066017,14.5606602 C7.97487373,15.1464466 7.02512627,15.1464466 6.43933983,14.5606602 L0.439339828,8.56066017 C-0.146446609,7.97487373 -0.146446609,7.02512627 0.439339828,6.43933983 L6.43933983,0.439339828 C7.02512627,-0.146446609 7.97487373,-0.146446609 8.56066017,0.439339828 L8.68544308,0.580650835 C9.14298042,1.16908765 9.10138611,2.01993423 8.56066017,2.56066017 L5.121,6 L84.877,5.999 L81.4393398,2.56066017 C80.8986139,2.01993423 80.8570196,1.16908765 81.3145569,0.580650835 L81.4393398,0.439339828 C82.0251263,-0.146446609 82.9748737,-0.146446609 83.5606602,0.439339828 Z" transform="rotate(90 26 81.5)"/></g><line x1="57" x2="143" y1="51" y2="149" stroke="#ADB5BD" stroke-linecap="round" stroke-linejoin="round" mask="url(#c)" opacity=".5"/><line x1="57" x2="143" y1="51" y2="149" stroke="#ADB5BD" stroke-linecap="round" stroke-linejoin="round" mask="url(#c)" opacity=".5" transform="matrix(-1 0 0 1 200 0)"/></g></svg>