<svg xmlns="http://www.w3.org/2000/svg" xmlns:xlink="http://www.w3.org/1999/xlink" width="200" height="200" viewBox="0 0 200 200"><defs><radialGradient id="a" cx="50%" cy="50%" r="50%" fx="50%" fy="50%"><stop offset="0%" stop-color="#808B95"/><stop offset="100%" stop-color="#F1F3F4" stop-opacity="0"/></radialGradient><filter id="c" width="105%" height="106.7%" x="-2.5%" y="-1.7%" filterUnits="objectBoundingBox"><feOffset dy="1" in="SourceAlpha" result="shadowOffsetOuter1"/><feGaussianBlur in="shadowOffsetOuter1" result="shadowBlurOuter1" stdDeviation=".5"/><feComposite in="shadowBlurOuter1" in2="SourceAlpha" operator="out" result="shadowBlurOuter1"/><feColorMatrix in="shadowBlurOuter1" values="0 0 0 0 0 0 0 0 0 0 0 0 0 0 0 0 0 0 0.1 0"/></filter><rect id="b" width="80" height="60" x="60" y="70" rx="4"/></defs><g fill="none" fill-rule="evenodd"><rect width="200" height="200" fill="#6C757D" fill-opacity=".05"/><path stroke="url(#a)" stroke-dasharray="2 3" stroke-linecap="round" stroke-linejoin="round" stroke-width="2" d="M137.62,1 L137.62,199 M62.38,1 L62.38,199 M199,127.72 L1,127.72 M199,72.28 L1,72.28"/><use xlink:href="#b" fill="#000" filter="url(#c)"/><rect width="79" height="59" x="60.5" y="70.5" fill="#FFF" stroke="#ADB5BD" stroke-linejoin="square" rx="4"/><g transform="translate(86.397 86.397)"><path fill="#ADB5BD" fill-opacity=".25" d="M0.878679656,0.878679656 C2.05025253,-0.292893219 3.94974747,-0.292893219 5.12132034,0.878679656 L7.66183983,3.41919914 L7.66183983,3.41919914 L3.23169914,7.47433983 L0.878679656,5.12132034 C-0.292893219,3.94974747 -0.292893219,2.05025253 0.878679656,0.878679656 Z M13.1433798,8.82827065 L21.414751,0.556899422 C22.1176948,-0.146044331 23.2573918,-0.146044331 23.9603355,0.556899422 L26.7180519,3.31461577 C27.4209956,4.01755952 27.4209956,5.15725653 26.7180519,5.86020028 L18.4412639,14.1369883 L18.4412639,14.1369883 M14.1297566,18.4484955 L5.9291126,26.6491395 C5.22616885,27.3520833 4.08647184,27.3520833 3.38352809,26.6491395 L0.625811741,23.8914232 C-0.0771320117,23.1884794 -0.0771320117,22.0487824 0.625811741,21.3458387 L8.83348209,13.1381683 L8.83348209,13.1381683"/><path stroke="#ADB5BD" stroke-linecap="round" stroke-linejoin="round" stroke-width="3" d="M0.878679656,0.878679656 C2.05025253,-0.292893219 3.94974747,-0.292893219 5.12132034,0.878679656 L25.1223537,20.879713 C25.5088967,21.266256 25.7824755,21.7510692 25.9135365,22.28178 L27.1149998,27.1469164 L27.1149998,27.1469164 L22.2700486,25.9162765 C21.7467681,25.7833609 21.2690541,25.5116948 20.8872891,25.1299298 L0.878679656,5.12132034 C-0.292893219,3.94974747 -0.292893219,2.05025253 0.878679656,0.878679656 Z M3.50346921,7.7461099 L7.7461099,3.50346921 M13.1433798,8.82827065 L21.414751,0.556899422 C22.1176948,-0.146044331 23.2573918,-0.146044331 23.9603355,0.556899422 L26.7180519,3.31461577 C27.4209956,4.01755952 27.4209956,5.15725653 26.7180519,5.86020028 L18.4412639,14.1369883 L18.4412639,14.1369883 M14.1297566,18.4484955 L5.9291126,26.6491395 C5.22616885,27.3520833 4.08647184,27.3520833 3.38352809,26.6491395 L0.625811741,23.8914232 C-0.0771320117,23.1884794 -0.0771320117,22.0487824 0.625811741,21.3458387 L8.83348209,13.1381683 L8.83348209,13.1381683 M18.798456,3.17319446 L20.3894462,4.76418472 M13.6130062,8.35864419 L15.7343266,10.4799645 M8.42755651,13.5440939 L10.0185468,15.1350842 M3.24210678,18.7295436 L5.36342712,20.850864"/></g></g></svg>