<svg xmlns="http://www.w3.org/2000/svg" xmlns:xlink="http://www.w3.org/1999/xlink" width="200" height="200" viewBox="0 0 200 200"><defs><radialGradient id="a" cx="50%" cy="50%" r="66.119%" fx="50%" fy="50%"><stop offset="0%" stop-color="#BBBFC4"/><stop offset="100%" stop-color="#F1F3F4" stop-opacity="0"/></radialGradient><filter id="c" width="103.3%" height="111.1%" x="-1.7%" y="-2.8%" filterUnits="objectBoundingBox"><feOffset dy="1" in="SourceAlpha" result="shadowOffsetOuter1"/><feGaussianBlur in="shadowOffsetOuter1" result="shadowBlurOuter1" stdDeviation=".5"/><feComposite in="shadowBlurOuter1" in2="SourceAlpha" operator="out" result="shadowBlurOuter1"/><feColorMatrix in="shadowBlurOuter1" values="0 0 0 0 0 0 0 0 0 0 0 0 0 0 0 0 0 0 0.1 0"/></filter><rect id="b" width="120" height="36" x="40" y="82" rx="4"/></defs><g fill="none" fill-rule="evenodd"><rect width="200" height="200" fill="#6C757D" fill-opacity=".05"/><path stroke="url(#a)" stroke-dasharray="2 3" stroke-linecap="round" stroke-linejoin="round" stroke-width="2" d="M157.42,1 L157.42,199 M42.58,1 L42.58,199 M199,127.72 L1,127.72 M199,72.28 L1,72.28"/><use xlink:href="#b" fill="#000" filter="url(#c)"/><rect width="119" height="35" x="40.5" y="82.5" fill="#FFF" stroke="#ADB5BD" stroke-linejoin="square" rx="4"/><g fill="#ADB5BD" fill-rule="nonzero" transform="translate(75 94)"><path d="M3.6082394 10.839321.908461006 10.839321.908461006 9.23177063 3.5120823 9.23177063C4.25838068 9.23177063 4.88137063 9.09957231 5.38105213 8.83517568 5.88073364 8.57077905 6.25583952 8.17291749 6.50636977 7.641591 6.75690002 7.11026451 6.88216515 6.4470654 6.88216515 5.65199368 6.88216515 4.86119226 6.75680685 4.20235393 6.50609024 3.67547868 6.25537364 3.14860343 5.88455384 2.7532932 5.39363083 2.48954797 4.90270782 2.22580274 4.29270653 2.09393012 3.56362698 2.09393012L.856357273 2.09393012.856357273.486379787 3.67979817.486379787C4.74035885.486379787 5.64990069.692928346 6.4084237 1.10602546 7.16694671 1.51912258 7.7502998 2.111717 8.15848298 2.88380872 8.56666616 3.65590045 8.77075774 4.57862877 8.77075774 5.65199368 8.77075774 6.7296289 8.56634936 7.65597612 8.15753259 8.43103533 7.74871582 9.20609455 7.15902679 9.80124029 6.38846551 10.2164726 5.61790422 10.6317048 4.69116219 10.839321 3.6082394 10.839321ZM1.9108429.486379787 1.9108429 10.839321 0 10.839321 0 .486379787 1.9108429.486379787ZM14.0294419 10.9960916C13.2274619 10.9960916 12.5358948 10.832246 11.9547406 10.5045549 11.3735865 10.1768637 10.92681 9.71424201 10.6144112 9.1166897 10.3020124 8.51913739 10.1458131 7.81450191 10.1458131 7.00278326 10.1458131 6.20438216 10.3001489 5.50302178 10.6088207 4.89870213 10.9174924 4.29438248 11.3541501 3.82249638 11.9187935 3.48304382 12.483437 3.14359126 13.1463619 2.97386498 13.9075684 2.97386498 14.3973733 2.97386498 14.8623562 3.05053132 15.3025173 3.203864 15.7426783 3.35719667 16.1330649 3.5930583 16.4736772 3.91144887 16.8142895 4.22983945 17.0822063 4.63602448 17.2774276 5.13000395 17.4726489 5.62398342 17.5702595 6.21248849 17.5702595 6.89551915L17.5702595 7.45909001 11.0239734 7.45909001 11.0239734 6.23293525 16.6416726 6.23293525 15.7726808 6.59696013C15.7726808 6.15748125 15.7028364 5.77223154 15.5631477 5.44121101 15.423459 5.11019049 15.2163113 4.85236215 14.9417045 4.66772602 14.6670977 4.48308988 14.3258145 4.39077181 13.917855 4.39077181 13.5098954 4.39077181 13.1624999 4.48457363 12.8756685 4.67217726 12.5888371 4.85978089 12.3702474 5.11019049 12.2198994 5.42340604 12.0695514 5.73662159 11.9943775 6.08481379 11.9943775 6.46798263L11.9943775 7.31741019C11.9943775 7.80842216 12.0801921 8.22258685 12.2518213 8.55990426 12.4234506 8.89722167 12.6644956 9.15143111 12.9749563 9.32253257 13.285417 9.49363403 13.6453353 9.57918476 14.0547111 9.57918476 14.3266345 9.57918476 14.5737918 9.54143966 14.796183 9.46594947 15.0185743 9.39045927 15.2099195 9.27771253 15.3702186 9.12770924 15.5305177 8.97770595 15.6530434 8.79236413 15.7377959 8.57168377L17.446597 8.9151895C17.319133 9.33100079 17.0997792 9.69506185 16.7885358 10.0073727 16.4772924 10.3196835 16.0888066 10.5625477 15.6230782 10.7359653 15.1573498 10.9093828 14.6261378 10.9960916 14.0294419 10.9960916ZM23.3718732 3.07114094 23.3718732 4.4863107 18.3207182 4.4863107 18.3207182 3.07114094 23.3718732 3.07114094ZM19.7867786 10.839321 19.7867786 2.32854323C19.7867786 1.81082379 19.8983283 1.37974076 20.1214277 1.03529412 20.3445271.69084748 20.6447944.432186801 21.0222297.259312081 21.3996649.0864373602 21.8168116 0 22.2736697 0 22.6012747 0 22.8914418.0255675089 23.144171.0767025266 23.3969002.127837544 23.5830089.173417555 23.7024971.213442558L23.3241301 1.61862416C23.2435519 1.59379853 23.1444505 1.56915384 23.0268258 1.54469009 22.909201 1.52022635 22.7726058 1.50799447 22.61704 1.50799447 22.2675201 1.50799447 22.0175675 1.59101198 21.8671823 1.75704698 21.716797 1.92308198 21.6416044 2.15950454 21.6416044 2.46631465L21.6416044 10.839321 19.7867786 10.839321ZM27.0984239 11C26.5910275 11 26.1344303 10.9111018 25.7286325 10.7333054 25.3228346 10.5555089 25.0025718 10.2924332 24.7678441 9.94407817 24.5331164 9.59572312 24.4157526 9.16594289 24.4157526 8.65473747 24.4157526 8.21677852 24.5003932 7.85465357 24.6696744 7.56836261 24.8389556 7.28207165 25.0686146 7.0531945 25.3586512 6.88173115 25.6486879 6.7102678 25.9752307 6.58056652 26.3382797 6.49262732 26.7013286 6.40468812 27.0766209 6.34088696 27.4641564 6.30122385 27.9309283 6.25106593 28.3090158 6.20725918 28.5984188 6.16980359 28.8878219 6.13234801 29.1009702 6.07216575 29.2378636 5.98925681 29.374757 5.90634787 29.4432037 5.77742466 29.4432037 5.60248717L29.4432037 5.56590012C29.4432037 5.30997171 29.3902055 5.09343499 29.2842091 4.91628997 29.1782126 4.73914495 29.0217896 4.60329155 28.81494 4.50872977 28.6080905 4.41416798 28.3521188 4.36688709 28.0470249 4.36688709 27.7374587 4.36688709 27.4690388 4.4131185 27.2417651 4.50558133 27.0144915 4.59804415 26.8290536 4.71819154 26.6854515 4.86602349 26.5418495 5.01385544 26.4365798 5.17393736 26.3696425 5.34626925L24.6447406 5.00276352C24.8035117 4.54359784 25.0475942 4.16459074 25.3769882 3.8657422 25.7063822 3.56689367 26.0994336 3.34353533 26.5561426 3.19566719 27.0128516 3.04779905 27.5073153 2.97386498 28.0395336 2.97386498 28.4148445 2.97386498 28.794516 3.01721937 29.1785481 3.10392815 29.5625802 3.19063693 29.9149512 3.33497664 30.2356612 3.5369473 30.5563713 3.73891795 30.8144674 4.01171042 31.0099496 4.35532471 31.2054317 4.69893901 31.3031728 5.12913541 31.3031728 5.64591394L31.3031728 10.839321 29.523931 10.839321 29.523931 9.76819976 29.448347 9.76819976C29.3319895 9.98888012 29.1688951 10.1928231 28.9590639 10.3800286 28.7492327 10.5672342 28.4905216 10.7173641 28.1829307 10.8304185 27.8753398 10.9434728 27.5138375 11 27.0984239 11ZM27.5752961 9.65757008C27.9596263 9.65757008 28.2918901 9.58392552 28.5720875 9.4366364 28.8522848 9.28934728 29.0692346 9.09345638 29.2229369 8.84896368 29.3766392 8.60447098 29.4534903 8.33888012 29.4534903 8.05219108L29.4534903 7.13284643C29.3924417 7.18133965 29.289986 7.22615969 29.146123 7.26730655 29.00226 7.30845341 28.8402092 7.34505856 28.6599706 7.37712199 28.4797319 7.40918542 28.3032203 7.43670713 28.1304356 7.45968713 27.957651 7.48266713 27.8109555 7.50193775 27.6903492 7.51749901 27.4111209 7.55289183 27.1599384 7.61325503 26.9368017 7.69858863 26.7136651 7.78392223 26.5381597 7.90175352 26.4102857 8.05208251 26.2824117 8.2024115 26.2184746 8.39663772 26.2184746 8.63476115 26.2184746 8.858409 26.2771566 9.04597644 26.3945204 9.19746348 26.5118842 9.34895052 26.6722765 9.46350671 26.8756973 9.54113206 27.079118 9.6187574 27.3123176 9.65757008 27.5752961 9.65757008ZM36.0163035 10.9365969C35.4686552 10.9365969 34.9887455 10.8226378 34.5765744 10.5947197 34.1644034 10.3668016 33.8445878 10.0342973 33.6171278 9.59720687 33.3896678 9.16011646 33.2759378 8.63085274 33.2759378 8.00941571L33.2759378 3.07114094 35.1357951 3.07114094 35.1357951 7.73257008C35.1357951 8.25347414 35.2756701 8.66174003 35.5554202 8.95736775 35.8351703 9.25299546 36.2189415 9.40080932 36.7067338 9.40080932 37.0368732 9.40080932 37.3297983 9.33100079 37.5855091 9.19138373 37.8412199 9.05176668 38.0427212 8.84854751 38.190013 8.58172621 38.3373049 8.31490492 38.4109508 7.99479537 38.4109508 7.62139755L38.4109508 3.07114094 40.2755041 3.07114094 40.2755041 10.839321 38.5074433 10.839321 38.4868701 8.91877221 38.6276397 8.91877221C38.4036458 9.59601263 38.0724256 10.1016269 37.633979 10.4356149 37.1955324 10.7696029 36.6563072 10.9365969 36.0163035 10.9365969Z"/><polygon points="44.108 .486 44.108 10.839 42.248 10.839 42.248 .486"/><path d="M49.7807394,3.07114094 L49.7807394,4.4863107 L45.2376517,4.4863107 L45.2376517,3.07114094 L49.7807394,3.07114094 Z M46.3728646,1.22289775 L48.2328337,1.22289775 L48.2328337,8.65169759 C48.2328337,8.93245164 48.2948513,9.13854784 48.4188865,9.26998618 C48.5429217,9.40142453 48.7476469,9.4671437 49.0330621,9.4671437 C49.115951,9.4671437 49.2274634,9.45746315 49.3675993,9.43810205 C49.5077353,9.41874095 49.6208503,9.39979603 49.7069445,9.38126727 L50,10.7751579 C49.7960575,10.836462 49.5875121,10.8799431 49.3743639,10.9056011 C49.1612156,10.931259 48.9548319,10.944088 48.7552128,10.944088 C47.9896084,10.944088 47.4011493,10.7589814 46.9898354,10.3887683 C46.5785215,10.0185551 46.3728646,9.49113699 46.3728646,8.80651402 L46.3728646,1.22289775 Z"/></g></g></svg>