<svg xmlns="http://www.w3.org/2000/svg" xmlns:xlink="http://www.w3.org/1999/xlink" width="200" height="200" viewBox="0 0 200 200"><defs><radialGradient id="a" cx="50%" cy="50%" r="66.119%" fx="50%" fy="50%"><stop offset="0%" stop-color="#BBBFC4"/><stop offset="100%" stop-color="#F1F3F4" stop-opacity="0"/></radialGradient><filter id="c" width="103.3%" height="111.1%" x="-1.7%" y="-2.8%" filterUnits="objectBoundingBox"><feOffset dy="1" in="SourceAlpha" result="shadowOffsetOuter1"/><feGaussianBlur in="shadowOffsetOuter1" result="shadowBlurOuter1" stdDeviation=".5"/><feComposite in="shadowBlurOuter1" in2="SourceAlpha" operator="out" result="shadowBlurOuter1"/><feColorMatrix in="shadowBlurOuter1" values="0 0 0 0 0 0 0 0 0 0 0 0 0 0 0 0 0 0 0.1 0"/></filter><rect id="b" width="120" height="36" x="40" y="82" rx="4"/></defs><g fill="none" fill-rule="evenodd"><rect width="200" height="200" fill="#6C757D" fill-opacity=".05"/><path stroke="url(#a)" stroke-dasharray="2 3" stroke-linecap="round" stroke-linejoin="round" stroke-width="2" d="M157.42,1 L157.42,199 M42.58,1 L42.58,199 M199,127.72 L1,127.72 M199,72.28 L1,72.28"/><use xlink:href="#b" fill="#000" filter="url(#c)"/><rect width="119" height="35" x="40.5" y="82.5" fill="#FFF" stroke="#ADB5BD" stroke-linejoin="square" rx="4"/><path fill="#ADB5BD" d="M83.5606602,0.439339828 L89.5606602,6.43933983 C90.1464466,7.02512627 90.1464466,7.97487373 89.5606602,8.56066017 L83.5606602,14.5606602 C82.9748737,15.1464466 82.0251263,15.1464466 81.4393398,14.5606602 C80.8535534,13.9748737 80.8535534,13.0251263 81.4393398,12.4393398 L84.878,8.999 L5.122,9 L8.56066017,12.4393398 C9.10983496,12.9885146 9.14415838,13.857577 8.66363044,14.4467378 L8.56066017,14.5606602 C7.97487373,15.1464466 7.02512627,15.1464466 6.43933983,14.5606602 L0.439339828,8.56066017 C-0.146446609,7.97487373 -0.146446609,7.02512627 0.439339828,6.43933983 L6.43933983,0.439339828 C7.02512627,-0.146446609 7.97487373,-0.146446609 8.56066017,0.439339828 L8.68544308,0.580650835 C9.14298042,1.16908765 9.10138611,2.01993423 8.56066017,2.56066017 L5.121,6 L84.877,5.999 L81.4393398,2.56066017 C80.8986139,2.01993423 80.8570196,1.16908765 81.3145569,0.580650835 L81.4393398,0.439339828 C82.0251263,-0.146446609 82.9748737,-0.146446609 83.5606602,0.439339828 Z" transform="translate(56 92.5)"/><line x1="44" x2="156" y1="86" y2="114" stroke="#ADB5BD" stroke-dasharray="2" stroke-linecap="round" stroke-linejoin="round" opacity=".5"/><line x1="44" x2="156" y1="86" y2="114" stroke="#ADB5BD" stroke-dasharray="2" stroke-linecap="round" stroke-linejoin="round" opacity=".5" transform="matrix(-1 0 0 1 200 0)"/></g></svg>