<svg xmlns="http://www.w3.org/2000/svg" xmlns:xlink="http://www.w3.org/1999/xlink" width="200" height="200" viewBox="0 0 200 200"><defs><radialGradient id="a" cx="50%" cy="50%" r="66.119%" fx="50%" fy="50%"><stop offset="0%" stop-color="#BBBFC4"/><stop offset="100%" stop-color="#F1F3F4" stop-opacity="0"/></radialGradient><filter id="c" width="103.3%" height="111.1%" x="-1.7%" y="-2.8%" filterUnits="objectBoundingBox"><feOffset dy="1" in="SourceAlpha" result="shadowOffsetOuter1"/><feGaussianBlur in="shadowOffsetOuter1" result="shadowBlurOuter1" stdDeviation=".5"/><feComposite in="shadowBlurOuter1" in2="SourceAlpha" operator="out" result="shadowBlurOuter1"/><feColorMatrix in="shadowBlurOuter1" values="0 0 0 0 0 0 0 0 0 0 0 0 0 0 0 0 0 0 0.1 0"/></filter><rect id="b" width="120" height="36" x="40" y="82" rx="4"/></defs><g fill="none" fill-rule="evenodd"><rect width="200" height="200" fill="#6C757D" fill-opacity=".05"/><path stroke="url(#a)" stroke-dasharray="2 3" stroke-linecap="round" stroke-linejoin="round" stroke-width="2" d="M157.42,1 L157.42,199 M42.58,1 L42.58,199 M199,127.72 L1,127.72 M199,72.28 L1,72.28"/><use xlink:href="#b" fill="#000" filter="url(#c)"/><rect width="119" height="35" x="40.5" y="82.5" fill="#FFF" stroke="#ADB5BD" stroke-linejoin="square" rx="4"/><g transform="translate(88.664 88.664)"><path fill="#ADB5BD" fill-opacity=".25" d="M0.732233047,0.732233047 C1.70854378,-0.244077682 3.29145622,-0.244077682 4.26776695,0.732233047 L6.38486652,2.84933262 L6.38486652,2.84933262 L2.69308262,6.22861652 L0.732233047,4.26776695 C-0.244077682,3.29145622 -0.244077682,1.70854378 0.732233047,0.732233047 Z M10.9528165,7.35689221 L17.8456259,0.46408281 C18.4314123,-0.121703609 19.3811598,-0.121703609 19.9669462,0.46408281 L22.2650432,2.76217981 C22.8508297,3.34796627 22.8508297,4.29771377 22.2650433,4.88350019 L15.3677199,11.7808235 L15.3677199,11.7808235 M11.7747972,15.3737463 L4.94092717,22.2076163 C4.35514071,22.7934028 3.4053932,22.7934028 2.81960674,22.2076163 L0.521509742,19.9095193 C-0.0642766765,19.3237329 -0.0642766765,18.3739854 0.521509784,17.7881989 L7.36123508,10.9484736 L7.36123508,10.9484736"/><path stroke="#ADB5BD" stroke-linecap="round" stroke-linejoin="round" stroke-width="2.5" d="M0.732233047,0.732233047 C1.70854378,-0.244077682 3.29145622,-0.244077682 4.26776695,0.732233047 L20.9352948,17.3997608 C21.2574139,17.72188 21.4853963,18.125891 21.5946138,18.56815 L22.5958331,22.6224303 L22.5958331,22.6224303 L18.5583739,21.5968971 C18.1223067,21.4861341 17.7242118,21.2597457 17.4060742,20.9416081 L0.732233047,4.26776695 C-0.244077682,3.29145622 -0.244077682,1.70854378 0.732233047,0.732233047 Z M2.91955768,6.45509158 L6.45509158,2.91955768 M10.9528165,7.35689221 L17.8456259,0.46408281 C18.4314123,-0.121703609 19.3811598,-0.121703609 19.9669462,0.46408281 L22.2650432,2.76217981 C22.8508297,3.34796627 22.8508297,4.29771377 22.2650433,4.88350019 L15.3677199,11.7808235 L15.3677199,11.7808235 M11.7747972,15.3737463 L4.94092717,22.2076163 C4.35514071,22.7934028 3.4053932,22.7934028 2.81960674,22.2076163 L0.521509742,19.9095193 C-0.0642766765,19.3237329 -0.0642766765,18.3739854 0.521509784,17.7881989 L7.36123508,10.9484736 L7.36123508,10.9484736 M15.66538,2.64432872 L16.9912052,3.97015393 M11.3441719,6.96553683 L13.1119388,8.73330378 M7.02296376,11.2867449 L8.34878897,12.6125701 M2.70175565,15.607953 L4.4695226,17.37572"/></g></g></svg>