<svg xmlns="http://www.w3.org/2000/svg" xmlns:xlink="http://www.w3.org/1999/xlink" width="200" height="200" viewBox="0 0 200 200"><defs><radialGradient id="b" cx="50%" cy="50%" r="50%" fx="50%" fy="50%"><stop offset="0%" stop-color="#BBBFC4"/><stop offset="100%" stop-color="#F1F3F4" stop-opacity="0"/></radialGradient><filter id="e" width="103%" height="103%" x="-1.5%" y="-.8%" filterUnits="objectBoundingBox"><feOffset dy="1" in="SourceAlpha" result="shadowOffsetOuter1"/><feGaussianBlur in="shadowOffsetOuter1" result="shadowBlurOuter1" stdDeviation=".5"/><feComposite in="shadowBlurOuter1" in2="SourceAlpha" operator="out" result="shadowBlurOuter1"/><feColorMatrix in="shadowBlurOuter1" values="0 0 0 0 0 0 0 0 0 0 0 0 0 0 0 0 0 0 0.1 0"/></filter><rect id="a" width="200" height="200" x="0" y="0"/><path id="d" d="M-2,70 L100,70 C116.568542,70 130,83.4314575 130,100 L130,202 L130,202 L-2,202 L-2,70 Z"/></defs><g fill="none" fill-rule="evenodd" transform="matrix(-1 0 0 1 200 0)"><mask id="c" fill="#fff"><use xlink:href="#a"/></mask><use xlink:href="#a" fill="#6C757D" fill-opacity=".05"/><path stroke="url(#b)" stroke-dasharray="2 3" stroke-linecap="round" stroke-linejoin="round" stroke-width="2" d="M128,0 L128,200 M210,72 L10,72" mask="url(#c)"/><g mask="url(#c)"><use xlink:href="#d" fill="#000" filter="url(#e)"/><path fill="#FFF" stroke="#DEE2E6" stroke-linejoin="square" stroke-width="2" d="M100,71 C108.008129,71 115.258129,74.2459356 120.506097,79.4939033 C125.754064,84.7418711 129,91.9918711 129,100 L129,201 L-1,201 L-1,71 Z"/></g><g fill="#ADB5BD" transform="translate(75 85)"><path fill-opacity=".25" d="M20,0 C8.954305,0 0,8.954305 0,20 C0,31.045695 8.954305,40 20,40 C31.045695,40 40,31.045695 40,20 C40,8.954305 31.045695,0 20,0 Z"/><path d="M14.4142136,11.5857864 L20,17.17 L25.5857864,11.5857864 C26.366835,10.8047379 27.633165,10.8047379 28.4142136,11.5857864 C29.1952621,12.366835 29.1952621,13.633165 28.4142136,14.4142136 L22.83,20 L28.4142136,25.5857864 C29.1952621,26.366835 29.1952621,27.633165 28.4142136,28.4142136 C27.633165,29.1952621 26.366835,29.1952621 25.5857864,28.4142136 L20,22.83 L14.4142136,28.4142136 C13.633165,29.1952621 12.366835,29.1952621 11.5857864,28.4142136 C10.8047379,27.633165 10.8047379,26.366835 11.5857864,25.5857864 L17.17,20 L11.5857864,14.4142136 C10.8047379,13.633165 10.8047379,12.366835 11.5857864,11.5857864 C12.366835,10.8047379 13.633165,10.8047379 14.4142136,11.5857864 Z"/></g></g></svg>