<svg xmlns="http://www.w3.org/2000/svg" width="300" height="200" viewBox="0 0 300 200"><g fill="none" fill-rule="evenodd"><rect width="300" height="200" fill="#F7F8F8"/><g fill="#ADB5BD" transform="translate(126 46)"><path fill-opacity=".25" d="M26.6183606,0 C27.2526838,0 27.8706829,0.201061873 28.3835753,0.574300742 C35.2629051,5.58048372 42.9309255,12.5721137 47.342546,18.086275 C47.7681352,18.6182263 48,19.279188 48,19.9604356 L48,36.515 L44.4815069,32.9962457 C42.2208559,30.7436082 39.2926126,29.5788305 36.3405435,29.4973823 L35.986222,29.4928082 L35.2778835,29.514902 C32.4473277,29.6863093 29.6662566,30.8558936 27.5071996,33.0226374 L19.461,41.091 L19.3552298,41.0021733 C17.1971917,39.3240998 14.5985958,38.4852814 12,38.4852814 C8.92893219,38.4852814 5.85786438,39.6568542 3.51471863,42 L0,45.514 L0,9 C0,4.1181973 3.88681368,0.144208577 8.73463775,0.00383710565 L9,0 Z"/><path d="M18.363961,44.1213203 L34.242,59.9999671 L9,60 C4.1181973,60 0.144208577,56.1131863 0.00383710565,51.2653623 L0,51 L0,49.7569671 L5.63603897,44.1213203 C9.1507576,40.6066017 14.8492424,40.6066017 18.363961,44.1213203 Z M42.3601881,35.1175676 L48,40.7569671 L48,51 C48,55.8818027 44.1131863,59.8557914 39.2653623,59.9961629 L39,60 L38.485,59.9999671 L21.6426797,43.1568271 L29.6322862,35.1401848 C33.1407537,31.6192262 38.8392295,31.6091001 42.3601881,35.1175676 Z M12,21 C15.3137085,21 18,23.6862915 18,27 C18,30.3137085 15.3137085,33 12,33 C8.6862915,33 6,30.3137085 6,27 C6,23.6862915 8.6862915,21 12,21 Z M27.471845,0.123967102 C27.7971828,0.220514925 28.1057944,0.372155738 28.3835753,0.574300742 C35.2629051,5.58048372 42.9309255,12.5721137 47.342546,18.086275 C47.6591586,18.4820145 47.8685552,18.9491543 47.9550323,19.4429292 L38.5493794,20.500566 C38.0779935,20.5535716 37.6034871,20.5736684 37.1293075,20.5607104 C31.4914803,20.4066445 27.0460135,15.7113874 27.2000795,10.0735602 Z"/></g><text fill="#7C8289" font-family="Poppins-SemiBold, Poppins" font-size="24" font-weight="500" letter-spacing="-1">
            <tspan x="101.048" y="131">Example</tspan>
        </text></g></svg>