<svg xmlns="http://www.w3.org/2000/svg" xmlns:xlink="http://www.w3.org/1999/xlink" width="300" height="200" viewBox="0 0 300 200"><defs><filter id="b" width="102.2%" height="111.8%" x="-1.1%" y="-2.9%" filterUnits="objectBoundingBox"><feOffset dy="1" in="SourceAlpha" result="shadowOffsetOuter1"/><feGaussianBlur in="shadowOffsetOuter1" result="shadowBlurOuter1" stdDeviation=".5"/><feComposite in="shadowBlurOuter1" in2="SourceAlpha" operator="out" result="shadowBlurOuter1"/><feColorMatrix in="shadowBlurOuter1" values="0 0 0 0 0 0 0 0 0 0 0 0 0 0 0 0 0 0 0.1 0"/></filter><path id="a" d="M0,0 L180,0 L180,29 C180,31.7614237 177.761424,34 175,34 L5,34 C2.23857625,34 3.38176876e-16,31.7614237 0,29 L0,0 L0,0 Z"/></defs><g fill="none" fill-rule="evenodd"><rect width="300" height="200" fill="#FFF"/><rect width="300" height="200" fill="#FAFAFA"/><g transform="translate(60 34)"><g transform="translate(0 99)"><use xlink:href="#a" fill="#000" filter="url(#b)"/><path fill="#FFF" stroke="#ADB5BD" stroke-linejoin="square" stroke-width="1.073" d="M179.463602,0.536398467 L179.463602,29 C179.463602,30.2325895 178.963996,31.3484899 178.156243,32.1562429 C177.34849,32.9639959 176.23259,33.4636015 175,33.4636015 L5,33.4636015 C3.76741047,33.4636015 2.65151009,32.9639959 1.84375709,32.1562429 C1.03600409,31.3484899 0.536398467,30.2325895 0.536398467,29 L0.536398467,0.536398467 L179.463602,0.536398467 Z"/></g><path fill="#FFF" stroke="#FFF" stroke-width="1.073" d="M175,0.536398467 C176.23259,0.536398467 177.34849,1.03600409 178.156243,1.84375709 C178.963996,2.65151009 179.463602,3.76741047 179.463602,5 L179.463602,99.4636015 L0.536398467,99.4636015 L0.536398467,5 C0.536398467,3.76741047 1.03600409,2.65151009 1.84375709,1.84375709 C2.65151009,1.03600409 3.76741047,0.536398467 5,0.536398467 Z"/><path fill="#0389FF" fill-opacity=".2" stroke="#0389FF" stroke-opacity=".7" stroke-width="2.146" d="M175,1.07279693 C176.084467,1.07279693 177.066268,1.51236411 177.776952,2.22304808 C178.487636,2.93373205 178.927203,3.91553282 178.927203,5 L178.927203,98.9272031 L1.07279693,98.9272031 L1.07279693,5 C1.07279693,3.91553282 1.51236411,2.93373205 2.22304808,2.22304808 C2.93373205,1.51236411 3.91553282,1.07279693 5,1.07279693 Z"/><path fill="#A1A1AA" d="M160.39938,121.834265 C159.914286,121.437714 159.914286,120.687352 160.257143,120.400623 L165.485714,116.0997 L160.257143,111.798776 C159.914286,111.512048 159.914286,110.787808 160.257143,110.378197 C161.256523,109.558973 161.885714,110.283213 162.228571,110.569941 L169,116.0997 L162.228571,121.629459 C162.057143,121.752342 161.256523,122.256938 160.39938,121.834265 Z" opacity=".3"/><g transform="translate(68 38)"><polygon points="14 0 62 0 62 48 14 48"/><path fill="#0389FF" fill-rule="nonzero" d="M26,0 L18.5,10 L24.2,17.6 L21,20 C17.62,15.5 12,8 12,8 L0,24 L44,24 L26,0 Z"/></g><rect width="71" height="8" x="12" y="112" fill="#A1A1AA" opacity=".3" rx="3"/></g></g></svg>