<svg xmlns="http://www.w3.org/2000/svg" xmlns:xlink="http://www.w3.org/1999/xlink" width="300" height="200" viewBox="0 0 300 200"><defs><filter id="b" width="102.2%" height="106.6%" x="-1.1%" y="-1.6%" filterUnits="objectBoundingBox"><feOffset dy="1" in="SourceAlpha" result="shadowOffsetOuter1"/><feGaussianBlur in="shadowOffsetOuter1" result="shadowBlurOuter1" stdDeviation=".5"/><feComposite in="shadowBlurOuter1" in2="SourceAlpha" operator="out" result="shadowBlurOuter1"/><feColorMatrix in="shadowBlurOuter1" values="0 0 0 0 0 0 0 0 0 0 0 0 0 0 0 0 0 0 0.1 0"/></filter><path id="a" d="M0,0 L180,0 L180,56 C180,58.7614237 177.761424,61 175,61 L5,61 C2.23857625,61 3.38176876e-16,58.7614237 0,56 L0,0 L0,0 Z"/></defs><g fill="none" fill-rule="evenodd"><rect width="300" height="200" fill="#FFF"/><rect width="300" height="200" fill="#FAFAFA"/><g transform="translate(60 20)"><g transform="translate(0 99)"><use xlink:href="#a" fill="#000" filter="url(#b)"/><path fill="#FFF" stroke="#ADB5BD" stroke-linejoin="square" stroke-width="1.073" d="M179.463602,0.536398467 L179.463602,56 C179.463602,57.2325895 178.963996,58.3484899 178.156243,59.1562429 C177.34849,59.9639959 176.23259,60.4636015 175,60.4636015 L5,60.4636015 C3.76741047,60.4636015 2.65151009,59.9639959 1.84375709,59.1562429 C1.03600409,58.3484899 0.536398467,57.2325895 0.536398467,56 L0.536398467,0.536398467 L179.463602,0.536398467 Z"/></g><path fill="#FFF" stroke="#FFF" stroke-width="1.073" d="M175,0.536398467 C176.23259,0.536398467 177.34849,1.03600409 178.156243,1.84375709 C178.963996,2.65151009 179.463602,3.76741047 179.463602,5 L179.463602,99.4636015 L0.536398467,99.4636015 L0.536398467,5 C0.536398467,3.76741047 1.03600409,2.65151009 1.84375709,1.84375709 C2.65151009,1.03600409 3.76741047,0.536398467 5,0.536398467 Z"/><path fill="#0389FF" fill-opacity=".2" stroke="#0389FF" stroke-opacity=".7" stroke-width="2.146" d="M175,1.07279693 C176.084467,1.07279693 177.066268,1.51236411 177.776952,2.22304808 C178.487636,2.93373205 178.927203,3.91553282 178.927203,5 L178.927203,98.9272031 L1.07279693,98.9272031 L1.07279693,5 C1.07279693,3.91553282 1.51236411,2.93373205 2.22304808,2.22304808 C2.93373205,1.51236411 3.91553282,1.07279693 5,1.07279693 Z"/><g transform="translate(68 38)"><polygon points="14 0 62 0 62 48 14 48"/><path fill="#0389FF" fill-rule="nonzero" d="M26,0 L18.5,10 L24.2,17.6 L21,20 C17.62,15.5 12,8 12,8 L0,24 L44,24 L26,0 Z"/></g><rect width="71" height="8" x="12" y="112" fill="#A1A1AA" opacity=".3" rx="3"/><g fill="#A1A1AA" opacity=".6" transform="translate(134 121)"><text fill-rule="nonzero" font-family="Montserrat-Bold, Montserrat" font-size="12" font-weight="bold" letter-spacing="-.275">
                    <tspan x="23" y="12">12</tspan>
                </text><path d="M0.224648986,6.06896552 C1.23556942,9.82068966 5.86895476,13.6 8.64898596,15.862069 C8.76131045,15.9448276 8.87363495,16 9.01404056,16 C9.15444618,16 9.26677067,15.9448276 9.37909516,15.862069 C14.2371295,11.862069 16.9890796,8.68965517 17.775351,6.12413793 C17.8315133,5.93103448 17.8876755,5.71034483 17.9438378,5.48965517 L17.9438378,5.40689655 C17.9719189,5.1862069 18,4.96551724 18,4.77241379 C18,4.77241379 18,4.74482759 18,4.74482759 L18,4.74482759 C18,4.74482759 18,4.71724138 18,4.71724138 C18,2.12413793 15.8658346,0.0275862069 13.226209,0.0275862069 C11.5413417,0.0275862069 9.94071763,0.882758621 9.01404056,2.15172414 C8.05928237,0.855172414 6.45865835,0 4.77379095,0 C2.19032761,0 0.112324493,1.95862069 0,4.49655172 C0,4.52413793 0,4.55172414 0,4.57931034 C0,4.60689655 0,4.60689655 0,4.63448276 C0,4.66206897 0,4.66206897 0,4.68965517 C0,5.15862069 0.0842433697,5.65517241 0.224648986,6.06896552 Z M1.575,4.8516129 C1.575,4.8516129 1.575,4.82580645 1.575,4.82580645 C1.62794118,2.99354839 3.13676471,1.5483871 5.01617647,1.5483871 C6.525,1.5483871 7.95441176,2.4516129 8.45735294,3.71612903 C8.51029412,3.92258065 8.66911765,4.07741935 8.88088235,4.12903226 C9.14558824,4.18064516 9.38382353,4.02580645 9.46323529,3.79354839 C9.96617647,2.50322581 11.4485294,1.5483871 12.9573529,1.5483871 C14.8632353,1.5483871 16.3985294,3.04516129 16.3985294,4.90322581 C16.3985294,4.90322581 16.3985294,4.90322581 16.3985294,4.90322581 C16.3985294,4.92903226 16.3985294,4.92903226 16.3985294,4.95483871 C16.3985294,5.10967742 16.3720588,5.26451613 16.3455882,5.41935484 L16.3455882,5.47096774 C16.3191176,5.62580645 16.2661765,5.80645161 16.2397059,5.96129032 C15.5779412,8.0516129 13.1426471,10.8645161 8.98676471,14.2967742 C6.44558824,12.2322581 2.55441176,8.98064516 1.73382353,5.90967742 C1.62794118,5.57419355 1.575,5.23870968 1.575,4.90322581 C1.575,4.90322581 1.575,4.87741935 1.575,4.8516129 Z"/></g></g><rect width="37.854" height="9.854" x="73.073" y="152.073" fill="#0389FF" fill-opacity=".2" stroke="#0389FF" stroke-opacity=".7" stroke-width="2.146" rx="3"/><rect width="47.854" height="9.854" x="117.073" y="152.073" fill="#0389FF" fill-opacity=".2" stroke="#0389FF" stroke-opacity=".7" stroke-width="2.146" rx="3"/></g></svg>