<svg xmlns="http://www.w3.org/2000/svg" width="300" height="200" viewBox="0 0 300 200"><g fill="none" fill-rule="evenodd"><rect width="300" height="200" fill="#FFF"/><rect width="300" height="200" fill="#FAFAFA"/><g transform="translate(60 20)"><rect width="178.927" height="98.927" x=".536" y=".536" fill="#FFF" stroke="#FFF" stroke-width="1.073" rx="5"/><rect width="177.854" height="97.854" x="1.073" y="1.073" fill="#0389FF" fill-opacity=".2" stroke="#0389FF" stroke-opacity=".7" stroke-width="2.146" rx="5"/><g transform="translate(68 38)"><polygon points="14 0 62 0 62 48 14 48"/><path fill="#0389FF" fill-rule="nonzero" d="M26,0 L18.5,10 L24.2,17.6 L21,20 C17.62,15.5 12,8 12,8 L0,24 L44,24 L26,0 Z"/></g><rect width="71" height="8" y="112" fill="#A1A1AA" opacity=".3" rx="3"/><g fill="#A1A1AA" opacity=".6" transform="translate(145 121)"><text fill-rule="nonzero" font-family="Montserrat-Bold, Montserrat" font-size="12" font-weight="bold" letter-spacing="-.275">
                    <tspan x="23" y="12">12</tspan>
                </text><path d="M0.224648986,6.06896552 C1.23556942,9.82068966 5.86895476,13.6 8.64898596,15.862069 C8.76131045,15.9448276 8.87363495,16 9.01404056,16 C9.15444618,16 9.26677067,15.9448276 9.37909516,15.862069 C14.2371295,11.862069 16.9890796,8.68965517 17.775351,6.12413793 C17.8315133,5.93103448 17.8876755,5.71034483 17.9438378,5.48965517 L17.9438378,5.40689655 C17.9719189,5.1862069 18,4.96551724 18,4.77241379 C18,4.77241379 18,4.74482759 18,4.74482759 L18,4.74482759 C18,4.74482759 18,4.71724138 18,4.71724138 C18,2.12413793 15.8658346,0.0275862069 13.226209,0.0275862069 C11.5413417,0.0275862069 9.94071763,0.882758621 9.01404056,2.15172414 C8.05928237,0.855172414 6.45865835,0 4.77379095,0 C2.19032761,0 0.112324493,1.95862069 0,4.49655172 C0,4.52413793 0,4.55172414 0,4.57931034 C0,4.60689655 0,4.60689655 0,4.63448276 C0,4.66206897 0,4.66206897 0,4.68965517 C0,5.15862069 0.0842433697,5.65517241 0.224648986,6.06896552 Z M1.575,4.8516129 C1.575,4.8516129 1.575,4.82580645 1.575,4.82580645 C1.62794118,2.99354839 3.13676471,1.5483871 5.01617647,1.5483871 C6.525,1.5483871 7.95441176,2.4516129 8.45735294,3.71612903 C8.51029412,3.92258065 8.66911765,4.07741935 8.88088235,4.12903226 C9.14558824,4.18064516 9.38382353,4.02580645 9.46323529,3.79354839 C9.96617647,2.50322581 11.4485294,1.5483871 12.9573529,1.5483871 C14.8632353,1.5483871 16.3985294,3.04516129 16.3985294,4.90322581 C16.3985294,4.90322581 16.3985294,4.90322581 16.3985294,4.90322581 C16.3985294,4.92903226 16.3985294,4.92903226 16.3985294,4.95483871 C16.3985294,5.10967742 16.3720588,5.26451613 16.3455882,5.41935484 L16.3455882,5.47096774 C16.3191176,5.62580645 16.2661765,5.80645161 16.2397059,5.96129032 C15.5779412,8.0516129 13.1426471,10.8645161 8.98676471,14.2967742 C6.44558824,12.2322581 2.55441176,8.98064516 1.73382353,5.90967742 C1.62794118,5.57419355 1.575,5.23870968 1.575,4.90322581 C1.575,4.90322581 1.575,4.87741935 1.575,4.8516129 Z"/></g><rect width="37.854" height="9.854" x="1.073" y="132.073" fill="#0389FF" fill-opacity=".2" stroke="#0389FF" stroke-opacity=".7" stroke-width="2.146" rx="3"/><rect width="47.854" height="9.854" x="45.073" y="132.073" fill="#0389FF" fill-opacity=".2" stroke="#0389FF" stroke-opacity=".7" stroke-width="2.146" rx="3"/></g></g></svg>