<svg xmlns="http://www.w3.org/2000/svg" width="300" height="200" viewBox="0 0 300 200"><g fill="none" fill-rule="evenodd"><rect width="300" height="200" fill="#FFF"/><rect width="300" height="200" fill="#FAFAFA"/><g transform="translate(70 20)"><rect width="158.927" height="158.927" x=".536" y=".536" fill="#FFF" stroke="#FFF" stroke-width="1.073"/><path fill="#0389FF" fill-rule="nonzero" d="M106.272727,55 L73.8863636,98.3333333 L98.5,131.266667 L84.6818182,141.666667 C70.0863636,122.166667 45.8181818,89.6666667 45.8181818,89.6666667 L0.75,149.75 L0.75,156 C0.75,157.656854 2.09314575,159 3.75,159 L155.746444,159 C157.403299,159 158.746444,157.656854 158.746444,156 C158.746444,155.998815 158.746444,155.997631 158.746442,155.996446 L158.709917,125.161573 L158.709917,125.161573 L106.272727,55 Z" opacity=".15"/><rect width="157.854" height="157.854" x="1.073" y="1.073" fill="#0389FF" fill-opacity=".2" stroke="#0389FF" stroke-opacity=".7" stroke-width="2.146" rx="5"/><rect width="80" height="10" x="40" y="33" fill="#0389FF" rx="5"/><rect width="100" height="10" x="30" y="56" fill="#0389FF" rx="5"/><rect width="60" height="10" x="50" y="79" fill="#0389FF" rx="5"/><rect width="101" height="5" x="29" y="109" fill="#0389FF" opacity=".5" rx="2.5"/><rect width="81" height="5" x="39" y="127" fill="#0389FF" opacity=".5" rx="2.5"/></g></g></svg>