<svg xmlns="http://www.w3.org/2000/svg" xmlns:xlink="http://www.w3.org/1999/xlink" width="200" height="150" viewBox="0 0 200 150"><defs><rect id="a" width="200" height="150" x="0" y="0"/><rect id="d" width="50" height="50" x="10" y="90" rx="25"/><radialGradient id="b" cx="50%" cy="50%" r="67.061%" fx="50%" fy="50%"><stop offset="0%" stop-color="#C1C6CC"/><stop offset="100%" stop-color="#F1F3F4" stop-opacity="0"/></radialGradient><filter id="e" width="144%" height="144%" x="-22%" y="-14%" filterUnits="objectBoundingBox"><feOffset dy="4" in="SourceAlpha" result="shadowOffsetOuter1"/><feGaussianBlur in="shadowOffsetOuter1" result="shadowBlurOuter1" stdDeviation="3"/><feColorMatrix in="shadowBlurOuter1" values="0 0 0 0 0 0 0 0 0 0 0 0 0 0 0 0 0 0 0.1 0"/></filter></defs><g fill="none" fill-rule="evenodd"><mask id="c" fill="#fff"><use xlink:href="#a"/></mask><use xlink:href="#a" fill="#6C757D" fill-opacity=".05"/><path stroke="url(#b)" stroke-dasharray="2 3" stroke-linecap="round" stroke-linejoin="round" stroke-width="2" d="M60.62,16 L60.62,214 M9.38,16 L9.38,214 M134,140.72 L-64,140.72 M134,89.28 L-64,89.28" mask="url(#c)"/><g mask="url(#c)"><use xlink:href="#d" fill="#000" filter="url(#e)"/><use xlink:href="#d" fill="#FFF"/></g><g fill="#6C757D" mask="url(#c)"><path d="M12.8661165,0.366116524 C13.3542719,-0.122038841 14.1457281,-0.122038841 14.6338835,0.366116524 C15.1220388,0.854271888 15.1220388,1.64572811 14.6338835,2.13388348 L4.2675,12.5 L11.875,12.5 C12.5160448,12.5 13.044384,12.9825502 13.1165903,13.6042236 L13.125,13.75 C13.125,14.4403559 12.5653559,15 11.875,15 L1.25,15 C0.559644063,15 0,14.4403559 0,13.75 L0,3.125 C0,2.43464406 0.559644063,1.875 1.25,1.875 L1.40679734,1.88473927 C2.02314352,1.96187253 2.5,2.48774837 2.5,3.125 L2.49875,10.73125 L12.8661165,0.366116524 Z" transform="translate(27.5 107.5)"/></g></g></svg>