<svg xmlns="http://www.w3.org/2000/svg" xmlns:xlink="http://www.w3.org/1999/xlink" width="300" height="200" viewBox="0 0 300 200"><defs><filter id="b" width="103.3%" height="102.5%" x="-1.7%" y="-.6%" filterUnits="objectBoundingBox"><feOffset dy="1" in="SourceAlpha" result="shadowOffsetOuter1"/><feGaussianBlur in="shadowOffsetOuter1" result="shadowBlurOuter1" stdDeviation=".5"/><feComposite in="shadowBlurOuter1" in2="SourceAlpha" operator="out" result="shadowBlurOuter1"/><feColorMatrix in="shadowBlurOuter1" values="0 0 0 0 0 0 0 0 0 0 0 0 0 0 0 0 0 0 0.1 0"/></filter><rect id="a" width="120" height="160" x="0" y="0" rx="5"/></defs><g fill="none" fill-rule="evenodd"><rect width="300" height="200" fill="#FFF"/><rect width="300" height="200" fill="#FAFAFA"/><g transform="translate(90 20)"><use xlink:href="#a" fill="#000" filter="url(#b)"/><rect width="118.927" height="158.927" x=".536" y=".536" fill="#FFF" stroke="#ADB5BD" stroke-linejoin="square" stroke-width="1.073" rx="5"/><g fill="#0389FF" transform="translate(10 10)"><rect width="97.854" height="97.854" x="1.073" y="1.073" fill-opacity=".2" stroke="#0389FF" stroke-opacity=".7" stroke-width="2.146" rx="3"/><path fill-rule="nonzero" d="M26,0 L18.5,10 L24.2,17.6 L21,20 C17.62,15.5 12,8 12,8 L0,24 L44,24 L26,0 Z" transform="translate(28 38)"/></g><rect width="31" height="6" x="10" y="131" fill="#A1A1AA" opacity=".6" rx="2"/><rect width="25" height="6" x="51" y="131" fill="#A1A1AA" opacity=".6" rx="2"/><rect width="61" height="6" x="10" y="119" fill="#A1A1AA" opacity=".3" rx="2"/><rect width="21" height="7" x="10" y="145" fill="#A1A1AA" opacity=".3" rx="2"/><rect width="9" height="7" x="87" y="145" fill="#A1A1AA" opacity=".3" rx="3.5"/><rect width="9" height="7" x="101" y="145" fill="#A1A1AA" opacity=".3" rx="3.5"/></g></g></svg>