<svg xmlns="http://www.w3.org/2000/svg" xmlns:xlink="http://www.w3.org/1999/xlink" width="300" height="200" viewBox="0 0 300 200"><defs><rect id="a" width="120" height="160" x="0" y="0"/></defs><g fill="none" fill-rule="evenodd"><rect width="300" height="200" fill="#FFF"/><rect width="300" height="200" fill="#FAFAFA"/><g transform="translate(90 20)"><mask id="b" fill="#fff"><use xlink:href="#a"/></mask><rect width="118.927" height="158.927" x=".536" y=".536" stroke="#FFF" stroke-width="1.073"/><path fill="#0389FF" fill-rule="nonzero" d="M86.2727273,55 L53.8863636,98.3333333 L78.5,131.266667 L64.6818182,141.666667 C50.0863636,122.166667 25.8181818,89.6666667 25.8181818,89.6666667 L-26,159 L164,159 L86.2727273,55 Z" mask="url(#b)" opacity=".15"/><rect width="117.854" height="157.854" x="1.073" y="1.073" fill="#0389FF" fill-opacity=".2" stroke="#0389FF" stroke-opacity=".7" stroke-width="2.146" rx="5"/><rect width="31" height="6" x="10" y="131" fill="#0389FF" opacity=".5"/><rect width="25" height="6" x="51" y="131" fill="#0389FF" opacity=".5"/><rect width="61" height="6" x="10" y="119" fill="#0389FF" rx="2"/><rect width="21" height="7" x="10" y="10" fill="#0389FF" opacity=".5" rx="2"/><rect width="9" height="7" x="87" y="10" fill="#0389FF" opacity=".5" rx="3.5"/><rect width="9" height="7" x="101" y="10" fill="#0389FF" opacity=".5" rx="3.5"/></g></g></svg>