<svg xmlns="http://www.w3.org/2000/svg" xmlns:xlink="http://www.w3.org/1999/xlink" width="360" height="240" viewBox="0 0 360 240"><defs><filter id="b" width="102%" height="104%" x="-1%" y="-1%" filterUnits="objectBoundingBox"><feOffset dy="1" in="SourceAlpha" result="shadowOffsetOuter1"/><feGaussianBlur in="shadowOffsetOuter1" result="shadowBlurOuter1" stdDeviation=".5"/><feComposite in="shadowBlurOuter1" in2="SourceAlpha" operator="out" result="shadowBlurOuter1"/><feColorMatrix in="shadowBlurOuter1" values="0 0 0 0 0 0 0 0 0 0 0 0 0 0 0 0 0 0 0.1 0"/></filter><rect id="a" width="200" height="100" x="0" y="0" rx="8"/></defs><g fill="none" fill-rule="evenodd"><rect width="360" height="240" fill="#FFF"/><rect width="360" height="240" fill="#FAFAFA"/><g transform="translate(80 40)"><rect width="198.927" height="98.927" x=".536" y=".536" fill="#FFF" stroke="#FFF" stroke-width="1.073" rx="8"/><rect width="198" height="98" x="1" y="1" fill="#0389FF" fill-opacity=".2" stroke="#0389FF" stroke-opacity=".7" stroke-width="2" rx="8"/><path fill="#0389FF" fill-rule="nonzero" d="M0 24.6590909 0 3.65909091 4.17613636 3.65909091 4.17613636 6.22443182 4.36505682 6.22443182C4.55066288 5.81344697 4.82078598 5.39417614 5.17542614 4.96661932 5.53006629 4.5390625 5.99408144 4.18110795 6.56747159 3.89275568 7.14086174 3.60440341 7.85511364 3.46022727 8.71022727 3.46022727 9.82386364 3.46022727 10.8513258 3.75023674 11.7926136 4.33025568 12.7339015 4.91027462 13.4862689 5.78196023 14.0497159 6.9453125 14.6131629 8.10866477 14.8948864 9.56534091 14.8948864 11.3153409 14.8948864 13.0189394 14.6214489 14.4557292 14.0745739 15.6257102 13.5276989 16.7956913 12.7852746 17.6806345 11.8473011 18.2805398 10.9093277 18.8804451 9.86032197 19.1803977 8.70028409 19.1803977 7.87831439 19.1803977 7.18063447 19.0445076 6.60724432 18.7727273 6.03385417 18.500947 5.56486742 18.1579072 5.20028409 17.743608 4.83570076 17.3293087 4.55729167 16.9100379 4.36505682 16.4857955L4.23579545 16.4857955 4.23579545 24.6590909 0 24.6590909ZM4.14630682 11.2954545C4.14630682 12.2035985 4.27225379 12.9957386 4.52414773 13.671875 4.77604167 14.3480114 5.140625 14.8733428 5.61789773 15.2478693 6.09517045 15.6223958 6.67518939 15.8096591 7.35795455 15.8096591 8.04734848 15.8096591 8.63068182 15.6190814 9.10795455 15.2379261 9.58522727 14.8567708 9.94815341 14.3264678 10.196733 13.647017 10.4453125 12.9675663 10.5696023 12.1837121 10.5696023 11.2954545 10.5696023 10.4138258 10.4469697 9.63825758 10.2017045 8.96875 9.95643939 8.29924242 9.59517045 7.77556818 9.11789773 7.39772727 8.640625 7.01988636 8.05397727 6.83096591 7.35795455 6.83096591 6.66856061 6.83096591 6.08688447 7.01325758 5.61292614 7.37784091 5.1389678 7.74242424 4.77604167 8.2594697 4.52414773 8.92897727 4.27225379 9.59848485 4.14630682 10.3873106 4.14630682 11.2954545ZM23.069375 19.2301136C21.5248674 19.2301136 20.1908239 18.9003314 19.0672443 18.240767 17.9436648 17.5812027 17.0769508 16.6598011 16.4671023 15.4765625 15.8572538 14.2933239 15.5523295 12.9195076 15.5523295 11.3551136 15.5523295 9.77746212 15.8572538 8.39701705 16.4671023 7.21377841 17.0769508 6.03053977 17.9436648 5.10913826 19.0672443 4.44957386 20.1908239 3.79000947 21.5248674 3.46022727 23.069375 3.46022727 24.6138826 3.46022727 25.9479261 3.79000947 27.0715057 4.44957386 28.1950852 5.10913826 29.0617992 6.03053977 29.6716477 7.21377841 30.2814962 8.39701705 30.5864205 9.77746212 30.5864205 11.3551136 30.5864205 12.9195076 30.2814962 14.2933239 29.6716477 15.4765625 29.0617992 16.6598011 28.1950852 17.5812027 27.0715057 18.240767 25.9479261 18.9003314 24.6138826 19.2301136 23.069375 19.2301136ZM23.0892614 15.9488636C23.7919129 15.9488636 24.3785606 15.7483428 24.8492045 15.3473011 25.3198485 14.9462595 25.6761458 14.3977273 25.9180966 13.7017045 26.1600473 13.0056818 26.2810227 12.2135417 26.2810227 11.3252841 26.2810227 10.4370265 26.1600473 9.64488636 25.9180966 8.94886364 25.6761458 8.25284091 25.3198485 7.70265152 24.8492045 7.29829545 24.3785606 6.89393939 23.7919129 6.69176136 23.0892614 6.69176136 22.3799811 6.69176136 21.7850473 6.89393939 21.3044602 7.29829545 20.8238731 7.70265152 20.4626042 8.25284091 20.2206534 8.94886364 19.9787027 9.64488636 19.8577273 10.4370265 19.8577273 11.3252841 19.8577273 12.2135417 19.9787027 13.0056818 20.2206534 13.7017045 20.4626042 14.3977273 20.8238731 14.9462595 21.3044602 15.3473011 21.7850473 15.7483428 22.3799811 15.9488636 23.0892614 15.9488636ZM44.5180114 8.01420455 40.6401705 8.25284091C40.5738826 7.92140152 40.4313636 7.62144886 40.2126136 7.35298295 39.9938636 7.08451705 39.7071686 6.86908144 39.3525284 6.70667614 38.9978883 6.54427083 38.575303 6.46306818 38.0847727 6.46306818 37.4285227 6.46306818 36.8750189 6.60061553 36.4242614 6.87571023 35.9735038 7.15080492 35.748125 7.51704545 35.748125 7.97443182 35.748125 8.33901515 35.8939583 8.64725379 36.185625 8.89914773 36.4772917 9.15104167 36.9777652 9.3532197 37.6870455 9.50568182L40.45125 10.0625C41.9360985 10.3674242 43.0431061 10.8579545 43.7722727 11.5340909 44.5014394 12.2102273 44.8660227 13.0984848 44.8660227 14.1988636 44.8660227 15.1998106 44.5726989 16.078125 43.9860511 16.8338068 43.3994034 17.5894886 42.5973201 18.1777936 41.5798011 18.5987216 40.5622822 19.0196496 39.3906439 19.2301136 38.0648864 19.2301136 36.0431061 19.2301136 34.4339678 18.8075284 33.2374716 17.962358 32.0409754 17.1171875 31.3399811 15.9654356 31.1344886 14.5071023L35.3006818 14.2883523C35.4266288 14.9048295 35.731553 15.3738163 36.2154545 15.6953125 36.6993561 16.0168087 37.3191477 16.1775568 38.0748295 16.1775568 38.8172538 16.1775568 39.4155019 16.0333807 39.8695739 15.7450284 40.3236458 15.4566761 40.5539962 15.0838068 40.560625 14.6264205 40.5539962 14.2419508 40.3915909 13.9254261 40.0734091 13.6768466 39.7552273 13.428267 39.264697 13.2376894 38.6018182 13.1051136L35.9569318 12.578125C34.4654545 12.2798295 33.3567898 11.7627841 32.6309375 11.0269886 31.9050852 10.2911932 31.5421591 9.3532197 31.5421591 8.21306818 31.5421591 7.23200758 31.8089678 6.38683712 32.3425852 5.67755682 32.8762027 4.96827652 33.6285701 4.42140152 34.5996875 4.03693182 35.5708049 3.65246212 36.7092992 3.46022727 38.0151705 3.46022727 39.9441477 3.46022727 41.4637973 3.86789773 42.5741193 4.68323864 43.6844413 5.49857955 44.3324053 6.60890152 44.5180114 8.01420455ZM54.1243182 3.65909091 54.1243182 6.84090909 44.926875 6.84090909 44.926875 3.65909091 54.1243182 3.65909091ZM47.0149432 0 51.2507386 0 51.2507386 14.2386364C51.2507386 14.6297348 51.3103977 14.9330019 51.4297159 15.1484375 51.5490341 15.3638731 51.716411 15.514678 51.9318466 15.6008523 52.1472822 15.6870265 52.3975189 15.7301136 52.6825568 15.7301136 52.8814205 15.7301136 53.0802841 15.7118845 53.2791477 15.6754261 53.4780114 15.6389678 53.6304735 15.6107955 53.7365341 15.5909091L54.4027273 18.7428977C54.1906061 18.8091856 53.8923106 18.8870739 53.5078409 18.9765625 53.1233712 19.0660511 52.6560417 19.1207386 52.1058523 19.140625 51.0850189 19.1803977 50.1917898 19.0445076 49.4261648 18.7329545 48.6605398 18.4214015 48.0656061 17.9375 47.6413636 17.28125 47.2171212 16.625 47.0083144 15.7964015 47.0149432 14.7954545L47.0149432 0Z" transform="translate(73 38)"/><g transform="translate(0 115)"><use xlink:href="#a" fill="#000" filter="url(#b)"/><rect width="199" height="99" x=".5" y=".5" fill="#FFF" stroke="#ADB5BD" stroke-linejoin="square" rx="8"/><path fill="#A1A1AA" fill-rule="nonzero" d="M0 24.6590909 0 3.65909091 4.17613636 3.65909091 4.17613636 6.22443182 4.36505682 6.22443182C4.55066288 5.81344697 4.82078598 5.39417614 5.17542614 4.96661932 5.53006629 4.5390625 5.99408144 4.18110795 6.56747159 3.89275568 7.14086174 3.60440341 7.85511364 3.46022727 8.71022727 3.46022727 9.82386364 3.46022727 10.8513258 3.75023674 11.7926136 4.33025568 12.7339015 4.91027462 13.4862689 5.78196023 14.0497159 6.9453125 14.6131629 8.10866477 14.8948864 9.56534091 14.8948864 11.3153409 14.8948864 13.0189394 14.6214489 14.4557292 14.0745739 15.6257102 13.5276989 16.7956913 12.7852746 17.6806345 11.8473011 18.2805398 10.9093277 18.8804451 9.86032197 19.1803977 8.70028409 19.1803977 7.87831439 19.1803977 7.18063447 19.0445076 6.60724432 18.7727273 6.03385417 18.500947 5.56486742 18.1579072 5.20028409 17.743608 4.83570076 17.3293087 4.55729167 16.9100379 4.36505682 16.4857955L4.23579545 16.4857955 4.23579545 24.6590909 0 24.6590909ZM4.14630682 11.2954545C4.14630682 12.2035985 4.27225379 12.9957386 4.52414773 13.671875 4.77604167 14.3480114 5.140625 14.8733428 5.61789773 15.2478693 6.09517045 15.6223958 6.67518939 15.8096591 7.35795455 15.8096591 8.04734848 15.8096591 8.63068182 15.6190814 9.10795455 15.2379261 9.58522727 14.8567708 9.94815341 14.3264678 10.196733 13.647017 10.4453125 12.9675663 10.5696023 12.1837121 10.5696023 11.2954545 10.5696023 10.4138258 10.4469697 9.63825758 10.2017045 8.96875 9.95643939 8.29924242 9.59517045 7.77556818 9.11789773 7.39772727 8.640625 7.01988636 8.05397727 6.83096591 7.35795455 6.83096591 6.66856061 6.83096591 6.08688447 7.01325758 5.61292614 7.37784091 5.1389678 7.74242424 4.77604167 8.2594697 4.52414773 8.92897727 4.27225379 9.59848485 4.14630682 10.3873106 4.14630682 11.2954545ZM23.069375 19.2301136C21.5248674 19.2301136 20.1908239 18.9003314 19.0672443 18.240767 17.9436648 17.5812027 17.0769508 16.6598011 16.4671023 15.4765625 15.8572538 14.2933239 15.5523295 12.9195076 15.5523295 11.3551136 15.5523295 9.77746212 15.8572538 8.39701705 16.4671023 7.21377841 17.0769508 6.03053977 17.9436648 5.10913826 19.0672443 4.44957386 20.1908239 3.79000947 21.5248674 3.46022727 23.069375 3.46022727 24.6138826 3.46022727 25.9479261 3.79000947 27.0715057 4.44957386 28.1950852 5.10913826 29.0617992 6.03053977 29.6716477 7.21377841 30.2814962 8.39701705 30.5864205 9.77746212 30.5864205 11.3551136 30.5864205 12.9195076 30.2814962 14.2933239 29.6716477 15.4765625 29.0617992 16.6598011 28.1950852 17.5812027 27.0715057 18.240767 25.9479261 18.9003314 24.6138826 19.2301136 23.069375 19.2301136ZM23.0892614 15.9488636C23.7919129 15.9488636 24.3785606 15.7483428 24.8492045 15.3473011 25.3198485 14.9462595 25.6761458 14.3977273 25.9180966 13.7017045 26.1600473 13.0056818 26.2810227 12.2135417 26.2810227 11.3252841 26.2810227 10.4370265 26.1600473 9.64488636 25.9180966 8.94886364 25.6761458 8.25284091 25.3198485 7.70265152 24.8492045 7.29829545 24.3785606 6.89393939 23.7919129 6.69176136 23.0892614 6.69176136 22.3799811 6.69176136 21.7850473 6.89393939 21.3044602 7.29829545 20.8238731 7.70265152 20.4626042 8.25284091 20.2206534 8.94886364 19.9787027 9.64488636 19.8577273 10.4370265 19.8577273 11.3252841 19.8577273 12.2135417 19.9787027 13.0056818 20.2206534 13.7017045 20.4626042 14.3977273 20.8238731 14.9462595 21.3044602 15.3473011 21.7850473 15.7483428 22.3799811 15.9488636 23.0892614 15.9488636ZM44.5180114 8.01420455 40.6401705 8.25284091C40.5738826 7.92140152 40.4313636 7.62144886 40.2126136 7.35298295 39.9938636 7.08451705 39.7071686 6.86908144 39.3525284 6.70667614 38.9978883 6.54427083 38.575303 6.46306818 38.0847727 6.46306818 37.4285227 6.46306818 36.8750189 6.60061553 36.4242614 6.87571023 35.9735038 7.15080492 35.748125 7.51704545 35.748125 7.97443182 35.748125 8.33901515 35.8939583 8.64725379 36.185625 8.89914773 36.4772917 9.15104167 36.9777652 9.3532197 37.6870455 9.50568182L40.45125 10.0625C41.9360985 10.3674242 43.0431061 10.8579545 43.7722727 11.5340909 44.5014394 12.2102273 44.8660227 13.0984848 44.8660227 14.1988636 44.8660227 15.1998106 44.5726989 16.078125 43.9860511 16.8338068 43.3994034 17.5894886 42.5973201 18.1777936 41.5798011 18.5987216 40.5622822 19.0196496 39.3906439 19.2301136 38.0648864 19.2301136 36.0431061 19.2301136 34.4339678 18.8075284 33.2374716 17.962358 32.0409754 17.1171875 31.3399811 15.9654356 31.1344886 14.5071023L35.3006818 14.2883523C35.4266288 14.9048295 35.731553 15.3738163 36.2154545 15.6953125 36.6993561 16.0168087 37.3191477 16.1775568 38.0748295 16.1775568 38.8172538 16.1775568 39.4155019 16.0333807 39.8695739 15.7450284 40.3236458 15.4566761 40.5539962 15.0838068 40.560625 14.6264205 40.5539962 14.2419508 40.3915909 13.9254261 40.0734091 13.6768466 39.7552273 13.428267 39.264697 13.2376894 38.6018182 13.1051136L35.9569318 12.578125C34.4654545 12.2798295 33.3567898 11.7627841 32.6309375 11.0269886 31.9050852 10.2911932 31.5421591 9.3532197 31.5421591 8.21306818 31.5421591 7.23200758 31.8089678 6.38683712 32.3425852 5.67755682 32.8762027 4.96827652 33.6285701 4.42140152 34.5996875 4.03693182 35.5708049 3.65246212 36.7092992 3.46022727 38.0151705 3.46022727 39.9441477 3.46022727 41.4637973 3.86789773 42.5741193 4.68323864 43.6844413 5.49857955 44.3324053 6.60890152 44.5180114 8.01420455ZM54.1243182 3.65909091 54.1243182 6.84090909 44.926875 6.84090909 44.926875 3.65909091 54.1243182 3.65909091ZM47.0149432 0 51.2507386 0 51.2507386 14.2386364C51.2507386 14.6297348 51.3103977 14.9330019 51.4297159 15.1484375 51.5490341 15.3638731 51.716411 15.514678 51.9318466 15.6008523 52.1472822 15.6870265 52.3975189 15.7301136 52.6825568 15.7301136 52.8814205 15.7301136 53.0802841 15.7118845 53.2791477 15.6754261 53.4780114 15.6389678 53.6304735 15.6107955 53.7365341 15.5909091L54.4027273 18.7428977C54.1906061 18.8091856 53.8923106 18.8870739 53.5078409 18.9765625 53.1233712 19.0660511 52.6560417 19.1207386 52.1058523 19.140625 51.0850189 19.1803977 50.1917898 19.0445076 49.4261648 18.7329545 48.6605398 18.4214015 48.0656061 17.9375 47.6413636 17.28125 47.2171212 16.625 47.0083144 15.7964015 47.0149432 14.7954545L47.0149432 0Z" transform="translate(73 38)"/></g></g></g></svg>