<svg xmlns="http://www.w3.org/2000/svg" width="360" height="240" viewBox="0 0 360 240"><g fill="none" fill-rule="evenodd"><rect width="360" height="240" fill="#FAFAFA"/><g fill="#FFF" stroke="#FFF" stroke-width="1.073" transform="translate(80 42)"><rect width="57.751" height="70.72" x=".536" y=".536" rx="8"/><rect width="57.751" height="70.72" x="71.36" y=".536" rx="8"/><rect width="57.751" height="70.72" x="142.183" y=".536" rx="8"/><rect width="57.751" height="70.72" x=".536" y="84.329" rx="8"/><rect width="57.751" height="70.72" x="71.36" y="84.329" rx="8"/><rect width="57.751" height="70.72" x="142.183" y="84.329" rx="8"/></g><g fill="#0389FF" fill-opacity=".2" stroke="#0389FF" stroke-opacity=".7" stroke-width="2" transform="translate(80 42)"><rect width="56.824" height="69.792" x="1" y="1" rx="8"/><rect width="56.824" height="69.792" x="71.824" y="1" rx="8"/><rect width="56.824" height="69.792" x="142.647" y="1" rx="8"/><rect width="56.824" height="69.792" x="1" y="84.792" rx="8"/><rect width="56.824" height="69.792" x="71.824" y="84.792" rx="8"/><rect width="56.824" height="69.792" x="142.647" y="84.792" rx="8"/></g></g></svg>