<svg xmlns="http://www.w3.org/2000/svg" width="360" height="240" viewBox="0 0 360 240"><g fill="none" fill-rule="evenodd"><rect width="360" height="240" fill="#FFF"/><rect width="360" height="240" fill="#FAFAFA"/><g fill="#FFF" stroke="#FFF" stroke-width="1.073" transform="translate(80 40)"><rect width="57.751" height="82.594" x=".536" y=".536" rx="8"/><rect width="57.751" height="59.026" x="71.125" y=".536" rx="8"/><rect width="57.751" height="104.984" x="141.713" y=".536" rx="8"/><rect width="57.751" height="70.81" x=".536" y="95.987" rx="8"/><rect width="57.751" height="70.81" x=".536" y="179.654" rx="8"/><rect width="57.751" height="70.81" x="71.125" y="72.419" rx="8"/><rect width="57.751" height="70.81" x="71.125" y="156.086" rx="8"/><rect width="57.751" height="70.81" x="141.713" y="118.377" rx="8"/></g><g fill="#0389FF" fill-opacity=".2" stroke="#0389FF" stroke-opacity=".7" stroke-width="2" transform="translate(80 40)"><rect width="56.824" height="81.667" x="1" y="1" rx="8"/><rect width="56.824" height="58.099" x="71.588" y="1" rx="8"/><rect width="56.824" height="104.056" x="142.176" y="1" rx="8"/><rect width="56.824" height="69.883" x="1" y="96.451" rx="8"/><rect width="56.824" height="69.883" x="1" y="180.117" rx="8"/><rect width="56.824" height="69.883" x="71.588" y="72.883" rx="8"/><rect width="56.824" height="69.883" x="71.588" y="156.549" rx="8"/><rect width="56.824" height="69.883" x="142.176" y="118.84" rx="8"/></g></g></svg>