<svg xmlns="http://www.w3.org/2000/svg" xmlns:xlink="http://www.w3.org/1999/xlink" width="300" height="200" viewBox="0 0 300 200"><defs><filter id="b" width="102.3%" height="102.5%" x="-1.2%" y="-.6%" filterUnits="objectBoundingBox"><feOffset dy="1" in="SourceAlpha" result="shadowOffsetOuter1"/><feGaussianBlur in="shadowOffsetOuter1" result="shadowBlurOuter1" stdDeviation=".5"/><feComposite in="shadowBlurOuter1" in2="SourceAlpha" operator="out" result="shadowBlurOuter1"/><feColorMatrix in="shadowBlurOuter1" values="0 0 0 0 0 0 0 0 0 0 0 0 0 0 0 0 0 0 0.1 0"/></filter><rect id="a" width="171" height="160" x="0" y="0" rx="5"/></defs><g fill="none" fill-rule="evenodd"><rect width="300" height="200" fill="#FFF"/><rect width="300" height="200" fill="#FAFAFA"/><g transform="translate(20 20)"><g transform="translate(190)"><rect width="68.927" height="158.927" x=".536" y=".536" fill="#FFF" stroke="#FFF" stroke-width="1.073" rx="5"/><rect width="67.854" height="157.854" x="1.073" y="1.073" fill="#0389FF" fill-opacity=".2" stroke="#0389FF" stroke-opacity=".7" stroke-width="2.146" rx="5"/><path fill="#0389FF" fill-rule="nonzero" d="M11.4715909 9.09375 8.14772727 9.29829545C8.09090909 9.01420455 7.96875 8.75710227 7.78125 8.52698864 7.59375 8.296875 7.34801136 8.11221591 7.04403409 7.97301136 6.74005682 7.83380682 6.37784091 7.76420455 5.95738636 7.76420455 5.39488636 7.76420455 4.92045455 7.88210227 4.53409091 8.11789773 4.14772727 8.35369318 3.95454545 8.66761364 3.95454545 9.05965909 3.95454545 9.37215909 4.07954545 9.63636364 4.32954545 9.85227273 4.57954545 10.0681818 5.00852273 10.2414773 5.61647727 10.3721591L7.98579545 10.8494318C9.25852273 11.1107955 10.2073864 11.53125 10.8323864 12.1107955 11.4573864 12.6903409 11.7698864 13.4517045 11.7698864 14.3948864 11.7698864 15.2528409 11.5184659 16.0056818 11.015625 16.6534091 10.5127841 17.3011364 9.82528409 17.8053977 8.953125 18.1661932 8.08096591 18.5269886 7.07670455 18.7073864 5.94034091 18.7073864 4.20738636 18.7073864 2.828125 18.3451705 1.80255682 17.6207386.776988636 16.8963068.176136364 15.9090909 0 14.6590909L3.57102273 14.4715909C3.67897727 15 3.94034091 15.4019886 4.35511364 15.6775568 4.76988636 15.953125 5.30113636 16.0909091 5.94886364 16.0909091 6.58522727 16.0909091 7.09801136 15.9673295 7.48721591 15.7201705 7.87642045 15.4730114 8.07386364 15.1534091 8.07954545 14.7613636 8.07386364 14.4318182 7.93465909 14.1605114 7.66193182 13.9474432 7.38920455 13.734375 6.96875 13.5710227 6.40056818 13.4573864L4.13352273 13.0056818C2.85511364 12.75 1.90482955 12.3068182 1.28267045 11.6761364.660511364 11.0454545.349431818 10.2414773.349431818 9.26420455.349431818 8.42329545.578125 7.69886364 1.03551136 7.09090909 1.49289773 6.48295455 2.13778409 6.01420455 2.97017045 5.68465909 3.80255682 5.35511364 4.77840909 5.19034091 5.89772727 5.19034091 7.55113636 5.19034091 8.85369318 5.53977273 9.80539773 6.23863636 10.7571023 6.9375 11.3125 7.88920455 11.4715909 9.09375ZM13.2053571 18.4517045 13.2053571 5.36079545 16.836039 5.36079545 16.836039 18.4517045 13.2053571 18.4517045ZM15.0292208 3.67329545C14.4894481 3.67329545 14.0278003 3.49289773 13.6442776 3.13210227 13.2607549 2.77130682 13.0689935 2.33806818 13.0689935 1.83238636 13.0689935 1.33238636 13.2607549.901988636 13.6442776.541193182 14.0278003.180397727 14.4894481-1.04445773e-14 15.0292208-1.04445773e-14 15.5689935-1.04445773e-14 16.0306412.180397727 16.414164.541193182 16.7976867.901988636 16.9894481 1.33238636 16.9894481 1.83238636 16.9894481 2.33806818 16.7976867 2.77130682 16.414164 3.13210227 16.0306412 3.49289773 15.5689935 3.67329545 15.0292208 3.67329545ZM23.700487 18.6647727C22.7061688 18.6647727 21.8070211 18.4076705 21.0030438 17.8934659 20.1990666 17.3792614 19.5627029 16.6207386 19.0939529 15.6178977 18.6252029 14.6150568 18.3908279 13.3835227 18.3908279 11.9232955 18.3908279 10.4232955 18.6323052 9.17471591 19.1152597 8.17755682 19.5982143 7.18039773 20.2416802 6.43323864 21.0456575 5.93607955 21.8496347 5.43892045 22.731737 5.19034091 23.6919643 5.19034091 24.4249188 5.19034091 25.0371347 5.31392045 25.528612 5.56107955 26.0200893 5.80823864 26.4178166 6.11505682 26.7217938 6.48153409 27.0257711 6.84801136 27.2573052 7.20738636 27.4163961 7.55965909L27.5271916 7.55965909 27.5271916.997159091 31.1493506.997159091 31.1493506 18.4517045 27.5698052 18.4517045 27.5698052 16.3551136 27.4163961 16.3551136C27.2459416 16.71875 27.0058847 17.078125 26.6962256 17.4332386 26.3865666 17.7883523 25.9859984 18.0823864 25.4945211 18.3153409 25.0030438 18.5482955 24.4050325 18.6647727 23.700487 18.6647727ZM24.8510552 15.7755682C25.4362825 15.7755682 25.9320211 15.6150568 26.3382711 15.2940341 26.7445211 14.9730114 27.0570211 14.5227273 27.2757711 13.9431818 27.4945211 13.3636364 27.6038961 12.6846591 27.6038961 11.90625 27.6038961 11.1278409 27.4959416 10.4517045 27.2800325 9.87784091 27.0641234 9.30397727 26.7516234 8.86079545 26.3425325 8.54829545 25.9334416 8.23579545 25.4362825 8.07954545 24.8510552 8.07954545 24.2544643 8.07954545 23.7516234 8.24147727 23.3425325 8.56534091 22.9334416 8.88920455 22.6237825 9.33806818 22.4135552 9.91193182 22.2033279 10.4857955 22.0982143 11.1505682 22.0982143 11.90625 22.0982143 12.6676136 22.2047484 13.3394886 22.4178166 13.921875 22.6308847 14.5042614 22.9405438 14.9588068 23.3467938 15.2855114 23.7530438 15.6122159 24.2544643 15.7755682 24.8510552 15.7755682ZM39.2325487 18.7073864C37.8859578 18.7073864 36.7282873 18.4332386 35.7595373 17.8849432 34.7907873 17.3366477 34.0450487 16.5582386 33.5223214 15.5497159 32.9995942 14.5411932 32.7382305 13.3465909 32.7382305 11.9659091 32.7382305 10.6193182 32.9995942 9.4375 33.5223214 8.42045455 34.0450487 7.40340909 34.7822646 6.61079545 35.7339692 6.04261364 36.6856737 5.47443182 37.8035714 5.19034091 39.0876623 5.19034091 39.9512987 5.19034091 40.7566964 5.328125 41.5038555 5.60369318 42.2510146 5.87926136 42.9044237 6.29261364 43.4640828 6.84375 44.0237419 7.39488636 44.4598214 8.08664773 44.7723214 8.91903409 45.0848214 9.75142045 45.2410714 10.7244318 45.2410714 11.8380682L45.2410714 12.8352273 34.1870942 12.8352273 34.1870942 10.5852273 41.8234578 10.5852273C41.8234578 10.0625 41.7098214 9.59943182 41.4825487 9.19602273 41.255276 8.79261364 40.9413555 8.47585227 40.5407873 8.24573864 40.1402192 8.015625 39.6757305 7.90056818 39.1473214 7.90056818 38.5961851 7.90056818 38.1089692 8.02698864 37.6856737 8.27982955 37.2623782 8.53267045 36.9314123 8.87073864 36.692776 9.29403409 36.4541396 9.71732955 36.3319805 10.1875 36.3262987 10.7045455L36.3262987 12.84375C36.3262987 13.4914773 36.4470373 14.0511364 36.6885146 14.5227273 36.9299919 14.9943182 37.2723214 15.3579545 37.7155032 15.6136364 38.1586851 15.8693182 38.6842532 15.9971591 39.2922078 15.9971591 39.6956169 15.9971591 40.0649351 15.9403409 40.4001623 15.8267045 40.7353896 15.7130682 41.0223214 15.5426136 41.2609578 15.3153409 41.4995942 15.0880682 41.6814123 14.8096591 41.8064123 14.4801136L45.1643669 14.7017045C44.9939123 15.5085227 44.645901 16.2116477 44.1203328 16.8110795 43.5947646 17.4105114 42.9186282 17.8764205 42.0919237 18.2088068 41.2652192 18.5411932 40.3120942 18.7073864 39.2325487 18.7073864ZM46.8214286 18.4517045 46.8214286.997159091 50.4521104.997159091 50.4521104 7.55965909 50.5629058 7.55965909C50.7219968 7.20738636 50.9535308 6.84801136 51.2575081 6.48153409 51.5614854 6.11505682 51.9592127 5.80823864 52.4506899 5.56107955 52.9421672 5.31392045 53.5543831 5.19034091 54.2873377 5.19034091 55.2418831 5.19034091 56.1225649 5.43892045 56.9293831 5.93607955 57.7362013 6.43323864 58.3810877 7.18039773 58.8640422 8.17755682 59.3469968 9.17471591 59.588474 10.4232955 59.588474 11.9232955 59.588474 13.3835227 59.354099 14.6150568 58.885349 15.6178977 58.416599 16.6207386 57.7802354 17.3792614 56.9762581 17.8934659 56.1722808 18.4076705 55.2731331 18.6647727 54.2788149 18.6647727 53.5742695 18.6647727 52.9762581 18.5482955 52.4847808 18.3153409 51.9933036 18.0823864 51.5913149 17.7883523 51.2788149 17.4332386 50.9663149 17.078125 50.7276786 16.71875 50.5629058 16.3551136L50.400974 16.3551136 50.400974 18.4517045 46.8214286 18.4517045ZM50.3754058 11.90625C50.3754058 12.6846591 50.4833604 13.3636364 50.6992695 13.9431818 50.9151786 14.5227273 51.2276786 14.9730114 51.6367695 15.2940341 52.0458604 15.6150568 52.5430195 15.7755682 53.1282468 15.7755682 53.7191558 15.7755682 54.2191558 15.6122159 54.6282468 15.2855114 55.0373377 14.9588068 55.3484172 14.5042614 55.5614854 13.921875 55.7745536 13.3394886 55.8810877 12.6676136 55.8810877 11.90625 55.8810877 11.1505682 55.775974 10.4857955 55.5657468 9.91193182 55.3555195 9.33806818 55.0458604 8.88920455 54.6367695 8.56534091 54.2276786 8.24147727 53.7248377 8.07954545 53.1282468 8.07954545 52.5373377 8.07954545 52.0387581 8.23579545 51.6325081 8.54829545 51.2262581 8.86079545 50.9151786 9.30397727 50.6992695 9.87784091 50.4833604 10.4517045 50.3754058 11.1278409 50.3754058 11.90625ZM64.8762175 18.6988636C64.0409903 18.6988636 63.2966721 18.5525568 62.643263 18.2599432 61.9898539 17.9673295 61.4742289 17.5326705 61.096388 16.9559659 60.7185471 16.3792614 60.5296266 15.6590909 60.5296266 14.7954545 60.5296266 14.0681818 60.6631494 13.4573864 60.9301948 12.9630682 61.1972403 12.46875 61.5608766 12.0710227 62.0211039 11.7698864 62.4813312 11.46875 63.0054789 11.2414773 63.5935471 11.0880682 64.1816153 10.9346591 64.799513 10.8267045 65.4472403 10.7642045 66.2086039 10.6846591 66.8222403 10.609375 67.2881494 10.5383523 67.7540584 10.4673295 68.0921266 10.3607955 68.3023539 10.21875 68.5125812 10.0767045 68.6176948 9.86647727 68.6176948 9.58806818L68.6176948 9.53693182C68.6176948 8.99715909 68.4486607 8.57954545 68.1105925 8.28409091 67.7725244 7.98863636 67.2938312 7.84090909 66.674513 7.84090909 66.0211039 7.84090909 65.5012175 7.984375 65.1148539 8.27130682 64.7284903 8.55823864 64.4728084 8.91761364 64.3478084 9.34943182L60.9898539 9.07670455C61.1603084 8.28125 61.4955357 7.59232955 61.9955357 7.00994318 62.4955357 6.42755682 63.1418425 5.97869318 63.9344562 5.66335227 64.7270698 5.34801136 65.6461039 5.19034091 66.6915584 5.19034091 67.4188312 5.19034091 68.1162744 5.27556818 68.783888 5.44602273 69.4515016 5.61647727 70.0452516 5.88068182 70.565138 6.23863636 71.0850244 6.59659091 71.4955357 7.05539773 71.7966721 7.61505682 72.0978084 8.17471591 72.2483766 8.84375 72.2483766 9.62215909L72.2483766 18.4517045 68.8051948 18.4517045 68.8051948 16.6363636 68.7029221 16.6363636C68.4926948 17.0454545 68.2114448 17.4048295 67.8591721 17.7144886 67.5068994 18.0241477 67.0836039 18.265625 66.5892857 18.4389205 66.0949675 18.6122159 65.5239448 18.6988636 64.8762175 18.6988636ZM65.9159903 16.1931818C66.4500812 16.1931818 66.9216721 16.0866477 67.330763 15.8735795 67.7398539 15.6605114 68.0608766 15.3721591 68.2938312 15.0085227 68.5267857 14.6448864 68.643263 14.2329545 68.643263 13.7727273L68.643263 12.3835227C68.5296266 12.4573864 68.3747971 12.5241477 68.1787744 12.5838068 67.9827516 12.6434659 67.7625812 12.6974432 67.518263 12.7457386 67.2739448 12.7940341 67.0296266 12.8366477 66.7853084 12.8735795 66.5409903 12.9105114 66.3193994 12.9431818 66.1205357 12.9715909 65.6943994 13.0340909 65.3222403 13.1335227 65.0040584 13.2698864 64.6858766 13.40625 64.4387175 13.5894886 64.2625812 13.8196023 64.0864448 14.0497159 63.9983766 14.3352273 63.9983766 14.6761364 63.9983766 15.1704545 64.1787744 15.546875 64.5395698 15.8053977 64.9003653 16.0639205 65.3591721 16.1931818 65.9159903 16.1931818ZM74.2122565 18.4517045 74.2122565 5.36079545 77.7321429 5.36079545 77.7321429 7.64488636 77.8685065 7.64488636C78.1071429 6.83238636 78.507711 6.21732955 79.070211 5.79971591 79.632711 5.38210227 80.2804383 5.17329545 81.0133929 5.17329545 81.195211 5.17329545 81.3912338 5.18465909 81.601461 5.20738636 81.8116883 5.23011364 81.9963474 5.26136364 82.1554383 5.30113636L82.1554383 8.52272727C81.9849838 8.47159091 81.7491883 8.42613636 81.4480519 8.38636364 81.1469156 8.34659091 80.8713474 8.32670455 80.6213474 8.32670455 80.0872565 8.32670455 79.6114042 8.44176136 79.1937906 8.671875 78.7761769 8.90198864 78.4466315 9.22159091 78.2051542 9.63068182 77.9636769 10.0397727 77.8429383 10.5113636 77.8429383 11.0454545L77.8429383 18.4517045 74.2122565 18.4517045Z" transform="rotate(-90 73.578 47.854)"/></g><use xlink:href="#a" fill="#000" filter="url(#b)"/><rect width="169.927" height="158.927" x=".536" y=".536" fill="#FFF" stroke="#ADB5BD" stroke-linejoin="square" stroke-width="1.073" rx="5"/><path fill="#A1A1AA" fill-rule="nonzero" d="M0 18.1704545 0 .170454545 3.57954545.170454545 3.57954545 2.36931818 3.74147727 2.36931818C3.90056818 2.01704545 4.13210227 1.65767045 4.43607955 1.29119318 4.74005682.924715909 5.13778409.617897727 5.62926136.370738636 6.12073864.123579545 6.73295455-2.27373675e-13 7.46590909-2.27373675e-13 8.42045455-2.27373675e-13 9.30113636.248579545 10.1079545.745738636 10.9147727 1.24289773 11.5596591 1.99005682 12.0426136 2.98721591 12.5255682 3.984375 12.7670455 5.23295455 12.7670455 6.73295455 12.7670455 8.19318182 12.5326705 9.42471591 12.0639205 10.4275568 11.5951705 11.4303977 10.9588068 12.1889205 10.1548295 12.703125 9.35085227 13.2173295 8.45170455 13.4744318 7.45738636 13.4744318 6.75284091 13.4744318 6.15482955 13.3579545 5.66335227 13.125 5.171875 12.8920455 4.76988636 12.5980114 4.45738636 12.2428977 4.14488636 11.8877841 3.90625 11.5284091 3.74147727 11.1647727L3.63068182 11.1647727 3.63068182 18.1704545 0 18.1704545ZM3.55397727 6.71590909C3.55397727 7.49431818 3.66193182 8.17329545 3.87784091 8.75284091 4.09375 9.33238636 4.40625 9.78267045 4.81534091 10.1036932 5.22443182 10.4247159 5.72159091 10.5852273 6.30681818 10.5852273 6.89772727 10.5852273 7.39772727 10.421875 7.80681818 10.0951705 8.21590909 9.76846591 8.52698864 9.31392045 8.74005682 8.73153409 8.953125 8.14914773 9.05965909 7.47727273 9.05965909 6.71590909 9.05965909 5.96022727 8.95454545 5.29545455 8.74431818 4.72159091 8.53409091 4.14772727 8.22443182 3.69886364 7.81534091 3.375 7.40625 3.05113636 6.90340909 2.88920455 6.30681818 2.88920455 5.71590909 2.88920455 5.21732955 3.04545455 4.81107955 3.35795455 4.40482955 3.67045455 4.09375 4.11363636 3.87784091 4.6875 3.66193182 5.26136364 3.55397727 5.9375 3.55397727 6.71590909ZM17.5919318 13.5085227C16.7567045 13.5085227 16.0123864 13.3622159 15.3589773 13.0696023 14.7055682 12.7769886 14.1899432 12.3423295 13.8121023 11.765625 13.4342614 11.1889205 13.2453409 10.46875 13.2453409 9.60511364 13.2453409 8.87784091 13.3788636 8.26704545 13.6459091 7.77272727 13.9129545 7.27840909 14.2765909 6.88068182 14.7368182 6.57954545 15.1970455 6.27840909 15.7211932 6.05113636 16.3092614 5.89772727 16.8973295 5.74431818 17.5152273 5.63636364 18.1629545 5.57386364 18.9243182 5.49431818 19.5379545 5.41903409 20.0038636 5.34801136 20.4697727 5.27698864 20.8078409 5.17045455 21.0180682 5.02840909 21.2282955 4.88636364 21.3334091 4.67613636 21.3334091 4.39772727L21.3334091 4.34659091C21.3334091 3.80681818 21.164375 3.38920455 20.8263068 3.09375 20.4882386 2.79829545 20.0095455 2.65056818 19.3902273 2.65056818 18.7368182 2.65056818 18.2169318 2.79403409 17.8305682 3.08096591 17.4442045 3.36789773 17.1885227 3.72727273 17.0635227 4.15909091L13.7055682 3.88636364C13.8760227 3.09090909 14.21125 2.40198864 14.71125 1.81960227 15.21125 1.23721591 15.8575568.788352273 16.6501705.473011364 17.4427841.157670455 18.3618182-2.27373675e-13 19.4072727-2.27373675e-13 20.1345455-2.27373675e-13 20.8319886.0852272727 21.4996023.255681818 22.1672159.426136364 22.7609659.690340909 23.2808523 1.04829545 23.8007386 1.40625 24.21125 1.86505682 24.5123864 2.42471591 24.8135227 2.984375 24.9640909 3.65340909 24.9640909 4.43181818L24.9640909 13.2613636 21.5209091 13.2613636 21.5209091 11.4460227 21.4186364 11.4460227C21.2084091 11.8551136 20.9271591 12.2144886 20.5748864 12.5241477 20.2226136 12.8338068 19.7993182 13.0752841 19.305 13.2485795 18.8106818 13.421875 18.2396591 13.5085227 17.5919318 13.5085227ZM18.6317045 11.0028409C19.1657955 11.0028409 19.6373864 10.8963068 20.0464773 10.6832386 20.4555682 10.4701705 20.7765909 10.1818182 21.0095455 9.81818182 21.2425 9.45454545 21.3589773 9.04261364 21.3589773 8.58238636L21.3589773 7.19318182C21.2453409 7.26704545 21.0905114 7.33380682 20.8944886 7.39346591 20.6984659 7.453125 20.4782955 7.50710227 20.2339773 7.55539773 19.9896591 7.60369318 19.7453409 7.64630682 19.5010227 7.68323864 19.2567045 7.72017045 19.0351136 7.75284091 18.83625 7.78125 18.4101136 7.84375 18.0379545 7.94318182 17.7197727 8.07954545 17.4015909 8.21590909 17.1544318 8.39914773 16.9782955 8.62926136 16.8021591 8.859375 16.7140909 9.14488636 16.7140909 9.48579545 16.7140909 9.98011364 16.8944886 10.3565341 17.2552841 10.6150568 17.6160795 10.8735795 18.0748864 11.0028409 18.6317045 11.0028409ZM32.3628409 18.4431818C31.1867045 18.4431818 30.1796023 18.2826705 29.3415341 17.9616477 28.5034659 17.640625 27.8372727 17.2045455 27.3429545 16.6534091 26.8486364 16.1022727 26.5276136 15.4829545 26.3798864 14.7954545L29.7378409 14.34375C29.8401136 14.6051136 30.0020455 14.8494318 30.2236364 15.0767045 30.4452273 15.3039773 30.7392614 15.4872159 31.1057386 15.6264205 31.4722159 15.765625 31.9196591 15.8352273 32.4480682 15.8352273 33.2378409 15.8352273 33.8898295 15.6434659 34.4040341 15.2599432 34.9182386 14.8764205 35.1753409 14.2357955 35.1753409 13.3380682L35.1753409 10.9431818 35.0219318 10.9431818C34.8628409 11.3068182 34.6242045 11.6505682 34.3060227 11.9744318 33.9878409 12.2982955 33.57875 12.5625 33.07875 12.7670455 32.57875 12.9715909 31.9821591 13.0738636 31.2889773 13.0738636 30.3060227 13.0738636 29.4125568 12.8451705 28.6085795 12.3877841 27.8046023 11.9303977 27.1653977 11.2286932 26.6909659 10.2826705 26.2165341 9.33664773 25.9793182 8.13920455 25.9793182 6.69034091 25.9793182 5.20738636 26.2207955 3.96875 26.70375 2.97443182 27.1867045 1.98011364 27.8301705 1.23579545 28.6341477.741477273 29.438125.247159091 30.3202273-2.27373675e-13 31.2804545-2.27373675e-13 32.0134091-2.27373675e-13 32.6270455.123579545 33.1213636.370738636 33.6156818.617897727 34.0148295.924715909 34.3188068 1.29119318 34.6227841 1.65767045 34.8571591 2.01704545 35.0219318 2.36931818L35.1582955 2.36931818 35.1582955.170454545 38.7634091.170454545 38.7634091 13.3892045C38.7634091 14.5028409 38.4906818 15.4346591 37.9452273 16.1846591 37.3997727 16.9346591 36.6455114 17.4985795 35.6824432 17.8764205 34.719375 18.2542614 33.6128409 18.4431818 32.3628409 18.4431818ZM32.4395455 10.3465909C33.0247727 10.3465909 33.5205114 10.2002841 33.9267614 9.90767045 34.3330114 9.61505682 34.6455114 9.19460227 34.8642614 8.64630682 35.0830114 8.09801136 35.1923864 7.44034091 35.1923864 6.67329545 35.1923864 5.90625 35.0844318 5.24005682 34.8685227 4.67471591 34.6526136 4.109375 34.3401136 3.67045455 33.9310227 3.35795455 33.5219318 3.04545455 33.0247727 2.88920455 32.4395455 2.88920455 31.8429545 2.88920455 31.3401136 3.04971591 30.9310227 3.37073864 30.5219318 3.69176136 30.2122727 4.13636364 30.0020455 4.70454545 29.7918182 5.27272727 29.6867045 5.92897727 29.6867045 6.67329545 29.6867045 7.42897727 29.7932386 8.08096591 30.0063068 8.62926136 30.219375 9.17755682 30.5290341 9.60085227 30.9352841 9.89914773 31.3415341 10.1974432 31.8429545 10.3465909 32.4395455 10.3465909ZM46.3070455 13.5170455C44.9604545 13.5170455 43.8027841 13.2428977 42.8340341 12.6946023 41.8652841 12.1463068 41.1195455 11.3678977 40.5968182 10.359375 40.0740909 9.35085227 39.8127273 8.15625 39.8127273 6.77556818 39.8127273 5.42897727 40.0740909 4.24715909 40.5968182 3.23011364 41.1195455 2.21306818 41.8567614 1.42045455 42.8084659.852272727 43.7601705.284090909 44.8780682-2.27373675e-13 46.1621591-2.27373675e-13 47.0257955-2.27373675e-13 47.8311932.137784091 48.5783523.413352273 49.3255114.688920455 49.9789205 1.10227273 50.5385795 1.65340909 51.0982386 2.20454545 51.5343182 2.89630682 51.8468182 3.72869318 52.1593182 4.56107955 52.3155682 5.53409091 52.3155682 6.64772727L52.3155682 7.64488636 41.2615909 7.64488636 41.2615909 5.39488636 48.8979545 5.39488636C48.8979545 4.87215909 48.7843182 4.40909091 48.5570455 4.00568182 48.3297727 3.60227273 48.0158523 3.28551136 47.6152841 3.05539773 47.2147159 2.82528409 46.7502273 2.71022727 46.2218182 2.71022727 45.6706818 2.71022727 45.1834659 2.83664773 44.7601705 3.08948864 44.336875 3.34232955 44.0059091 3.68039773 43.7672727 4.10369318 43.5286364 4.52698864 43.4064773 4.99715909 43.4007955 5.51420455L43.4007955 7.65340909C43.4007955 8.30113636 43.5215341 8.86079545 43.7630114 9.33238636 44.0044886 9.80397727 44.3468182 10.1676136 44.79 10.4232955 45.2331818 10.6789773 45.75875 10.8068182 46.3667045 10.8068182 46.7701136 10.8068182 47.1394318 10.75 47.4746591 10.6363636 47.8098864 10.5227273 48.0968182 10.3522727 48.3354545 10.125 48.5740909 9.89772727 48.7559091 9.61931818 48.8809091 9.28977273L52.2388636 9.51136364C52.0684091 10.3181818 51.7203977 11.0213068 51.1948295 11.6207386 50.6692614 12.2201705 49.993125 12.6860795 49.1664205 13.0184659 48.3397159 13.3508523 47.3865909 13.5170455 46.3070455 13.5170455Z" transform="translate(59 71)"/></g></g></svg>