<svg xmlns="http://www.w3.org/2000/svg" xmlns:xlink="http://www.w3.org/1999/xlink" width="300" height="200" viewBox="0 0 300 200"><defs><filter id="b" width="104.4%" height="104.4%" x="-2.2%" y="-1.1%" filterUnits="objectBoundingBox"><feOffset dy="1" in="SourceAlpha" result="shadowOffsetOuter1"/><feGaussianBlur in="shadowOffsetOuter1" result="shadowBlurOuter1" stdDeviation=".5"/><feComposite in="shadowBlurOuter1" in2="SourceAlpha" operator="out" result="shadowBlurOuter1"/><feColorMatrix in="shadowBlurOuter1" values="0 0 0 0 0 0 0 0 0 0 0 0 0 0 0 0 0 0 0.1 0"/></filter><path id="a" d="M0,0 L86,0 C88.7614237,-5.07265313e-16 91,2.23857625 91,5 L91,85 C91,87.7614237 88.7614237,90 86,90 L0,90 L0,90 L0,0 Z"/></defs><g fill="none" fill-rule="evenodd"><rect width="300" height="200" fill="#FFF"/><rect width="300" height="200" fill="#FAFAFA"/><g transform="translate(60 55)"><g transform="translate(89)"><use xlink:href="#a" fill="#000" filter="url(#b)"/><path fill="#FFF" stroke="#ADB5BD" stroke-linejoin="square" stroke-width="1.073" d="M86,0.536398467 C87.2325895,0.536398467 88.3484899,1.03600409 89.1562429,1.84375709 C89.9639959,2.65151009 90.4636015,3.76741047 90.4636015,5 L90.4636015,85 C90.4636015,86.2325895 89.9639959,87.3484899 89.1562429,88.1562429 C88.3484899,88.9639959 87.2325895,89.4636015 86,89.4636015 L0.536398467,89.4636015 L0.536398467,0.536398467 Z"/></g><path fill="#FFF" stroke="#FFF" stroke-width="1.073" d="M90.4636015,0.536398467 L90.4636015,89.4636015 L5,89.4636015 C3.76741047,89.4636015 2.65151009,88.9639959 1.84375709,88.1562429 C1.03600409,87.3484899 0.536398467,86.2325895 0.536398467,85 L0.536398467,5 C0.536398467,3.76741047 1.03600409,2.65151009 1.84375709,1.84375709 C2.65151009,1.03600409 3.76741047,0.536398467 5,0.536398467 L90.4636015,0.536398467 Z"/><path fill="#0389FF" fill-opacity=".2" stroke="#0389FF" stroke-opacity=".7" stroke-width="2.146" d="M89.9272031,1.07279693 L89.9272031,88.9272031 L5,88.9272031 C3.91553282,88.9272031 2.93373205,88.4876359 2.22304808,87.7769519 C1.51236411,87.0662679 1.07279693,86.0844672 1.07279693,85 L1.07279693,5 C1.07279693,3.91553282 1.51236411,2.93373205 2.22304808,2.22304808 C2.93373205,1.51236411 3.91553282,1.07279693 5,1.07279693 L89.9272031,1.07279693 Z"/><path fill="#0389FF" fill-rule="nonzero" d="M26,0 L18.5,10 L24.2,17.6 L21,20 C17.62,15.5 12,8 12,8 L0,24 L44,24 L26,0 Z" transform="translate(23 33)"/><rect width="31" height="6" x="102" y="15" fill="#A1A1AA" opacity=".6" rx="3"/><rect width="21" height="6" x="138" y="15" fill="#A1A1AA" opacity=".6" rx="3"/><rect width="66" height="3" x="102" y="30" fill="#A1A1AA" opacity=".3" rx="1.5"/><rect width="61" height="3" x="102" y="40" fill="#A1A1AA" opacity=".3" rx="1.5"/><rect width="53" height="3" x="102" y="50" fill="#A1A1AA" opacity=".3" rx="1.5"/></g></g></svg>