<svg xmlns="http://www.w3.org/2000/svg" xmlns:xlink="http://www.w3.org/1999/xlink" width="300" height="200" viewBox="0 0 300 200"><defs><filter id="b" width="102.2%" height="102.5%" x="-1.1%" y="-.6%" filterUnits="objectBoundingBox"><feOffset dy="1" in="SourceAlpha" result="shadowOffsetOuter1"/><feGaussianBlur in="shadowOffsetOuter1" result="shadowBlurOuter1" stdDeviation=".5"/><feComposite in="shadowBlurOuter1" in2="SourceAlpha" operator="out" result="shadowBlurOuter1"/><feColorMatrix in="shadowBlurOuter1" values="0 0 0 0 0 0 0 0 0 0 0 0 0 0 0 0 0 0 0.1 0"/></filter><rect id="a" width="180" height="160" x="0" y="0" rx="5"/></defs><g fill="none" fill-rule="evenodd"><rect width="300" height="200" fill="#FFF"/><rect width="300" height="200" fill="#FAFAFA"/><g transform="translate(60 20)"><use xlink:href="#a" fill="#000" filter="url(#b)"/><rect width="178.927" height="158.927" x=".536" y=".536" fill="#FFF" stroke="#ADB5BD" stroke-linejoin="square" stroke-width="1.073" rx="5"/><rect width="157.854" height="87.854" x="1.073" y="1.073" fill="#0389FF" fill-opacity=".2" stroke="#0389FF" stroke-opacity=".7" stroke-width="2.146" rx="4" transform="translate(10 10)"/><g transform="translate(68 38)"><polygon points="14 0 62 0 62 48 14 48"/><path fill="#0389FF" fill-rule="nonzero" d="M26,5 L18.5,15 L24.2,22.6 L21,25 C17.62,20.5 12,13 12,13 L0,29 L44,29 L26,5 Z"/></g><rect width="31" height="6" x="12" y="112" fill="#A1A1AA" opacity=".6" rx="3"/><rect width="41" height="6" x="48" y="112" fill="#A1A1AA" opacity=".6" rx="3"/><rect width="25" height="6" x="94" y="112" fill="#A1A1AA" opacity=".6" rx="3"/><rect width="141" height="3" x="12" y="127" fill="#A1A1AA" opacity=".3" rx="1.5"/><rect width="121" height="3" x="12" y="137" fill="#A1A1AA" opacity=".3" rx="1.5"/></g></g></svg>