<svg xmlns="http://www.w3.org/2000/svg" width="28" height="28" viewBox="0 0 28 28"><g fill="none" fill-rule="evenodd"><rect width="28" height="28" fill="#F7F8F8"/><path fill="#FFF" d="M14,3 C7.92486775,3 3,7.92486775 3,14 C3,20.0751322 7.92486775,25 14,25 C20.0751322,25 25,20.0751322 25,14 C25,7.92486775 20.0751322,3 14,3 Z"/><path fill="#adb5bd" d="M10.9278175,9.37218254 L14,12.4435 L17.0721825,9.37218254 C17.5017593,8.94260582 18.1982407,8.94260582 18.6278175,9.37218254 C19.0573942,9.80175926 19.0573942,10.4982407 18.6278175,10.9278175 L15.5565,14 L18.6278175,17.0721825 C19.0573942,17.5017593 19.0573942,18.1982407 18.6278175,18.6278175 C18.1982407,19.0573942 17.5017593,19.0573942 17.0721825,18.6278175 L14,15.5565 L10.9278175,18.6278175 C10.4982407,19.0573942 9.80175926,19.0573942 9.37218254,18.6278175 C8.94260582,18.1982407 8.94260582,17.5017593 9.37218254,17.0721825 L12.4435,14 L9.37218254,10.9278175 C8.94260582,10.4982407 8.94260582,9.80175926 9.37218254,9.37218254 C9.80175926,8.94260582 10.4982407,8.94260582 10.9278175,9.37218254 Z"/></g></svg>