<svg xmlns="http://www.w3.org/2000/svg" width="300" height="200" viewBox="0 0 300 200"><g fill="none" fill-rule="evenodd"><rect width="300" height="200" fill="#D4D4D8"/><rect width="300" height="72" y="128" fill="#FFF"/><g fill="#FFF" transform="translate(0 73)"><path d="M15.5374962,0.0941591609 L284.191109,29.1425511 C286.271857,29.3675337 287.006936,29.6453627 287.741693,30.1079166 C288.476449,30.5704705 289.041026,31.1993834 289.421914,31.9796063 C289.802801,32.7598292 290,33.5205151 290,35.6133914 L290,44.9082569 L290,44.9082569 L10,44.9082569 L10,5.06518499 C10,2.30376124 12.2385763,0.0651849899 15,0.0651849899 C15.1795557,0.0651849899 15.358981,0.0748570589 15.5374962,0.0941591609 Z" opacity=".301"/><path d="M10.5191652,7.64040637 L289.170381,36.7308528 C291.256525,36.9486406 291.994139,37.225063 292.73164,37.6868507 C293.469141,38.1486384 294.036231,38.778013 294.418946,39.5594765 C294.801661,40.34094 295,41.1032694 295,43.2007509 L295,49.9541284 L295,49.9541284 L5,49.9541284 L5,12.6133801 C5,9.85195632 7.23857625,7.61338007 10,7.61338007 C10.1734066,7.61338007 10.3466959,7.62240103 10.5191652,7.64040637 Z" opacity=".597"/><path d="M5.50203718,15.188279 L294.151028,44.3179936 C296.242192,44.5290285 296.982173,44.8041267 297.722238,45.2651891 C298.462302,45.7262516 299.031743,46.356051 299.416167,47.1386697 C299.800592,47.9212884 300,48.6851521 300,50.7869377 L300,55 L300,55 L0,55 L0,20.163011 C-3.38176876e-16,17.4015873 2.23857625,15.163011 5,15.163011 C5.16766353,15.163011 5.33522095,15.1714443 5.50203718,15.188279 Z"/></g></g></svg>