<svg xmlns="http://www.w3.org/2000/svg" width="300" height="200" viewBox="0 0 300 200"><g fill="none" fill-rule="evenodd"><rect width="300" height="200" fill="#D4D4D8"/><rect width="300" height="59" y="141" fill="#FFF"/><g fill="#FFF" transform="translate(0 59)"><path d="M200,7.21768596 C200,5.88894667 201.074517,4.81179064 202.4,4.81179064 C203.725483,4.81179064 204.8,5.88894667 204.8,7.21768596 C204.8,8.54642526 205.874517,9.62358129 207.2,9.62358129 C208.525483,9.62358129 209.6,8.54642526 209.6,7.21768596 C209.6,5.88894667 210.674517,4.81179064 212,4.81179064 C213.325483,4.81179064 214.4,3.73463462 214.4,2.40589532 C214.4,1.07715603 215.474517,0 216.8,0 C218.125483,0 219.2,1.07715603 219.2,2.40589532 C219.2,3.73463462 220.418882,4.81179064 221.44,4.81179064 C222.765483,4.81179064 223.84,5.88894667 223.84,7.21768596 C223.84,8.54642526 224.914517,9.62358129 226.24,9.62358129 C227.565483,9.62358129 228.64,8.54642526 228.64,7.21768596 C228.64,6.55331632 228.908629,5.95184249 229.342944,5.51646107 C229.777258,5.08107965 230.377258,4.81179064 231.04,4.81179064 C232.365483,4.81179064 233.44,5.88894667 233.44,7.21768596 C233.44,8.54642526 234.658882,9.62358129 235.68,9.62358129 C237.005483,9.62358129 238.08,10.7007373 238.08,12.0294766 C238.08,13.3582159 239.154517,14.4353719 240.48,14.4353719 C241.805483,14.4353719 242.88,13.3582159 242.88,12.0294779 L242.88,7.21768596 C242.88,5.88894667 243.954517,4.81179064 245.28,4.81179064 C246.605483,4.81179064 247.68,3.73463462 247.68,2.40589532 C247.68,1.07715603 248.754517,0 250.08,0 C251.405483,0 252.48,1.07715603 252.48,2.40589532 C252.48,3.73463462 253.698882,4.81179064 254.72,4.81179064 C256.045483,4.81179064 257.12,5.88894667 257.12,7.21768596 C257.12,8.54642526 258.194517,9.62358129 259.52,9.62358129 C260.845483,9.62358129 261.92,8.54642526 261.92,7.21768596 C261.92,5.88894667 262.994517,4.81179064 264.32,4.81179064 C265.645483,4.81179064 266.72,5.88894667 266.72,7.21768596 L266.72,9.62358129 C266.72,10.9523206 267.938882,12.0294766 268.96,12.0294766 C270.285483,12.0294766 271.36,13.1066326 271.36,14.4353719 C271.36,15.7641112 272.434517,16.8412672 273.76,16.8412672 C275.085483,16.8412672 276.16,15.7641112 276.16,14.4353719 L276.16,7.21768596 C276.16,5.88894667 277.234517,4.81179064 278.56,4.81179064 C279.885483,4.81179064 280.96,3.73463462 280.96,2.40589532 C280.96,1.07715603 282.034517,0 283.36,0 C284.685483,0 285.76,1.07715603 285.76,2.40589532 C285.76,3.73463462 286.978882,4.81179064 288,4.81179064 C289.325483,4.81179064 290.4,5.88894667 290.4,7.21768596 C290.4,8.54642526 291.474517,9.62358129 292.8,9.62358129 C294.125483,9.62358129 295.2,8.54642526 295.2,7.21768596 C295.2,5.88894667 296.274517,4.81179064 297.6,4.81179064 C298.925483,4.81179064 300,5.88894667 300,7.21768596 L300,83 L200,83 L100,83 L0,83 L0,7.21768596 C0,5.88894667 1.0745166,4.81179064 2.4,4.81179064 C3.7254834,4.81179064 4.8,5.88894667 4.8,7.21768596 C4.8,8.54642526 5.8745166,9.62358129 7.2,9.62358129 C8.5254834,9.62358129 9.6,8.54642526 9.6,7.21768596 C9.6,5.88894667 10.6745166,4.81179064 12,4.81179064 C13.3254834,4.81179064 14.4,3.73463462 14.4,2.40589532 C14.4,1.07715603 15.4745166,0 16.8,0 C18.1254834,0 19.2,1.07715603 19.2,2.40589532 C19.2,3.73463462 20.4188817,4.81179064 21.44,4.81179064 C22.7654834,4.81179064 23.84,5.88894667 23.84,7.21768596 C23.84,8.54642526 24.9145166,9.62358129 26.24,9.62358129 C27.5654834,9.62358129 28.64,8.54642526 28.64,7.21768596 C28.64,6.55331632 28.9086292,5.95184249 29.3429437,5.51646107 C29.7772583,5.08107965 30.3772583,4.81179064 31.04,4.81179064 C32.3654834,4.81179064 33.44,5.88894667 33.44,7.21768596 C33.44,8.54642526 34.6588817,9.62358129 35.68,9.62358129 C37.0054834,9.62358129 38.08,10.7007373 38.08,12.0294766 C38.08,13.3582159 39.1545166,14.4353719 40.48,14.4353719 C41.8054834,14.4353719 42.88,13.3582159 42.88,12.0294779 L42.88,7.21768596 C42.88,5.88894667 43.9545166,4.81179064 45.28,4.81179064 C46.6054834,4.81179064 47.68,3.73463462 47.68,2.40589532 C47.68,1.07715603 48.7545166,0 50.08,0 C51.4054834,0 52.48,1.07715603 52.48,2.40589532 C52.48,3.73463462 53.6988817,4.81179064 54.72,4.81179064 C56.0454834,4.81179064 57.12,5.88894667 57.12,7.21768596 C57.12,8.54642526 58.1945166,9.62358129 59.52,9.62358129 C60.8454834,9.62358129 61.92,8.54642526 61.92,7.21768596 C61.92,5.88894667 62.9945166,4.81179064 64.32,4.81179064 C65.6454834,4.81179064 66.72,5.88894667 66.72,7.21768596 L66.72,9.62358129 C66.72,10.9523206 67.9388817,12.0294766 68.96,12.0294766 C70.2854834,12.0294766 71.36,13.1066326 71.36,14.4353719 C71.36,15.7641112 72.4345166,16.8412672 73.76,16.8412672 C75.0854834,16.8412672 76.16,15.7641112 76.16,14.4353719 L76.16,7.21768596 C76.16,5.88894667 77.2345166,4.81179064 78.56,4.81179064 C79.8854834,4.81179064 80.96,3.73463462 80.96,2.40589532 C80.96,1.07715603 82.0345166,0 83.36,0 C84.6854834,0 85.76,1.07715603 85.76,2.40589532 C85.76,3.73463462 86.9788817,4.81179064 88,4.81179064 C89.3254834,4.81179064 90.4,5.88894667 90.4,7.21768596 C90.4,8.54642526 91.4745166,9.62358129 92.8,9.62358129 C94.1254834,9.62358129 95.2,8.54642526 95.2,7.21768596 C95.2,5.88894667 96.2745166,4.81179064 97.6,4.81179064 C98.9254834,4.81179064 100,5.88894667 100,7.21768596 C100,8.54642526 101.074517,9.82689638 102.4,9.82689638 C103.725483,9.82689638 104.8,10.9040524 104.8,12.2327917 C104.8,13.561531 105.874517,14.638687 107.2,14.638687 C108.525483,14.638687 109.6,13.561531 109.6,12.2327917 C109.6,10.9040524 110.674517,9.82689638 112,9.82689638 C113.325483,9.82689638 114.4,8.74974036 114.4,7.42100106 C114.4,6.09226177 115.474517,5.01510574 116.8,5.01510574 C118.125483,5.01510574 119.2,6.09226177 119.2,7.42100106 C119.2,8.74974036 120.418882,9.82689638 121.44,9.82689638 C122.765483,9.82689638 123.84,10.9040524 123.84,12.2327917 C123.84,13.561531 124.914517,14.638687 126.24,14.638687 C127.565483,14.638687 128.64,13.561531 128.64,12.2327917 C128.64,11.5684221 128.908629,10.9669482 129.342944,10.5315668 C129.777258,10.0961854 130.377258,9.82689638 131.04,9.82689638 C132.365483,9.82689638 133.44,10.9040524 133.44,12.2327917 C133.44,13.561531 134.658882,14.638687 135.68,14.638687 C137.005483,14.638687 138.08,15.7158431 138.08,17.0445823 C138.08,18.3733216 139.154517,19.4504777 140.48,19.4504777 C141.805483,19.4504777 142.88,18.3733216 142.88,17.0445836 L142.88,12.2327917 C142.88,10.9040524 143.954517,9.82689638 145.28,9.82689638 C146.605483,9.82689638 147.68,8.74974036 147.68,7.42100106 C147.68,6.09226177 148.754517,5.01510574 150.08,5.01510574 C151.405483,5.01510574 152.48,6.09226177 152.48,7.42100106 C152.48,8.74974036 153.698882,9.82689638 154.72,9.82689638 C156.045483,9.82689638 157.12,10.9040524 157.12,12.2327917 C157.12,13.561531 158.194517,14.638687 159.52,14.638687 C160.845483,14.638687 161.92,13.561531 161.92,12.2327917 C161.92,10.9040524 162.994517,9.82689638 164.32,9.82689638 C165.645483,9.82689638 166.72,10.9040524 166.72,12.2327917 L166.72,14.638687 C166.72,15.9674263 167.938882,17.0445823 168.96,17.0445823 C170.285483,17.0445823 171.36,18.1217384 171.36,19.4504777 C171.36,20.779217 172.434517,21.856373 173.76,21.856373 C175.085483,21.856373 176.16,20.779217 176.16,19.4504777 L176.16,12.2327917 C176.16,10.9040524 177.234517,9.82689638 178.56,9.82689638 C179.885483,9.82689638 180.96,8.74974036 180.96,7.42100106 C180.96,6.09226177 182.034517,5.01510574 183.36,5.01510574 C184.685483,5.01510574 185.76,6.09226177 185.76,7.42100106 C185.76,8.74974036 186.978882,9.82689638 188,9.82689638 C189.325483,9.82689638 190.4,10.9040524 190.4,12.2327917 C190.4,13.561531 191.474517,14.638687 192.8,14.638687 C194.125483,14.638687 195.2,13.561531 195.2,12.2327917 C195.2,10.9040524 196.274517,9.82689638 197.6,9.82689638 C198.925483,9.82689638 200,8.54642526 200,7.21768596 Z" opacity=".3"/><path d="M153.6,28.5606411 C155.588225,28.5606411 157.2,30.1828123 157.2,32.1838619 C157.2,34.1849115 158.811775,35.8070828 160.8,35.8070828 C162.788225,35.8070828 164.4,34.1849115 164.4,32.1838619 C164.4,30.1828123 166.011775,28.5606411 168,28.5606411 C169.531677,28.5606411 171.36,26.9384699 171.36,24.9374202 C171.36,22.9363706 172.971775,21.3141994 174.96,21.3141994 C176.948225,21.3141994 178.56,22.9363706 178.56,24.9374202 C178.56,26.9384699 180.171775,28.5606411 182.16,28.5606411 C184.148225,28.5606411 185.76,30.1828123 185.76,32.1838619 L185.76,43.0535245 C185.76,45.0545741 187.371775,46.6767453 189.36,46.6767453 C191.348225,46.6767453 192.96,45.0545741 192.96,43.0535245 C192.96,41.0524748 194.571775,39.4303036 196.56,39.4303036 C198.091677,39.4303036 199.92,37.8081324 199.92,35.8070828 L199.92,32.1838619 C199.92,30.1828123 201.531775,28.5606411 203.52,28.5606411 C205.508225,28.5606411 207.12,30.1828123 207.12,32.1838619 C207.12,34.1849115 208.731775,35.8070828 210.72,35.8070828 C212.708225,35.8070828 214.32,34.1849115 214.32,32.1838619 C214.32,30.1828123 215.931775,28.5606411 217.92,28.5606411 C219.451677,28.5606411 221.28,26.9384699 221.28,24.9374202 C221.28,22.9363706 222.891775,21.3141994 224.88,21.3141994 C226.868225,21.3141994 228.48,22.9363706 228.48,24.9374202 C228.48,26.9384699 230.091775,28.5606411 232.08,28.5606411 C234.068225,28.5606411 235.68,30.1828123 235.68,32.1838619 L235.68,39.4303055 C235.68,41.4313532 237.291775,43.0535245 239.28,43.0535245 C241.268225,43.0535245 242.88,41.4313532 242.88,39.4303036 C242.88,37.429254 244.491775,35.8070828 246.48,35.8070828 C248.011677,35.8070828 249.84,34.1849115 249.84,32.1838619 C249.84,30.1828123 251.451775,28.5606411 253.44,28.5606411 C254.434113,28.5606411 255.334113,28.9661839 255.985584,29.6218579 C256.637056,30.2775319 257.04,31.1833371 257.04,32.1838619 C257.04,34.1849115 258.651775,35.8070828 260.64,35.8070828 C262.628225,35.8070828 264.24,34.1849115 264.24,32.1838619 C264.24,30.1828123 265.851775,28.5606411 267.84,28.5606411 C269.371677,28.5606411 271.2,26.9384699 271.2,24.9374202 C271.2,22.9363706 272.811775,21.3141994 274.8,21.3141994 C276.788225,21.3141994 278.4,22.9363706 278.4,24.9374202 C278.4,26.9384699 280.011775,28.5606411 282,28.5606411 C283.988225,28.5606411 285.6,30.1828123 285.6,32.1838619 C285.6,34.1849115 287.211775,35.8070828 289.2,35.8070828 C291.188225,35.8070828 292.8,34.1849115 292.8,32.1838619 C292.8,30.1828123 294.411775,28.5606411 296.4,28.5606411 C298.388225,28.5606411 300,30.1828123 300,32.1838619 L300,83 L9.09494702e-13,83 L9.09494702e-13,25.9149797 C9.09494702e-13,23.9139301 1.6117749,22.2917589 3.6,22.2917589 C5.5882251,22.2917589 7.2,23.9139301 7.2,25.9149797 C7.2,27.9160294 8.8117749,29.5382006 10.8,29.5382006 C12.7882251,29.5382006 14.4,27.9160294 14.4,25.9149797 C14.4,23.9139301 16.0117749,22.2917589 18,22.2917589 C19.5316774,22.2917589 21.36,20.6695877 21.36,18.6685381 C21.36,16.6674884 22.9717749,15.0453172 24.96,15.0453172 C26.9482251,15.0453172 28.56,16.6674884 28.56,18.6685381 C28.56,20.6695877 30.1717749,22.2917589 32.16,22.2917589 C34.1482251,22.2917589 35.76,23.9139301 35.76,25.9149797 L35.76,36.7846423 C35.76,38.7856919 37.3717749,40.4078631 39.36,40.4078631 C41.3482251,40.4078631 42.96,38.7856919 42.96,36.7846423 C42.96,34.7835927 44.5717749,33.1614214 46.56,33.1614214 C48.0916774,33.1614214 49.92,31.5392502 49.92,29.5382006 L49.92,25.9149797 C49.92,23.9139301 51.5317749,22.2917589 53.52,22.2917589 C55.5082251,22.2917589 57.12,23.9139301 57.12,25.9149797 C57.12,27.9160294 58.7317749,29.5382006 60.72,29.5382006 C62.7082251,29.5382006 64.32,27.9160294 64.32,25.9149797 C64.32,23.9139301 65.9317749,22.2917589 67.92,22.2917589 C69.4516774,22.2917589 71.28,20.6695877 71.28,18.6685381 C71.28,16.6674884 72.8917749,15.0453172 74.88,15.0453172 C76.8682251,15.0453172 78.48,16.6674884 78.48,18.6685381 C78.48,20.6695877 80.0917749,22.2917589 82.08,22.2917589 C84.0682251,22.2917589 85.68,23.9139301 85.68,25.9149797 L85.68,33.1614233 C85.68,35.162471 87.2917749,36.7846423 89.28,36.7846423 C91.2682251,36.7846423 92.88,35.162471 92.88,33.1614214 C92.88,31.1603718 94.4917749,29.5382006 96.48,29.5382006 C98.0116774,29.5382006 99.84,27.9160294 99.84,25.9149797 C99.84,23.9139301 101.451775,22.2917589 103.44,22.2917589 C104.434113,22.2917589 105.334113,22.6973017 105.985584,23.3529757 C106.637056,24.0086497 107.04,24.9144549 107.04,25.9149797 C107.04,27.9160294 108.651775,29.5382006 110.64,29.5382006 C112.628225,29.5382006 114.24,27.9160294 114.24,25.9149797 C114.24,23.9139301 115.851775,22.2917589 117.84,22.2917589 C119.371677,22.2917589 121.2,20.6695877 121.2,18.6685381 C121.2,16.6674884 122.811775,15.0453172 124.8,15.0453172 C126.788225,15.0453172 128.4,16.6674884 128.4,18.6685381 C128.4,20.6695877 130.011775,22.2917589 132,22.2917589 C133.988225,22.2917589 135.6,23.9139301 135.6,25.9149797 C135.6,27.9160294 137.211775,29.5382006 139.2,29.5382006 C141.188225,29.5382006 142.8,27.9160294 142.8,25.9149797 C142.8,23.9139301 144.411775,22.2917589 146.4,22.2917589 C148.388225,22.2917589 150,23.9139301 150,25.9149797 C150,28.0845921 151.611775,28.5606411 153.6,28.5606411 Z" opacity=".6"/><path d="M271.2,51.7436923 C271.2,55.7299102 274.42355,58.9613783 278.4,58.9613783 C282.37645,58.9613783 285.6,55.7299102 285.6,51.7436923 C285.6,47.7574744 288.82355,44.5260064 292.8,44.5260064 C296.77645,44.5260064 300,47.7574744 300,51.7436923 C300,72.5812308 300,83 300,83 L9.09494702e-13,83 C9.09494702e-13,83 9.09494702e-13,72.5812308 9.09494702e-13,51.7436923 C9.09494702e-13,47.7574744 3.2235498,44.5260064 7.2,44.5260064 C11.1764502,44.5260064 14.4,47.7574744 14.4,51.7436923 C14.4,55.7299102 17.6235498,58.9613783 21.6,58.9613783 C25.5764502,58.9613783 28.8,55.7299102 28.8,51.7436923 C28.8,47.7574744 32.0235498,44.5260064 36,44.5260064 C39.0633548,44.5260064 42.72,41.2945383 42.72,37.3083204 C42.72,33.3221025 45.9435498,30.0906344 49.92,30.0906344 C53.8964502,30.0906344 57.12,33.3221025 57.12,37.3083204 C57.12,41.2945383 60.3435498,44.5260064 64.32,44.5260064 C68.2964502,44.5260064 71.52,47.7574744 71.52,51.7436923 L71.52,73.3967502 C71.52,77.3829681 74.7435498,80.6144362 78.72,80.6144362 C82.6964502,80.6144362 85.92,77.3829681 85.92,73.3967502 C85.92,69.4105323 89.1435498,66.1790643 93.12,66.1790643 C96.1833548,66.1790643 99.84,62.9475962 99.84,58.9613783 L99.84,51.7436923 C99.84,47.7574744 103.06355,44.5260064 107.04,44.5260064 C111.01645,44.5260064 114.24,47.7574744 114.24,51.7436923 C114.24,55.7299102 117.46355,58.9613783 121.44,58.9613783 C125.41645,58.9613783 128.64,55.7299102 128.64,51.7436923 C128.64,47.7574744 131.86355,44.5260064 135.84,44.5260064 C138.903355,44.5260064 142.56,41.2945383 142.56,37.3083204 C142.56,33.3221025 145.78355,30.0906344 149.76,30.0906344 C153.73645,30.0906344 156.96,33.3221025 156.96,37.3083204 C156.96,41.2945383 160.18355,44.5260064 164.16,44.5260064 C168.13645,44.5260064 171.36,47.7574744 171.36,51.7436923 L171.36,66.179068 C171.36,70.1652821 174.58355,73.3967502 178.56,73.3967502 C182.53645,73.3967502 185.76,70.1652821 185.76,66.1790643 C185.76,62.1928464 188.98355,58.9613783 192.96,58.9613783 C196.023355,58.9613783 199.68,55.7299102 199.68,51.7436923 C199.68,47.7574744 202.90355,44.5260064 206.88,44.5260064 C208.868225,44.5260064 210.668225,45.3338734 211.971169,46.6400176 C213.274113,47.9461619 214.08,49.7505834 214.08,51.7436923 C214.08,55.7299102 217.30355,58.9613783 221.28,58.9613783 C225.25645,58.9613783 228.48,55.7299102 228.48,51.7436923 C228.48,47.7574744 231.70355,44.5260064 235.68,44.5260064 C238.743355,44.5260064 242.4,41.2945383 242.4,37.3083204 C242.4,33.3221025 245.62355,30.0906344 249.6,30.0906344 C253.57645,30.0906344 256.8,33.3221025 256.8,37.3083204 C256.8,41.2945383 260.02355,44.5260064 264,44.5260064 C267.97645,44.5260064 271.2,47.7574744 271.2,51.7436923 Z"/></g></g></svg>