<svg xmlns="http://www.w3.org/2000/svg" width="300" height="200" viewBox="0 0 300 200"><g fill="none" fill-rule="evenodd"><rect width="300" height="200" fill="#D4D4D8"/><rect width="300" height="81" y="119" fill="#FFF"/><g fill="#FFF" transform="translate(0 81)"><path d="M300,27.0409422 L300,39 L0,39 L0,7.14539315 C0.330523606,7.12404842 0.663971434,7.11320755 1,7.11320755 C4.64088234,7.11320755 7.97879377,8.38590541 10.5767891,10.5026002 C12.0484641,9.3049142 13.9385314,8.58490566 16,8.58490566 C17.272859,8.58490566 18.4803722,8.85940748 19.5643966,9.35136576 C21.4231168,5.97395704 25.0634253,3.67924528 29.2499993,3.67924528 C31.5147998,3.67924528 33.619738,4.35078315 35.3692476,5.50198252 C36.8917431,4.95744606 38.5355119,4.66037736 40.2499991,4.66037736 C42.9033343,4.66037736 45.387295,5.3718737 47.5144964,6.61101564 C50.8089882,4.15550535 54.9185243,2.69811321 59.3749986,2.69811321 C65.8000125,2.69811321 71.5038899,5.72740948 75.083842,10.4096807 C76.3951015,10.1777116 77.7456347,10.0566038 79.1249982,10.0566038 C83.4265733,10.0566038 87.4477695,11.2343988 90.871855,13.2792322 C92.7857758,11.2946924 95.4955207,10.0566038 98.5,10.0566038 C98.7324655,10.0566038 98.9631689,10.0640158 99.1918757,10.0786123 C101.087571,4.2339412 106.664831,0 113.249997,0 C117.661324,0 121.620352,1.89998313 124.323347,4.9113783 C128.100702,2.13507333 132.792109,0.490566038 137.874997,0.490566038 C144.106436,0.490566038 149.749484,2.96224171 153.841246,6.96086897 C156.115775,5.50591338 158.832244,4.66037736 161.749996,4.66037736 C164.799683,4.66037736 167.629472,5.58410896 169.964561,7.16195547 C174.087104,2.9017077 179.914863,0.245283019 186.374996,0.245283019 C194.261229,0.245283019 201.205074,4.20399506 205.254796,10.206508 C207.953367,7.97047008 211.441253,6.62264151 215.249995,6.62264151 C219.782135,6.62264151 223.859964,8.53108059 226.694192,11.5735618 C230.534611,8.62526008 235.370632,6.86792453 240.624994,6.86792453 C241.967079,6.86792453 243.28187,6.9825746 244.55975,7.20243686 C246.756779,4.45973063 250.168706,2.69811321 254,2.69811321 C258.205447,2.69811321 261.90563,4.82061259 264.048425,8.03334205 C266.135621,7.12642866 268.445343,6.62264151 270.874994,6.62264151 C273.69669,6.62264151 276.356632,7.30212669 278.694115,8.50342187 C281.895901,6.09303742 285.902422,4.66037736 290.249993,4.66037736 C293.814422,4.66037736 297.149603,5.6233846 300,7.2986845 L300,27.0409422 L300,27.0409422 Z" opacity=".3"/><path d="M0,39 L0,10.9762554 C3.8141316,11.0872054 7.30835092,12.46335 10.0711635,14.6963844 C11.9460534,12.8522498 14.5264653,11.7131783 17.375,11.7131783 C19.3744139,11.7131783 21.2417299,12.2743727 22.8256887,13.2466751 C26.5146999,9.39865897 31.7250431,7 37.5,7 C43.8854706,7 49.5806383,9.93262706 53.2921468,14.514551 C53.8132512,14.4664504 54.3412315,14.4418605 54.875,14.4418605 C58.2468976,14.4418605 61.3878102,15.4231587 64.0235013,17.1136447 C66.7011525,14.5385323 70.3515267,12.9534884 74.375,12.9534884 C82.2965027,12.9534884 88.7717763,19.097531 89.2246919,26.8449612 L93.34747,26.8449612 C92.9605398,25.7587213 92.75,24.5898036 92.75,23.372093 C92.75,17.6180566 97.4510101,12.9534884 103.25,12.9534884 C104.925816,12.9534884 106.509939,13.3430352 107.915412,14.0358487 C112.025305,9.84860185 117.769086,7.24806202 124.125,7.24806202 C131.057611,7.24806202 137.261967,10.3419256 141.41219,15.2140552 C145.704859,15.4784567 149.491696,17.5961142 151.969819,20.770369 C155.505389,12.9461713 163.423759,7.49612403 172.625,7.49612403 C180.850602,7.49612403 188.050963,11.8516723 192.011382,18.3652347 C194.134338,16.3933259 196.98758,15.1860465 200.125,15.1860465 C206.117623,15.1860465 211.073483,19.5905433 211.883923,25.3149763 C213.9228,18.0423696 220.645776,12.7054264 228.625,12.7054264 C231.056745,12.7054264 233.371811,13.2011129 235.473171,14.0962109 C239.072609,9.76272982 244.523649,7 250.625,7 C255.357503,7 259.698758,8.66214199 263.088181,11.4301849 C265.215683,10.040921 267.762702,9.23255814 270.5,9.23255814 C275.964209,9.23255814 280.67019,12.4537519 282.794451,17.0867833 C284.545982,16.4977257 286.422896,16.1782946 288.375,16.1782946 C288.698046,16.1782946 289.019034,16.1870424 289.337734,16.2043124 C291.408331,12.1140064 295.323463,9.10159929 300,8.24182233 L300,39 L0,39 Z" opacity=".6"/><path d="M300,14 L300,39 L0,39 L0,14.8857278 C5.56155956,16.2971729 10.4793088,19.3226755 14.2253853,23.434373 C17.523739,18.3576098 23.2447636,15 29.75,15 C37.6543602,15 44.4009015,19.9572122 47.0503085,26.9323211 C48.1953879,26.6498496 49.3926943,26.5 50.625,26.5 C52.8056261,26.5 54.8766589,26.9692251 56.7426387,27.8122158 C58.0922276,23.5717783 62.0623877,20.5 66.75,20.5 C67.9712193,20.5 69.1437444,20.7084845 70.2339249,21.091803 C73.833063,16.9030511 79.1692049,14.25 85.125,14.25 C91.7785242,14.25 97.6587043,17.5610794 101.207691,22.6253893 C102.265427,22.3798206 103.367553,22.25 104.5,22.25 C109.531059,22.25 113.963666,24.8122803 116.564057,28.7030779 C118.341638,27.3222073 120.574801,26.5 123,26.5 C125.281503,26.5 127.393052,27.22766 129.115227,28.4635613 C132.453332,20.1333634 140.6021,14.25 150.125,14.25 C160.065595,14.25 168.508868,20.6607954 171.545966,29.5735328 C171.982278,29.5249497 172.425725,29.5 172.875,29.5 C174.630494,29.5 176.297018,29.8809262 177.796423,30.5646302 C180.850084,25.5775471 186.348947,22.25 192.625,22.25 C194.519251,22.25 196.342703,22.553128 198.049493,23.113522 C201.53087,17.6352119 207.653411,14 214.625,14 C219.69764,14 224.320771,15.9245719 227.804041,19.0833613 C228.403626,19.0281951 229.01102,19 229.625,19 C235.726351,19 241.177391,21.7843136 244.776829,26.15165 C246.878189,25.2495591 249.193255,24.75 251.625,24.75 C251.98013,24.75 252.332771,24.7606543 252.682622,24.7816607 C254.802182,19.070033 260.300787,15 266.75,15 C273.165074,15 278.639579,19.0270584 280.783436,24.6910974 C282.428373,23.6214207 284.391616,23 286.5,23 C287.553608,23 288.570971,23.1551831 289.530479,23.4439397 C289.883604,18.7923963 293.267484,14.9877179 297.712024,14 L300,14 Z"/></g></g></svg>