<svg xmlns="http://www.w3.org/2000/svg" width="300" height="200" viewBox="0 0 300 200"><g fill="none" fill-rule="evenodd"><rect width="300" height="200" fill="#D4D4D8"/><rect width="300" height="40" y="160" fill="#FFF"/><g transform="translate(0 35)"><polygon fill="#FFF" points="205.688 18.884 300 0 300 49.83 205.688 68.67" opacity=".3"/><path fill="#FFF" d="M43.5002561,84.4287699 L43.5002561,67.6974063 L0,76.0518732 L0,93.1053435 L43.5002561,84.4287699 Z M43.1248125,68.1469741 L43.1248125,84.5056196 L0,93.1036023 L0,76.426513 L43.1248125,68.1469741 Z" opacity=".604"/><polygon fill="#FFF" points="0 109.769 300 49.827 300 130 0 130"/><g transform="translate(0 49.83)"><polygon fill="#FFF" points="87.319 25.821 87.375 42.519 71.812 45.621 71.813 62.322 0 77.068 0 76.645 71.437 62.015 71.437 45.696 0 59.939 0 43.268" opacity=".6"/><polygon fill="#D4D4D8" points="256.313 8.72 300 0 300 16.575 256.313 25.285"/></g></g></g></svg>