<svg xmlns="http://www.w3.org/2000/svg" width="300" height="200" viewBox="0 0 300 200"><g fill="none" fill-rule="evenodd"><rect width="300" height="200" fill="#D4D4D8"/><rect width="300" height="31" y="169" fill="#FFF"/><g fill="#FFF" transform="translate(0 30)"><path d="M300,0.035076311 L300,140 L0,140 L0,0.0894671928 L140.205679,116.909603 C144.060958,120.121842 145.744147,120.950391 147.751393,121.493096 C149.758639,122.0358 151.775226,122.030437 153.779567,121.477064 C155.783909,120.923691 157.462683,120.086202 161.300883,116.853503 L300,0.035076311 Z" opacity=".3"/><path d="M300,7.54849313 L300,140 L0,140 L0,7.60288401 L140.205679,124.42302 C144.060958,127.635259 145.744147,128.463808 147.751393,129.006512 C149.758639,129.549217 151.775226,129.543854 153.779567,128.990481 C155.783909,128.437108 157.462683,127.599618 161.300883,124.36692 L300,7.54849313 Z" opacity=".6"/><path d="M300,15.0619099 L300,140 L0,140 L0,15.1163008 L140.205679,131.936437 C144.060958,135.148676 145.744147,135.977224 147.751393,136.519929 C149.758639,137.062634 151.775226,137.057271 153.779567,136.503898 C155.783909,135.950525 157.462683,135.113035 161.300883,131.880337 L300,15.0619099 Z"/></g></g></svg>