<svg xmlns="http://www.w3.org/2000/svg" width="300" height="200" viewBox="0 0 300 200"><g fill="none" fill-rule="evenodd"><rect width="300" height="200" fill="#D4D4D8"/><rect width="300" height="86" y="114" fill="#FFF"/><g fill="#FFF" transform="translate(0 85)"><path d="M30,0 L270,0 C281.045695,-2.02906125e-15 290,8.954305 290,20 L290,20 L290,20 L10,20 C10,8.954305 18.954305,2.02906125e-15 30,0 Z" opacity=".301"/><path d="M25,5 L275,5 C286.045695,5 295,13.954305 295,25 L295,25 L295,25 L5,25 C5,13.954305 13.954305,5 25,5 Z" opacity=".597"/><path d="M20,10 L280,10 C291.045695,10 300,18.954305 300,30 L300,30 L300,30 L0,30 C-1.3527075e-15,18.954305 8.954305,10 20,10 Z"/></g></g></svg>