<svg xmlns="http://www.w3.org/2000/svg" width="300" height="200" viewBox="0 0 300 200"><g fill="none" fill-rule="evenodd"><rect width="300" height="200" fill="#D4D4D8"/><rect width="300" height="82" y="118" fill="#FFF"/><g fill="#FFF" transform="translate(0 81)"><path d="M0,38 L0,20 C50,28.5714286 100,32.8571429 150,32.8571429 C200,32.8571429 250,28.5714286 300,20 L300,38 L0,38 Z"/><path d="M0,38 L0,10 C50,18.5714286 100,22.8571429 150,22.8571429 C200,22.8571429 250,18.5714286 300,10 L300,38 L0,38 Z" opacity=".6"/><path d="M0,38 L0,-2.48689958e-14 C50,8.57142857 100,12.8571429 150,12.8571429 C200,12.8571429 250,8.57142857 300,-2.48689958e-14 L300,38 L0,38 Z" opacity=".3"/></g></g></svg>