<svg xmlns="http://www.w3.org/2000/svg" width="300" height="200" viewBox="0 0 300 200"><g fill="none" fill-rule="evenodd"><rect width="300" height="200" fill="#D4D4D8"/><rect width="300" height="87" y="113" fill="#FFF"/><g fill="#FFF" transform="translate(0 86)"><path d="M0,13 C50.1666667,4.66666667 150.166667,0.5 300,0.5 C300,10.3333333 300,19.5 300,28 L0,28 L0,13 Z" opacity=".3"/><path d="M0,20.5 C100.166667,5.47740113 200.166667,-1.20056497 300,0.466101695 C300,10.3220339 300,19.5 300,28 L0,28 L0,20.5 Z" opacity=".6"/><path d="M0,28 C100.166667,9 200.166667,-0.166666667 300,0.5 C300,10.3333333 300,19.5 300,28 L0,28 Z"/></g></g></svg>