<svg xmlns="http://www.w3.org/2000/svg" width="300" height="200" viewBox="0 0 300 200"><g fill="none" fill-rule="evenodd"><rect width="300" height="200" fill="#D4D4D8"/><g fill="#FFF" transform="translate(0 49)"><path d="M0,74.3078199 C20.1666667,62.242212 39.8333332,56.2094078 59,56.2094078 C105.25,56.2094078 131.25,77.3140766 167.5,59.4756067 C197.220387,44.8503313 235.210919,-3.67169947 300,0.221518003 C300,6.5837315 300,41.5098922 300,105 L0,104.946901 L0,74.3078199 Z" opacity=".3"/><path d="M0,84.7386529 C20.1666667,69.2657062 39.8333332,61.5292327 59,61.5292327 C105.25,61.5292327 131.25,82.4906772 167.5,64.7732659 C197.247684,50.2339016 235.189701,5.2430264 300,10.41114 C300,16.5638867 300,48.0935068 300,105 L0,104.947261 L0,84.7386529 Z" opacity=".6"/><path d="M0,94.6600037 C20.1666667,75.7587419 39.8333332,66.3081112 59,66.3081112 C105.25,66.3081112 131.25,87.3838543 167.5,69.5698334 C197.263097,54.9436146 235.128064,13.2043799 300,19.6764018 C300,28.5378533 300,56.9790527 300,105 L0,104.946973 L0,94.6600037 Z"/></g><rect width="300" height="47" y="153" fill="#FFF"/></g></svg>