<svg xmlns="http://www.w3.org/2000/svg" width="300" height="200" viewBox="0 0 300 200"><g fill="none" fill-rule="evenodd"><rect width="300" height="200" fill="#D4D4D8"/><rect width="300" height="37" y="163" fill="#FFF"/><g fill="#FFF" transform="translate(0 37)"><path d="M300,0 L300,126 L0,126 L0,0.0548531765 L140.205679,117.867901 C144.060958,121.107442 145.744147,121.943033 147.751393,122.49035 C149.758639,123.037668 151.775226,123.032259 153.779567,122.474183 C155.783909,121.916106 157.462683,121.071499 161.300883,117.811324 L300,0 Z" opacity=".3"/><path d="M300,20 L300,126 L0,126 L0,20 L140.205679,117.874177 C144.060958,121.111218 145.744147,121.946164 147.751393,122.493059 C149.758639,123.039954 151.775226,123.03455 153.779567,122.476904 C155.783909,121.919258 157.462683,121.075303 161.300883,117.817644 L300,20 Z" opacity=".6"/><path d="M300,40 L300,126 L0,126 L0,40 L140.205679,117.85614 C144.060958,121.100366 145.744147,121.937166 147.751393,122.485275 C149.758639,123.033384 151.775226,123.027967 153.779567,122.469084 C155.783909,121.9102 157.462683,121.064371 161.300883,117.799481 L300,40 Z"/></g></g></svg>