<svg xmlns="http://www.w3.org/2000/svg" width="300" height="200" viewBox="0 0 300 200"><g fill="none" fill-rule="evenodd"><rect width="300" height="200" fill="#D4D4D8"/><rect width="300" height="48" y="152" fill="#FFF"/><g fill="#FFF" transform="translate(-2 48)"><path d="M0,74.0285943 C20.4355556,68.6112122 40.3644444,65.9025212 59.7866667,65.9025212 C106.653333,65.9025212 133,87.199192 169.733333,69.1984345 C199.849599,54.440297 238.348632,-1.44378913 304,0.028558272 C304,8.30710112 304,43.2975817 304,105 L0,104.946418 L0,74.0285943 Z" opacity=".3"/><path d="M0,84.1304339 C20.4355556,71.9345154 40.3644444,65.8365562 59.7866667,65.8365562 C106.653333,65.8365562 133,87.1691586 169.733333,69.1380304 C199.901201,54.329663 238.231378,5.12455984 304,9.24398841 C304,13.8133308 304,45.7320014 304,105 L0,104.946327 L0,84.1304339 Z" opacity=".6"/><path d="M0,94.5404733 C20.4355556,75.420713 40.3644444,65.8608329 59.7866667,65.8608329 C106.653333,65.8608329 133,87.1802116 169.733333,69.1602606 C199.902338,54.3605152 238.226831,12.111872 304,18.6900608 C304,37.4634907 304,66.2334704 304,105 L0,104.94636 L0,94.5404733 Z"/></g></g></svg>