<svg xmlns="http://www.w3.org/2000/svg" width="300" height="200" viewBox="0 0 300 200"><g fill="none" fill-rule="evenodd"><rect width="300" height="200" fill="#D4D4D8"/><rect width="300" height="86" y="114" fill="#FFF"/><g fill="#FFF" transform="translate(0 83)"><path d="M172.357352,34 C170.714704,34 168.808584,32.8281474 167.717213,31.7204876 L153.302537,17.090667 C152.120539,15.8910272 151.568847,15.5809162 150.905626,15.3768959 C150.242404,15.1728755 149.564143,15.1728755 148.900921,15.3768959 C148.237699,15.5809162 147.686008,15.8910272 146.50401,17.090667 L132.089334,31.7204876 C130.997963,32.8281474 129.14839,34 127.449195,34 L4.46319169,34 C3.20450572,34 2.52952542,33.8233542 1.91841431,33.4916505 C1.30730319,33.1599467 0.827699618,32.6731848 0.50087382,32.0529526 C0.174048021,31.4327205 0,30.7476658 0,29.4701935 L0,0 L300,0 L300,29.4701935 C300,30.7476658 299.825952,31.4327205 299.499126,32.0529526 C299.1723,32.6731848 298.692697,33.1599467 298.081586,33.4916505 C297.470475,33.8233542 296.795494,34 295.536808,34 L171.580514,34 L172.357352,34 Z" opacity=".3" transform="matrix(1 0 0 -1 0 34)"/><path d="M172.357352,34 C170.714704,34 168.808584,32.8281474 167.717213,31.7204876 L153.302537,17.090667 C152.120539,15.8910272 151.568847,15.5809162 150.905626,15.3768959 C150.242404,15.1728755 149.564143,15.1728755 148.900921,15.3768959 C148.237699,15.5809162 147.686008,15.8910272 146.50401,17.090667 L132.089334,31.7204876 C130.997963,32.8281474 129.14839,34 127.449195,34 L4.46319169,34 C3.20450572,34 2.52952542,33.8233542 1.91841431,33.4916505 C1.30730319,33.1599467 0.827699618,32.6731848 0.50087382,32.0529526 C0.174048021,31.4327205 0,30.7476658 0,29.4701935 L0,5.07462687 L300,5.07462687 L300,29.4701935 C300,30.7476658 299.825952,31.4327205 299.499126,32.0529526 C299.1723,32.6731848 298.692697,33.1599467 298.081586,33.4916505 C297.470475,33.8233542 296.795494,34 295.536808,34 L171.580514,34 L172.357352,34 Z" opacity=".6" transform="matrix(1 0 0 -1 0 39.075)"/><path d="M172.357352,34 C170.714704,34 168.808584,32.8281474 167.717213,31.7204876 L153.302537,17.090667 C152.120539,15.8910272 151.568847,15.5809162 150.905626,15.3768959 C150.242404,15.1728755 149.564143,15.1728755 148.900921,15.3768959 C148.237699,15.5809162 147.686008,15.8910272 146.50401,17.090667 L132.089334,31.7204876 C130.997963,32.8281474 129.14839,34 127.449195,34 L4.46319169,34 C3.20450572,34 2.52952542,33.8233542 1.91841431,33.4916505 C1.30730319,33.1599467 0.827699618,32.6731848 0.50087382,32.0529526 C0.174048021,31.4327205 0,30.7476658 0,29.4701935 L0,10.1492537 L300,10.1492537 L300,29.4701935 C300,30.7476658 299.825952,31.4327205 299.499126,32.0529526 C299.1723,32.6731848 298.692697,33.1599467 298.081586,33.4916505 C297.470475,33.8233542 296.795494,34 295.536808,34 L171.580514,34 L172.357352,34 Z" transform="matrix(1 0 0 -1 0 44.15)"/></g></g></svg>