<svg xmlns="http://www.w3.org/2000/svg" width="300" height="200" viewBox="0 0 300 200"><g fill="none" fill-rule="evenodd"><rect width="300" height="200" fill="#D4D4D8"/><rect width="300" height="73" y="127" fill="#FFF"/><g fill="#FFF" transform="translate(0 73)"><path d="M23.8437406,0.992278636 L276.58262,28.319877 C280.458673,28.7389784 282.51734,29.4574435 284.354232,30.6138282 C286.191123,31.770213 287.602565,33.3424952 288.554784,35.2930524 C289.507004,37.2436097 290,39.3675821 290,43.2662264 L290,44.9082569 L290,44.9082569 L10,44.9082569 L10,13.4198432 C10,6.51628384 15.5964406,0.919843209 22.5,0.919843209 C22.9488892,0.919843209 23.3974526,0.944023381 23.8437406,0.992278636 Z" opacity=".301"/><path d="M18.7979131,8.50468564 L282.5158,36.0361322 C285.223342,36.3187924 287.485348,37.0534831 289.329101,38.2079524 C291.172853,39.3624218 292.590578,40.9358581 293.547365,42.8895168 C294.504152,44.8431756 295,47.1692405 295,49.8914968 L295,49.9541284 L295,49.9541284 L5,49.9541284 L5,20.9371199 C5,14.0335605 10.5964406,8.4371199 17.5,8.4371199 C17.9335166,8.4371199 18.3667397,8.45967229 18.7979131,8.50468564 Z" opacity=".597"/><path d="M13.7550929,16.0211562 L289.959256,43.8949708 C295.66062,44.4703378 300,49.2696774 300,55 L300,55 L300,55 L0,55 L-3.55271368e-15,28.4579862 C-4.39815587e-15,21.5544268 5.59644063,15.9579862 12.5,15.9579862 C12.9191588,15.9579862 13.3380524,15.9790695 13.7550929,16.0211562 Z"/></g></g></svg>