<svg xmlns="http://www.w3.org/2000/svg" width="300" height="200" viewBox="0 0 300 200"><g fill="none" fill-rule="evenodd"><rect width="300" height="200" fill="#D4D4D8"/><rect width="300" height="79" y="121" fill="#FFF"/><g fill="#FFF" transform="translate(0 79)"><path d="M243.845304,23.1628473 L262.893512,3.89054307 C265.364593,1.3903908 266.517957,0.744092937 267.904486,0.318896973 C269.291014,-0.106298991 270.708986,-0.106298991 272.095514,0.318896973 C273.482043,0.744092937 274.635407,1.3903908 277.106488,3.89054307 L296.154696,23.1628473 C298.625777,25.6629996 299.369622,26.6184884 299.684811,28.2327736 C300,29.8470588 300,39.9647059 300,43 C298.5,43 1,43 0,43 C0,39.9647059 0,29.8470588 0.315188869,28.2327736 C0.630377737,26.6184884 1.37422347,25.6629996 3.8453042,23.1628473 L22.8935119,3.89054307 C25.3645926,1.3903908 26.517957,0.744092937 27.9044856,0.318896973 C29.2910141,-0.106298991 30.7089859,-0.106298991 32.0955144,0.318896973 C33.482043,0.744092937 34.6354074,1.3903908 37.1064881,3.89054307 L56.1546958,23.1628473 C58.6257765,25.6629996 61.3742235,25.6629996 63.8453042,23.1628473 L82.8935119,3.89054307 C85.3645926,1.3903908 86.517957,0.744092937 87.9044856,0.318896973 C89.2910141,-0.106298991 90.7089859,-0.106298991 92.0955144,0.318896973 C93.482043,0.744092937 94.6354074,1.3903908 97.1064881,3.89054307 L116.154696,23.1628473 C118.625777,25.6629996 121.374223,25.6629996 123.845304,23.1628473 L142.893512,3.89054307 C145.364593,1.3903908 146.517957,0.744092937 147.904486,0.318896973 C149.291014,-0.106298991 150.708986,-0.106298991 152.095514,0.318896973 C153.482043,0.744092937 154.635407,1.3903908 157.106488,3.89054307 L176.154696,23.1628473 C178.625777,25.6629996 181.374223,25.6629996 183.845304,23.1628473 L202.893512,3.89054307 C205.364593,1.3903908 206.517957,0.744092937 207.904486,0.318896973 C209.291014,-0.106298991 210.708986,-0.106298991 212.095514,0.318896973 C213.482043,0.744092937 214.635407,1.3903908 217.106488,3.89054307 L236.154696,23.1628473 C238.625777,25.6629996 241.374223,25.6629996 243.845304,23.1628473 Z" opacity=".3"/><path d="M243.845304,28.2216709 L262.893512,8.9493666 C265.364593,6.44921433 266.517957,5.80291647 267.904486,5.3777205 C269.291014,4.95252454 270.708986,4.95252454 272.095514,5.3777205 C273.482043,5.80291647 274.635407,6.44921433 277.106488,8.9493666 L296.154696,28.2216709 C298.625777,30.7218231 299.369622,31.677312 299.684811,33.2915972 C300,34.9058824 300,39.9647059 300,43 C298.5,43 1,43 0,43 C0,39.9647059 0,34.9058824 0.315188869,33.2915972 C0.630377737,31.677312 1.37422347,30.7218231 3.8453042,28.2216709 L22.8935119,8.9493666 C25.3645926,6.44921433 26.517957,5.80291647 27.9044856,5.3777205 C29.2910141,4.95252454 30.7089859,4.95252454 32.0955144,5.3777205 C33.482043,5.80291647 34.6354074,6.44921433 37.1064881,8.9493666 L56.1546958,28.2216709 C58.6257765,30.7218231 61.3742235,30.7218231 63.8453042,28.2216709 L82.8935119,8.9493666 C85.3645926,6.44921433 86.517957,5.80291647 87.9044856,5.3777205 C89.2910141,4.95252454 90.7089859,4.95252454 92.0955144,5.3777205 C93.482043,5.80291647 94.6354074,6.44921433 97.1064881,8.9493666 L116.154696,28.2216709 C118.625777,30.7218231 121.374223,30.7218231 123.845304,28.2216709 L142.893512,8.9493666 C145.364593,6.44921433 146.517957,5.80291647 147.904486,5.3777205 C149.291014,4.95252454 150.708986,4.95252454 152.095514,5.3777205 C153.482043,5.80291647 154.635407,6.44921433 157.106488,8.9493666 L176.154696,28.2216709 C178.625777,30.7218231 181.374223,30.7218231 183.845304,28.2216709 L202.893512,8.9493666 C205.364593,6.44921433 206.517957,5.80291647 207.904486,5.3777205 C209.291014,4.95252454 210.708986,4.95252454 212.095514,5.3777205 C213.482043,5.80291647 214.635407,6.44921433 217.106488,8.9493666 L236.154696,28.2216709 C238.625777,30.7218231 241.374223,30.7218231 243.845304,28.2216709 Z" opacity=".6"/><path d="M243.845304,33.2804944 L262.893512,14.0081901 C265.364593,11.5080379 266.517957,10.86174 267.904486,10.436544 C269.291014,10.0113481 270.708986,10.0113481 272.095514,10.436544 C273.482043,10.86174 274.635407,11.5080379 277.106488,14.0081901 L296.154696,33.2804944 C298.625777,35.7806467 299.369622,36.7361355 299.684811,38.3504207 C300,39.9647059 300,39.9647059 300,43 C298.5,43 1,43 0,43 C0,39.9647059 0,39.9647059 0.315188869,38.3504207 C0.630377737,36.7361355 1.37422347,35.7806467 3.8453042,33.2804944 L22.8935119,14.0081901 C25.3645926,11.5080379 26.517957,10.86174 27.9044856,10.436544 C29.2910141,10.0113481 30.7089859,10.0113481 32.0955144,10.436544 C33.482043,10.86174 34.6354074,11.5080379 37.1064881,14.0081901 L56.1546958,33.2804944 C58.6257765,35.7806467 61.3742235,35.7806467 63.8453042,33.2804944 L82.8935119,14.0081901 C85.3645926,11.5080379 86.517957,10.86174 87.9044856,10.436544 C89.2910141,10.0113481 90.7089859,10.0113481 92.0955144,10.436544 C93.482043,10.86174 94.6354074,11.5080379 97.1064881,14.0081901 L116.154696,33.2804944 C118.625777,35.7806467 121.374223,35.7806467 123.845304,33.2804944 L142.893512,14.0081901 C145.364593,11.5080379 146.517957,10.86174 147.904486,10.436544 C149.291014,10.0113481 150.708986,10.0113481 152.095514,10.436544 C153.482043,10.86174 154.635407,11.5080379 157.106488,14.0081901 L176.154696,33.2804944 C178.625777,35.7806467 181.374223,35.7806467 183.845304,33.2804944 L202.893512,14.0081901 C205.364593,11.5080379 206.517957,10.86174 207.904486,10.436544 C209.291014,10.0113481 210.708986,10.0113481 212.095514,10.436544 C213.482043,10.86174 214.635407,11.5080379 217.106488,14.0081901 L236.154696,33.2804944 C238.625777,35.7806467 241.374223,35.7806467 243.845304,33.2804944 Z"/></g></g></svg>