<svg xmlns="http://www.w3.org/2000/svg" width="300" height="200" viewBox="0 0 300 200"><g fill="none" fill-rule="evenodd"><rect width="300" height="200" fill="#D4D4D8"/><rect width="300" height="87" y="113" fill="#FFF"/><g fill="#FFF" transform="translate(0 86)"><path d="M271.109834,11.5771796 L280.570444,1.94455868 C281.797748,0.694940643 282.370585,0.37191013 283.059228,0.159390056 C283.74787,-0.0531300186 284.45213,-0.0531300186 285.140772,0.159390056 C285.829415,0.37191013 286.402252,0.694940643 287.629556,1.94455868 L297.090166,11.5771796 C298.317469,12.8267976 298.686912,13.304367 298.843456,14.1112138 C299,14.9180606 299,26.2962424 299,27.8133333 C298.255,27.8133333 1.49666667,27.8133333 1,27.8133333 C1,26.2962424 1,14.9180606 1.1565438,14.1112138 C1.31308761,13.304367 1.68253099,12.8267976 2.90983442,11.5771796 L12.3704442,1.94455868 C13.5977477,0.694940643 14.1705853,0.37191013 14.8592278,0.159390056 C15.5478703,-0.0531300186 16.2521297,-0.0531300186 16.9407722,0.159390056 C17.6294147,0.37191013 18.2022523,0.694940643 19.4295558,1.94455868 L28.8901656,11.5771796 C30.117469,12.8267976 31.482531,12.8267976 32.7098344,11.5771796 L42.1704442,1.94455868 C43.3977477,0.694940643 43.9705853,0.37191013 44.6592278,0.159390056 C45.3478703,-0.0531300186 46.0521297,-0.0531300186 46.7407722,0.159390056 C47.4294147,0.37191013 48.0022523,0.694940643 49.2295558,1.94455868 L58.6901656,11.5771796 C59.917469,12.8267976 61.282531,12.8267976 62.5098344,11.5771796 L71.9704442,1.94455868 C73.1977477,0.694940643 73.7705853,0.37191013 74.4592278,0.159390056 C75.1478703,-0.0531300186 75.8521297,-0.0531300186 76.5407722,0.159390056 C77.2294147,0.37191013 77.8022523,0.694940643 79.0295558,1.94455868 L88.4901656,11.5771796 C89.717469,12.8267976 91.082531,12.8267976 92.3098344,11.5771796 L101.770444,1.94455868 C102.997748,0.694940643 103.570585,0.37191013 104.259228,0.159390056 C104.94787,-0.0531300186 105.65213,-0.0531300186 106.340772,0.159390056 C107.029415,0.37191013 107.602252,0.694940643 108.829556,1.94455868 L118.290166,11.5771796 C119.517469,12.8267976 120.882531,12.8267976 122.109834,11.5771796 L131.570444,1.94455868 C132.797748,0.694940643 133.370585,0.37191013 134.059228,0.159390056 C134.74787,-0.0531300186 135.45213,-0.0531300186 136.140772,0.159390056 C136.829415,0.37191013 137.402252,0.694940643 138.629556,1.94455868 L148.090166,11.5771796 C149.317469,12.8267976 150.682531,12.8267976 151.909834,11.5771796 L161.370444,1.94455868 C162.597748,0.694940643 163.170585,0.37191013 163.859228,0.159390056 C164.54787,-0.0531300186 165.25213,-0.0531300186 165.940772,0.159390056 C166.629415,0.37191013 167.202252,0.694940643 168.429556,1.94455868 L177.890166,11.5771796 C179.117469,12.8267976 180.482531,12.8267976 181.709834,11.5771796 L191.170444,1.94455868 C192.397748,0.694940643 192.970585,0.37191013 193.659228,0.159390056 C194.34787,-0.0531300186 195.05213,-0.0531300186 195.740772,0.159390056 C196.429415,0.37191013 197.002252,0.694940643 198.229556,1.94455868 L207.690166,11.5771796 C208.917469,12.8267976 210.282531,12.8267976 211.509834,11.5771796 L220.970444,1.94455868 C222.197748,0.694940643 222.770585,0.37191013 223.459228,0.159390056 C224.14787,-0.0531300186 224.85213,-0.0531300186 225.540772,0.159390056 C226.229415,0.37191013 226.802252,0.694940643 228.029556,1.94455868 L237.490166,11.5771796 C238.717469,12.8267976 240.082531,12.8267976 241.309834,11.5771796 L250.770444,1.94455868 C251.997748,0.694940643 252.570585,0.37191013 253.259228,0.159390056 C253.94787,-0.0531300186 254.65213,-0.0531300186 255.340772,0.159390056 C256.029415,0.37191013 256.602252,0.694940643 257.829556,1.94455868 L267.290166,11.5771796 C268.517469,12.8267976 269.882531,12.8267976 271.109834,11.5771796 Z" opacity=".3"/><path d="M271.516243,16.7069383 L281.0086,7.04199314 C282.240022,5.78818175 282.814782,5.46406724 283.505735,5.25083401 C284.196689,5.03760078 284.903311,5.03760078 285.594265,5.25083401 C286.285218,5.46406724 286.859978,5.78818175 288.0914,7.04199314 L297.583757,16.7069383 C298.815179,17.9607497 299.185862,18.4399216 299.342931,19.2494759 C299.5,20.0590303 299.5,26.4014545 299.5,27.9236364 C298.7525,27.9236364 0.998333333,27.9236364 0.5,27.9236364 C0.5,26.4014545 0.5,20.0590303 0.657069119,19.2494759 C0.814138239,18.4399216 1.18482136,17.9607497 2.41624326,16.7069383 L11.9086001,7.04199314 C13.140022,5.78818175 13.7147819,5.46406724 14.4057353,5.25083401 C15.0966887,5.03760078 15.8033113,5.03760078 16.4942647,5.25083401 C17.1852181,5.46406724 17.759978,5.78818175 18.9913999,7.04199314 L28.4837567,16.7069383 C29.7151786,17.9607497 31.0848214,17.9607497 32.3162433,16.7069383 L41.8086001,7.04199314 C43.040022,5.78818175 43.6147819,5.46406724 44.3057353,5.25083401 C44.9966887,5.03760078 45.7033113,5.03760078 46.3942647,5.25083401 C47.0852181,5.46406724 47.659978,5.78818175 48.8913999,7.04199314 L58.3837567,16.7069383 C59.6151786,17.9607497 60.9848214,17.9607497 62.2162433,16.7069383 L71.7086001,7.04199314 C72.940022,5.78818175 73.5147819,5.46406724 74.2057353,5.25083401 C74.8966887,5.03760078 75.6033113,5.03760078 76.2942647,5.25083401 C76.9852181,5.46406724 77.559978,5.78818175 78.7913999,7.04199314 L88.2837567,16.7069383 C89.5151786,17.9607497 90.8848214,17.9607497 92.1162433,16.7069383 L101.6086,7.04199314 C102.840022,5.78818175 103.414782,5.46406724 104.105735,5.25083401 C104.796689,5.03760078 105.503311,5.03760078 106.194265,5.25083401 C106.885218,5.46406724 107.459978,5.78818175 108.6914,7.04199314 L118.183757,16.7069383 C119.415179,17.9607497 120.784821,17.9607497 122.016243,16.7069383 L131.5086,7.04199314 C132.740022,5.78818175 133.314782,5.46406724 134.005735,5.25083401 C134.696689,5.03760078 135.403311,5.03760078 136.094265,5.25083401 C136.785218,5.46406724 137.359978,5.78818175 138.5914,7.04199314 L148.083757,16.7069383 C149.315179,17.9607497 150.684821,17.9607497 151.916243,16.7069383 L161.4086,7.04199314 C162.640022,5.78818175 163.214782,5.46406724 163.905735,5.25083401 C164.596689,5.03760078 165.303311,5.03760078 165.994265,5.25083401 C166.685218,5.46406724 167.259978,5.78818175 168.4914,7.04199314 L177.983757,16.7069383 C179.215179,17.9607497 180.584821,17.9607497 181.816243,16.7069383 L191.3086,7.04199314 C192.540022,5.78818175 193.114782,5.46406724 193.805735,5.25083401 C194.496689,5.03760078 195.203311,5.03760078 195.894265,5.25083401 C196.585218,5.46406724 197.159978,5.78818175 198.3914,7.04199314 L207.883757,16.7069383 C209.115179,17.9607497 210.484821,17.9607497 211.716243,16.7069383 L221.2086,7.04199314 C222.440022,5.78818175 223.014782,5.46406724 223.705735,5.25083401 C224.396689,5.03760078 225.103311,5.03760078 225.794265,5.25083401 C226.485218,5.46406724 227.059978,5.78818175 228.2914,7.04199314 L237.783757,16.7069383 C239.015179,17.9607497 240.384821,17.9607497 241.616243,16.7069383 L251.1086,7.04199314 C252.340022,5.78818175 252.914782,5.46406724 253.605735,5.25083401 C254.296689,5.03760078 255.003311,5.03760078 255.694265,5.25083401 C256.385218,5.46406724 256.959978,5.78818175 258.1914,7.04199314 L267.683757,16.7069383 C268.915179,17.9607497 270.284821,17.9607497 271.516243,16.7069383 Z" opacity=".6"/><path d="M271.922652,21.836697 L281.446756,12.1394276 C282.682296,10.8814229 283.258979,10.5562244 283.952243,10.342278 C284.645507,10.1283316 285.354493,10.1283316 286.047757,10.342278 C286.741021,10.5562244 287.317704,10.8814229 288.553244,12.1394276 L298.077348,21.836697 C299.312888,23.0947017 299.684811,23.5754762 299.842406,24.3877381 C300,25.2 300,26.4727273 300,28 C299.25,28 0.5,28 0,28 C0,26.4727273 0,25.2 0.157594434,24.3877381 C0.315188869,23.5754762 0.687111733,23.0947017 1.9226521,21.836697 L11.446756,12.1394276 C12.6822963,10.8814229 13.2589785,10.5562244 13.9522428,10.342278 C14.645507,10.1283316 15.354493,10.1283316 16.0477572,10.342278 C16.7410215,10.5562244 17.3177037,10.8814229 18.553244,12.1394276 L28.0773479,21.836697 C29.3128883,23.0947017 30.6871117,23.0947017 31.9226521,21.836697 L41.446756,12.1394276 C42.6822963,10.8814229 43.2589785,10.5562244 43.9522428,10.342278 C44.645507,10.1283316 45.354493,10.1283316 46.0477572,10.342278 C46.7410215,10.5562244 47.3177037,10.8814229 48.553244,12.1394276 L58.0773479,21.836697 C59.3128883,23.0947017 60.6871117,23.0947017 61.9226521,21.836697 L71.446756,12.1394276 C72.6822963,10.8814229 73.2589785,10.5562244 73.9522428,10.342278 C74.645507,10.1283316 75.354493,10.1283316 76.0477572,10.342278 C76.7410215,10.5562244 77.3177037,10.8814229 78.553244,12.1394276 L88.0773479,21.836697 C89.3128883,23.0947017 90.6871117,23.0947017 91.9226521,21.836697 L101.446756,12.1394276 C102.682296,10.8814229 103.258979,10.5562244 103.952243,10.342278 C104.645507,10.1283316 105.354493,10.1283316 106.047757,10.342278 C106.741021,10.5562244 107.317704,10.8814229 108.553244,12.1394276 L118.077348,21.836697 C119.312888,23.0947017 120.687112,23.0947017 121.922652,21.836697 L131.446756,12.1394276 C132.682296,10.8814229 133.258979,10.5562244 133.952243,10.342278 C134.645507,10.1283316 135.354493,10.1283316 136.047757,10.342278 C136.741021,10.5562244 137.317704,10.8814229 138.553244,12.1394276 L148.077348,21.836697 C149.312888,23.0947017 150.687112,23.0947017 151.922652,21.836697 L161.446756,12.1394276 C162.682296,10.8814229 163.258979,10.5562244 163.952243,10.342278 C164.645507,10.1283316 165.354493,10.1283316 166.047757,10.342278 C166.741021,10.5562244 167.317704,10.8814229 168.553244,12.1394276 L178.077348,21.836697 C179.312888,23.0947017 180.687112,23.0947017 181.922652,21.836697 L191.446756,12.1394276 C192.682296,10.8814229 193.258979,10.5562244 193.952243,10.342278 C194.645507,10.1283316 195.354493,10.1283316 196.047757,10.342278 C196.741021,10.5562244 197.317704,10.8814229 198.553244,12.1394276 L208.077348,21.836697 C209.312888,23.0947017 210.687112,23.0947017 211.922652,21.836697 L221.446756,12.1394276 C222.682296,10.8814229 223.258979,10.5562244 223.952243,10.342278 C224.645507,10.1283316 225.354493,10.1283316 226.047757,10.342278 C226.741021,10.5562244 227.317704,10.8814229 228.553244,12.1394276 L238.077348,21.836697 C239.312888,23.0947017 240.687112,23.0947017 241.922652,21.836697 L251.446756,12.1394276 C252.682296,10.8814229 253.258979,10.5562244 253.952243,10.342278 C254.645507,10.1283316 255.354493,10.1283316 256.047757,10.342278 C256.741021,10.5562244 257.317704,10.8814229 258.553244,12.1394276 L268.077348,21.836697 C269.312888,23.0947017 270.687112,23.0947017 271.922652,21.836697 Z"/></g></g></svg>