<svg xmlns="http://www.w3.org/2000/svg" width="300" height="200" viewBox="0 0 300 200"><g fill="none" fill-rule="evenodd"><rect width="300" height="200" fill="#D4D4D8"/><rect width="300" height="85" y="115" fill="#FFF"/><g fill="#FFF" transform="translate(0 83)"><path d="M295.536808,20.6865672 C296.795494,20.6865672 297.470475,20.8580175 298.081586,21.1799653 C298.692697,21.5019131 299.1723,21.9743584 299.499126,22.5763484 C299.825952,23.1783385 300,23.8432444 300,25.0831441 L300,33 L-1.13686838e-13,33 L-1.13686838e-13,25.0831441 C-1.13686838e-13,23.8432444 0.174048021,23.1783385 0.50087382,22.5763484 C0.827699618,21.9743584 1.30730319,21.5019131 1.91841431,21.1799653 C2.52952542,20.8580175 3.20450572,20.6865672 4.46319169,20.6865672 C83.9877306,20.6865672 124.316398,20.6865672 125.449195,20.6865672 C127.14839,20.6865672 130.997963,17.0864942 132.089334,16.0114126 L146.50401,1.81188092 C147.686008,0.647524656 148.237699,0.346534602 148.900921,0.148514829 C149.564143,-0.0495049432 150.242404,-0.0495049432 150.905626,0.148514829 C151.568847,0.346534602 152.120539,0.647524656 153.302537,1.81188092 L167.717213,16.0114126 C168.808584,17.0864942 172.464704,20.6865672 174.357352,20.6865672 C175.619117,20.6865672 216.012269,20.6865672 295.536808,20.6865672 Z" opacity=".6"/><path d="M295.536808,24.380597 C296.795494,24.380597 297.470475,24.5520473 298.081586,24.8739951 C298.692697,25.1959429 299.1723,25.6683882 299.499126,26.2703783 C299.825952,26.8723683 300,27.5372743 300,28.7771739 L300,33 L0,33 L0,28.7771739 C0,27.5372743 0.174048021,26.8723683 0.50087382,26.2703783 C0.827699618,25.6683882 1.30730319,25.1959429 1.91841431,24.8739951 C2.52952542,24.5520473 3.20450572,24.380597 4.46319169,24.380597 C84.8210639,24.380597 125.566398,24.380597 126.699195,24.380597 C128.39839,24.380597 130.997963,22.0118674 132.089334,20.9367858 L146.50401,6.73725405 C147.686008,5.57289779 148.237699,5.27190774 148.900921,5.07388796 C149.564143,4.87586819 150.242404,4.87586819 150.905626,5.07388796 C151.568847,5.27190774 152.120539,5.57289779 153.302537,6.73725405 L167.717213,20.9367858 C168.808584,22.0118674 171.214704,24.380597 173.107352,24.380597 C174.369117,24.380597 215.178936,24.380597 295.536808,24.380597 Z" opacity=".6"/><path d="M169.25,28.0746269 L295.536808,28.0746269 C296.795494,28.0746269 297.470475,28.2460772 298.081586,28.568025 C298.692697,28.8899728 299.1723,29.3624181 299.499126,29.9644081 C299.825952,30.5663982 300,31.2313041 300,32.4712038 L300,33 L-1.13686838e-13,33 L-1.13686838e-13,32.4712038 C-1.13686838e-13,31.2313041 0.174048021,30.5663982 0.50087382,29.9644081 C0.827699618,29.3624181 1.30730319,28.8899728 1.91841431,28.568025 C2.52952542,28.2460772 3.20450572,28.0746269 4.46319169,28.0746269 C85.3210639,28.0746269 126.316398,28.0746269 127.449195,28.0746269 C129.14839,28.0746269 130.997963,26.9372405 132.089334,25.8621589 L146.50401,11.6626272 C147.686008,10.4982709 148.237699,10.1972809 148.900921,9.9992611 C149.564143,9.80124133 150.242404,9.80124133 150.905626,9.9992611 C151.568847,10.1972809 152.120539,10.4982709 153.302537,11.6626272 L167.717213,25.8621589 C168.808584,26.9372405 170.714704,28.0746269 172.357352,28.0746269 C173.452451,28.0746269 172.416667,28.0746269 169.25,28.0746269 Z"/></g></g></svg>