<svg xmlns="http://www.w3.org/2000/svg" width="300" height="200" viewBox="0 0 300 200"><g fill="none" fill-rule="evenodd"><rect width="300" height="200" fill="#D4D4D8"/><rect width="300" height="65" y="135" fill="#FFF"/><g fill="#FFF" transform="translate(0 64)"><path d="M243.845304,52.3944675 L262.893512,33.3481546 C265.364593,30.8773197 266.517957,30.2386005 267.904486,29.8183904 C269.291014,29.3981804 270.708986,29.3981804 272.095514,29.8183904 C273.482043,30.2386005 274.635407,30.8773197 277.106488,33.3481546 L296.154696,52.3944675 C298.625777,54.8653024 299.369622,55.809587 299.684811,57.4049427 C300,59.0002984 300,69.0002984 300,72 L0,72 C0,70.5001492 0,59.2502736 0.157594434,58.4525957 C0.315188869,57.6549178 0.687111733,57.1827756 1.9226521,55.9473581 L11.446756,46.4242016 C12.6822963,45.1887842 13.2589785,44.8694246 13.9522428,44.6593196 C14.645507,44.4492146 15.354493,44.4492146 16.0477572,44.6593196 C16.7410215,44.8694246 17.3177037,45.1887842 18.553244,46.4242016 L28.0773479,55.9473581 C29.3128883,57.1827756 30.6871117,57.1827756 31.9226521,55.9473581 L41.446756,46.4242016 C42.6822963,45.1887842 43.2589785,44.8694246 43.9522428,44.6593196 C44.645507,44.4492146 45.354493,44.4492146 46.0477572,44.6593196 C46.7410215,44.8694246 47.3177037,45.1887842 48.553244,46.4242016 L58.0773479,55.9473581 C59.3128883,57.1827756 60.6871117,57.1827756 61.9226521,55.9473581 L71.446756,46.4242016 C71.9366896,45.9343167 72.323025,45.588472 72.6541112,45.3363626 L84.6435119,33.3481546 C87.1145926,30.8773197 88.267957,30.2386005 89.6544856,29.8183904 C91.0410141,29.3981804 92.4589859,29.3981804 93.8455144,29.8183904 C95.232043,30.2386005 96.3854074,30.8773197 98.8564881,33.3481546 L117.904696,52.3944675 C120.077189,54.5667444 122.464068,54.8292268 124.688371,53.1819147 L131.446756,46.4242016 C131.93669,45.9343167 132.323025,45.588472 132.654111,45.3363626 L144.643512,33.3481546 C145.069992,32.9217174 145.457221,32.5498528 145.813172,32.2242658 L173.753455,4.41396167 C176.590251,1.5774486 177.914311,0.844200318 179.506042,0.361800136 C181.097774,-0.120600045 182.725603,-0.120600045 184.317334,0.361800136 C185.909066,0.844200318 187.233126,1.5774486 190.069921,4.41396167 L224.665144,39.0057431 C225.496818,39.8373345 226.147697,40.5389178 226.664463,41.1553524 L237.904696,52.3944675 C240.077189,54.5667444 241.75,54.5667444 243.845304,52.3944675 Z" opacity=".3"/><path d="M243.845304,57.3944675 L262.893512,38.3481546 C265.364593,35.8773197 266.517957,35.2386005 267.904486,34.8183904 C269.291014,34.3981804 270.708986,34.3981804 272.095514,34.8183904 C273.482043,35.2386005 274.635407,35.8773197 277.106488,38.3481546 L296.154696,57.3944675 C298.625777,59.8653024 299.369622,60.809587 299.684811,62.4049427 C300,64.0002984 300,69.0002984 300,72 L0,72 C0,70.5001492 0,64.2502736 0.157594434,63.4525957 C0.315188869,62.6549178 0.687111733,62.1827756 1.9226521,60.9473581 L11.446756,51.4242016 C12.6822963,50.1887842 13.2589785,49.8694246 13.9522428,49.6593196 C14.645507,49.4492146 15.354493,49.4492146 16.0477572,49.6593196 C16.7410215,49.8694246 17.3177037,50.1887842 18.553244,51.4242016 L28.0773479,60.9473581 C29.3128883,62.1827756 30.6871117,62.1827756 31.9226521,60.9473581 L41.446756,51.4242016 C42.6822963,50.1887842 43.2589785,49.8694246 43.9522428,49.6593196 C44.645507,49.4492146 45.354493,49.4492146 46.0477572,49.6593196 C46.7410215,49.8694246 47.3177037,50.1887842 48.553244,51.4242016 L58.0773479,60.9473581 C59.3128883,62.1827756 60.6871117,62.1827756 61.9226521,60.9473581 L71.446756,51.4242016 C71.9366896,50.9343167 72.323025,50.588472 72.6541112,50.3363626 L84.6435119,38.3481546 C87.1145926,35.8773197 88.267957,35.2386005 89.6544856,34.8183904 C91.0410141,34.3981804 92.4589859,34.3981804 93.8455144,34.8183904 C95.232043,35.2386005 96.3854074,35.8773197 98.8564881,38.3481546 L117.904696,57.3944675 C120.077189,59.5667444 122.464068,59.8292268 124.688371,58.1819147 L131.446756,51.4242016 C131.93669,50.9343167 132.323025,50.588472 132.654111,50.3363626 L144.643512,38.3481546 C145.069992,37.9217174 145.457221,37.5498528 145.813172,37.2242658 L173.753455,9.41396167 C176.590251,6.5774486 177.914311,5.84420032 179.506042,5.36180014 C181.097774,4.87939995 182.725603,4.87939995 184.317334,5.36180014 C185.909066,5.84420032 187.233126,6.5774486 190.069921,9.41396167 L224.665144,44.0057431 C225.496818,44.8373345 226.147697,45.5389178 226.664463,46.1553524 L237.904696,57.3944675 C240.077189,59.5667444 241.75,59.5667444 243.845304,57.3944675 Z" opacity=".6"/><path d="M243.845304,62.3944675 L262.893512,43.3481546 C265.364593,40.8773197 266.517957,40.2386005 267.904486,39.8183904 C269.291014,39.3981804 270.708986,39.3981804 272.095514,39.8183904 C273.482043,40.2386005 274.635407,40.8773197 277.106488,43.3481546 L296.154696,62.3944675 C298.625777,64.8653024 299.369622,65.809587 299.684811,67.4049427 C300,69.0002984 300,69.0002984 300,72 L0,72 C0,70.5001492 0,69.2502736 0.157594434,68.4525957 C0.315188869,67.6549178 0.687111733,67.1827756 1.9226521,65.9473581 L11.446756,56.4242016 C12.6822963,55.1887842 13.2589785,54.8694246 13.9522428,54.6593196 C14.645507,54.4492146 15.354493,54.4492146 16.0477572,54.6593196 C16.7410215,54.8694246 17.3177037,55.1887842 18.553244,56.4242016 L28.0773479,65.9473581 C29.3128883,67.1827756 30.6871117,67.1827756 31.9226521,65.9473581 L41.446756,56.4242016 C42.6822963,55.1887842 43.2589785,54.8694246 43.9522428,54.6593196 C44.645507,54.4492146 45.354493,54.4492146 46.0477572,54.6593196 C46.7410215,54.8694246 47.3177037,55.1887842 48.553244,56.4242016 L58.0773479,65.9473581 C59.3128883,67.1827756 60.6871117,67.1827756 61.9226521,65.9473581 L71.446756,56.4242016 C71.9366896,55.9343167 72.323025,55.588472 72.6541112,55.3363626 L84.6435119,43.3481546 C87.1145926,40.8773197 88.267957,40.2386005 89.6544856,39.8183904 C91.0410141,39.3981804 92.4589859,39.3981804 93.8455144,39.8183904 C95.232043,40.2386005 96.3854074,40.8773197 98.8564881,43.3481546 L117.904696,62.3944675 C120.077189,64.5667444 122.464068,64.8292268 124.688371,63.1819147 L131.446756,56.4242016 C131.93669,55.9343167 132.323025,55.588472 132.654111,55.3363626 L144.643512,43.3481546 C145.069992,42.9217174 145.457221,42.5498528 145.813172,42.2242658 L173.753455,14.4139617 C176.590251,11.5774486 177.914311,10.8442003 179.506042,10.3618001 C181.097774,9.87939995 182.725603,9.87939995 184.317334,10.3618001 C185.909066,10.8442003 187.233126,11.5774486 190.069921,14.4139617 L224.665144,49.0057431 C225.496818,49.8373345 226.147697,50.5389178 226.664463,51.1553524 L237.904696,62.3944675 C240.077189,64.5667444 241.75,64.5667444 243.845304,62.3944675 Z"/></g></g></svg>