<svg xmlns="http://www.w3.org/2000/svg" width="300" height="200" viewBox="0 0 300 200"><g fill="none" fill-rule="evenodd"><rect width="300" height="200" fill="#D4D4D8"/><rect width="300" height="55" y="145" fill="#FFF"/><g fill="#FFF" transform="translate(0 55)"><path d="M300,0.139434058 L300,90.9955196 L-1.13686838e-13,90.9955196 L-1.13686838e-13,8.52651283e-14 L90.2896618,75.0954991 C93.4187293,77.6979995 94.6982826,78.4441543 96.2492771,79.0456384 C97.8002716,79.6471225 99.3672733,79.891487 101.027765,79.7908148 C102.688256,79.6901427 104.134245,79.3690198 107.907155,77.8428413 L300,0.139434058 Z" opacity=".4"/><path d="M300,5.13943406 L300,90.9955196 L0,90.9955196 L0,5 L90.2896618,80.0954991 C93.4187293,82.6979995 94.6982826,83.4441543 96.2492771,84.0456384 C97.8002716,84.6471225 99.3672733,84.891487 101.027765,84.7908148 C102.688256,84.6901427 104.134245,84.3690198 107.907155,82.8428413 L300,5.13943406 Z" opacity=".6"/><path d="M300,10.1394341 L300,90.9955196 L0,90.9955196 L0,10 L90.2896618,85.0954991 C93.4187293,87.6979995 94.6982826,88.4441543 96.2492771,89.0456384 C97.8002716,89.6471225 99.3672733,89.891487 101.027765,89.7908148 C102.688256,89.6901427 104.134245,89.3690198 107.907155,87.8428413 L300,10.1394341 Z"/></g></g></svg>