<svg xmlns="http://www.w3.org/2000/svg" width="300" height="200" viewBox="0 0 300 200"><g fill="none" fill-rule="evenodd"><rect width="300" height="200" fill="#D4D4D8"/><rect width="300" height="87" y="113" fill="#FFF"/><g fill="#FFF" transform="translate(0 87)"><path fill-opacity=".6" d="M0,12.2727273 C50,4.09090909 100,0 150,0 C200,0 250,4.09090909 300,12.2727273 L300,27 L0,27 L0,12.2727273 Z"/><path fill-opacity=".6" d="M0,19.875 C50,11.9583333 100,8 150,8 C200,8 250,11.9583333 300,19.875 L300,27 L0,27 L0,19.875 Z"/><path d="M0,27 C50,18.3333333 100,14 150,14 C200,14 250,18.3333333 300,27 L0,27 Z"/></g></g></svg>