<svg xmlns="http://www.w3.org/2000/svg" width="300" height="200" viewBox="0 0 300 200"><g fill="none" fill-rule="evenodd"><rect width="300" height="200" fill="#D4D4D8"/><rect width="300" height="86" y="114" fill="#FFF"/><g fill="#FFF" transform="translate(0 85)"><path d="M16.409713,-2.58960077e-16 L283.590287,2.58960077e-16 C285.819084,-1.50463262e-16 286.627299,0.232064028 287.442114,0.667831759 C288.256929,1.10359949 288.896401,1.74307093 289.332168,2.55788574 C289.767936,3.37270056 290,4.18091615 290,6.409713 L290,20 L290,20 L10,20 L10,6.409713 C10,4.18091615 10.232064,3.37270056 10.6678318,2.55788574 C11.1035995,1.74307093 11.7430709,1.10359949 12.5578857,0.667831759 C13.3727006,0.232064028 14.1809162,1.50463262e-16 16.409713,-2.58960077e-16 Z" opacity=".301"/><path d="M11.409713,5 L288.590287,5 C290.819084,5 291.627299,5.23206403 292.442114,5.66783176 C293.256929,6.10359949 293.896401,6.74307093 294.332168,7.55788574 C294.767936,8.37270056 295,9.18091615 295,11.409713 L295,25 L295,25 L5,25 L5,11.409713 C5,9.18091615 5.23206403,8.37270056 5.66783176,7.55788574 C6.10359949,6.74307093 6.74307093,6.10359949 7.55788574,5.66783176 C8.37270056,5.23206403 9.18091615,5 11.409713,5 Z" opacity=".597"/><path d="M6.409713,10 L293.590287,10 C295.819084,10 296.627299,10.232064 297.442114,10.6678318 C298.256929,11.1035995 298.896401,11.7430709 299.332168,12.5578857 C299.767936,13.3727006 300,14.1809162 300,16.409713 L300,30 L300,30 L0,30 L1.72640051e-16,16.409713 C-1.00308841e-16,14.1809162 0.232064028,13.3727006 0.667831759,12.5578857 C1.10359949,11.7430709 1.74307093,11.1035995 2.55788574,10.6678318 C3.37270056,10.232064 4.18091615,10 6.409713,10 Z"/></g></g></svg>